<svg width="2082" height="619" xmlns="http://www.w3.org/2000/svg" xmlns:xlink="http://www.w3.org/1999/xlink" xml:space="preserve" overflow="hidden"><g transform="translate(487 -100)"><path d="M-480.5 104.5 1590.5 104.5 1590.5 294.559 1590.5 524.441 1590.5 714.5-480.5 714.5-480.5 524.441-480.5 294.559Z" stroke="#0D0D0D" stroke-width="9.16667" stroke-miterlimit="8" fill="#E9EEF8" fill-rule="evenodd"/><g><g><g><g><path d="M693.191 1284.32 693.191 1284.32 696.097 1282.18 699.043 1283.87 699.043 1338.6 696.097 1340.29 693.191 1338.15Z" fill-rule="evenodd" transform="matrix(1 0 0 1.0005 -937.068 -867.639)"/><path d="M695.774 1343.48 695.774 1343.48 696.097 1340.29 699.043 1338.6 746.423 1365.96 746.423 1369.35 746.423 1372.74Z" fill-rule="evenodd" transform="matrix(1 0 0 1.0005 -937.068 -867.639)"/><path d="M710.747 1331.86 746.423 1352.44" stroke="#000000" stroke-width="5.85193" transform="matrix(1 0 0 1.0005 -937.068 -867.639)"/><path d="M746.423 1372.74 746.423 1372.74 746.423 1369.35 746.423 1365.96 793.844 1338.6 796.75 1340.29 796.75 1343.68Z" fill-rule="evenodd" transform="matrix(1 0 0 1.0005 -937.068 -867.639)"/><path d="M799.696 1338.6 799.696 1338.6 796.75 1340.29 793.844 1338.6 793.844 1283.87 796.75 1282.18 799.656 1280.48Z" fill-rule="evenodd" transform="matrix(1 0 0 1.0005 -937.068 -867.639)"/><path d="M782.14 1331.86 782.14 1290.61" stroke="#000000" stroke-width="5.85193" fill="none" transform="matrix(1 0 0 1.0005 -937.068 -867.639)"/><path d="M799.656 1280.48 799.656 1280.48 796.75 1282.18 793.844 1283.87 746.423 1256.51 746.423 1253.12 746.423 1249.73Z" fill-rule="evenodd" transform="matrix(1 0 0 1.0005 -937.068 -867.639)"/><path d="M746.423 1249.73 746.423 1249.73 746.423 1253.12 746.423 1256.51 699.043 1283.87 696.097 1282.18 695.774 1278.99Z" fill-rule="evenodd" transform="matrix(1 0 0 1.0005 -937.068 -867.639)"/><path d="M746.423 1270.03 710.747 1290.61" stroke="#000000" stroke-width="5.85193" transform="matrix(1 0 0 1.0005 -937.068 -867.639)"/><text font-family="Arial,Arial_MSFontService,sans-serif" font-weight="700" font-size="10" transform="matrix(4.03581 0 0 4.03781 -310.791 413)">N</text><text font-family="Arial,Arial_MSFontService,sans-serif" font-weight="700" font-size="10" transform="matrix(4.03581 0 0 4.03781 -310.791 507)">N</text><path d="M695.774 1278.99 695.774 1278.99 696.097 1282.18 693.191 1284.32 657.393 1272.69 658.281 1269.91 659.21 1267.12Z" fill-rule="evenodd" transform="matrix(1 0 0 1.0005 -937.068 -867.639)"/><path d="M623.452 1283.15 623.452 1283.15 625.833 1284.84 628.174 1286.58 610.296 1311.24 606.663 1311.24 603.031 1311.24Z" fill-rule="evenodd" transform="matrix(1 0 0 1.0005 -937.068 -867.639)"/><path d="M603.031 1311.24 603.031 1311.24 606.663 1311.24 610.296 1311.24 630.152 1338.64 627.811 1340.33 625.43 1342.07Z" fill-rule="evenodd" transform="matrix(1 0 0 1.0005 -937.068 -867.639)"/><path d="M659.21 1355.35 659.21 1355.35 658.281 1352.56 657.393 1349.78 693.191 1338.15 696.097 1340.29 695.774 1343.48Z" fill-rule="evenodd" transform="matrix(1 0 0 1.0005 -937.068 -867.639)"/><text font-family="Arial,Arial_MSFontService,sans-serif" font-weight="700" font-size="10" transform="matrix(4.03581 0 0 4.03781 -404.26 460)">O</text><path d="M606.663 1318.54 569.009 1318.54" stroke="#000000" stroke-width="5.85193" fill="none" transform="matrix(1 0 0 1.0005 -937.068 -867.639)"/><path d="M606.219 1306.84 606.219 1306.84 610.497 1300.98 569.009 1300.98 569.009 1306.84Z" fill-rule="evenodd" transform="matrix(1 0 0 1.0005 -937.068 -867.639)"/><path d="M610.497 1321.49 610.497 1321.49 606.219 1315.63 569.009 1315.63 569.009 1321.49Z" fill-rule="evenodd" transform="matrix(1 0 0 1.0005 -937.068 -867.639)"/><path d="M637.497 1244.48 637.497 1244.48 634.712 1245.41 631.927 1246.3 620.062 1209.82 622.847 1208.93 625.632 1208.04Z" fill-rule="evenodd" transform="matrix(1 0 0 1.0005 -937.068 -867.639)"/><path d="M630.878 1379.4 630.878 1379.4 633.663 1380.29 636.448 1381.22 625.632 1414.43 622.847 1413.54 620.062 1412.66Z" fill-rule="evenodd" transform="matrix(1 0 0 1.0005 -937.068 -867.639)"/><text font-family="Arial,Arial_MSFontService,sans-serif" font-weight="700" font-size="10" transform="matrix(4.03581 0 0 4.03781 -103.391 518)">S</text><path d="M796.75 1343.68 796.75 1343.68 796.75 1340.29 799.696 1338.6 832.144 1357.32 830.651 1359.87 829.198 1362.41Z" fill-rule="evenodd" transform="matrix(1 0 0 1.0005 -937.068 -867.639)"/><text font-family="Arial,Arial_MSFontService,sans-serif" font-weight="700" font-size="10" transform="matrix(4.03581 0 0 4.03781 -54.1941 456)">H</text><text font-family="Arial,Arial_MSFontService,sans-serif" font-weight="700" font-size="10" transform="matrix(4.03581 0 0 4.03781 -54.1941 497)">N</text><path d="M865.036 1362.37 865.036 1362.37 863.583 1359.83 862.09 1357.28 878.839 1347.64 880.291 1350.18 881.785 1352.68Z" fill-rule="evenodd" transform="matrix(1 0 0 1.0005 -937.068 -867.639)"/><path d="M912.941 1352.64 912.941 1352.64 914.434 1350.1 915.887 1347.6 947.73 1365.96 947.73 1369.35 944.824 1371.05Z" fill-rule="evenodd" transform="matrix(1 0 0 1.0005 -937.068 -867.639)"/><path d="M944.824 1371.05 944.824 1371.05 947.73 1369.35 950.676 1371.05 950.676 1425.77 947.73 1427.47 944.784 1429.16Z" fill-rule="evenodd" transform="matrix(1 0 0 1.0005 -937.068 -867.639)"/><path d="M962.38 1377.79 962.38 1419.03" stroke="#000000" stroke-width="5.85193" fill="none" transform="matrix(1 0 0 1.0005 -937.068 -867.639)"/><path d="M944.784 1429.16 944.784 1429.16 947.73 1427.47 950.676 1425.77 998.056 1453.13 998.056 1456.52 998.056 1459.91Z" fill-rule="evenodd" transform="matrix(1 0 0 1.0005 -937.068 -867.639)"/><path d="M998.056 1459.91 998.056 1459.91 998.056 1456.52 998.056 1453.13 1045.48 1425.77 1048.38 1427.47 1051.29 1429.16Z" fill-rule="evenodd" transform="matrix(1 0 0 1.0005 -937.068 -867.639)"/><path d="M998.056 1439.61 1033.77 1419.03" stroke="#000000" stroke-width="5.85193" transform="matrix(1 0 0 1.0005 -937.068 -867.639)"/><path d="M1051.29 1429.16 1051.29 1429.16 1048.38 1427.47 1045.48 1425.77 1045.48 1371.05 1048.38 1369.35 1051.29 1367.66Z" fill-rule="evenodd" transform="matrix(1 0 0 1.0005 -937.068 -867.639)"/><path d="M1051.29 1367.66 1051.29 1367.66 1048.38 1369.35 1045.48 1371.05 998.056 1343.68 998.056 1340.29 1001 1338.6Z" fill-rule="evenodd" transform="matrix(1 0 0 1.0005 -937.068 -867.639)"/><path d="M1033.77 1377.79 998.056 1357.2" stroke="#000000" stroke-width="5.85193" transform="matrix(1 0 0 1.0005 -937.068 -867.639)"/><path d="M995.151 1338.6 995.151 1338.6 998.056 1340.29 998.056 1343.68 950.676 1371.05 947.73 1369.35 947.73 1365.96Z" fill-rule="evenodd" transform="matrix(1 0 0 1.0005 -937.068 -867.639)"/><text font-family="Arial,Arial_MSFontService,sans-serif" font-weight="700" font-size="10" transform="matrix(4.03581 0 0 4.03781 -144.758 561)">O</text><path d="M836.987 1391.39 829.279 1399.86" stroke="#000000" stroke-width="5.85193" transform="matrix(1 0 0 1.0005 -937.068 -867.639)"/><path d="M828.31 1383.52 828.31 1383.52 823.992 1379.6 816.283 1388.08 820.602 1392.03Z" fill-rule="evenodd" transform="matrix(1 0 0 1.0005 -937.068 -867.639)"/><path d="M839.166 1393.36 839.166 1393.36 834.808 1389.41 827.099 1397.92 831.458 1401.84Z" fill-rule="evenodd" transform="matrix(1 0 0 1.0005 -937.068 -867.639)"/><text font-family="Arial,Arial_MSFontService,sans-serif" font-weight="700" font-size="10" transform="matrix(4.03581 0 0 4.03781 -70.7813 565)">O</text><path d="M867.942 1384.93 874.52 1393.69" stroke="#000000" stroke-width="5.85193" transform="matrix(1 0 0 1.0005 -937.068 -867.639)"/><path d="M858.619 1391.95 858.619 1391.95 853.938 1395.5 860.516 1404.22 865.197 1400.71Z" fill-rule="evenodd" transform="matrix(1 0 0 1.0005 -937.068 -867.639)"/><path d="M870.283 1383.19 870.283 1383.19 865.601 1386.71 872.179 1395.42 876.861 1391.91Z" fill-rule="evenodd" transform="matrix(1 0 0 1.0005 -937.068 -867.639)"/><text font-family="Arial,Arial_MSFontService,sans-serif" font-weight="700" font-size="10" transform="matrix(4.03581 0 0 4.03781 45.2483 431)">OH</text><path d="M1001 1338.6 1001 1338.6 998.056 1340.29 995.151 1338.6 995.151 1305.14 998.056 1305.14 1001 1305.14Z" fill-rule="evenodd" transform="matrix(1 0 0 1.0005 -937.068 -867.639)"/></g></g></g></g><path d="M259.5 413.167C259.5 393.469 275.469 377.5 295.168 377.5L604.832 377.5C624.531 377.5 640.5 393.469 640.5 413.167L640.5 555.833C640.5 575.531 624.531 591.5 604.832 591.5L295.168 591.5C275.469 591.5 259.5 575.531 259.5 555.833Z" stroke="#262626" stroke-width="6.875" stroke-miterlimit="8" fill="#FEF7F3" fill-rule="evenodd"/><text fill="#262626" font-family="Lato Black,Lato Black_MSFontService,sans-serif" font-weight="900" font-size="55" transform="matrix(1 0 0 1 310.323 472)">End</text><text fill="#262626" font-family="Lato Black,Lato Black_MSFontService,sans-serif" font-weight="900" font-size="55" transform="matrix(1 0 0 1 404.282 472)">-</text><text fill="#262626" font-family="Lato Black,Lato Black_MSFontService,sans-serif" font-weight="900" font-size="55" transform="matrix(1 0 0 1 424.907 472)">to</text><text fill="#262626" font-family="Lato Black,Lato Black_MSFontService,sans-serif" font-weight="900" font-size="55" transform="matrix(1 0 0 1 477.042 472)">-</text><text fill="#262626" font-family="Lato Black,Lato Black_MSFontService,sans-serif" font-weight="900" font-size="55" transform="matrix(1 0 0 1 497.667 472)">end </text><text fill="#262626" font-family="Lato Black,Lato Black_MSFontService,sans-serif" font-weight="900" font-size="55" transform="matrix(1 0 0 1 370.755 538)">Model</text><path d="M155.5 481.062 218.487 481.063 218.487 487.938 155.5 487.937ZM213.904 470.75 259.737 484.5 213.904 498.25Z" fill="#262626"/><path d="M640.5 481.062 703.75 481.063 703.75 487.938 640.5 487.937ZM699.167 470.75 745 484.5 699.167 498.25Z" fill="#262626"/><path d="M1362.72 489.762C1366.18 483.774 1373.83 481.722 1379.82 485.18L1425.56 511.584C1431.55 515.042 1433.6 522.699 1430.14 528.688L1430.14 528.688C1426.68 534.676 1419.02 536.728 1413.04 533.271L1367.3 506.866C1361.31 503.408 1359.26 495.751 1362.72 489.762Z" fill="#B4E5A2" fill-rule="evenodd"/><path d="M1319.69 526.148C1316.06 520.259 1317.9 512.547 1323.79 508.922L1362.3 485.219C1368.19 481.594 1375.9 483.43 1379.53 489.319L1379.53 489.319C1383.15 495.208 1381.32 502.92 1375.43 506.545L1336.91 530.248C1331.02 533.873 1323.31 532.037 1319.69 526.148Z" fill="#B4E5A2" fill-rule="evenodd"/><path d="M1273.62 612.214C1270 606.325 1271.83 598.613 1277.72 594.989L1316.24 571.286C1322.12 567.661 1329.84 569.497 1333.46 575.386L1333.46 575.386C1337.09 581.275 1335.25 588.987 1329.36 592.612L1290.85 616.315C1284.96 619.939 1277.25 618.103 1273.62 612.214Z" fill="#B4E5A2" fill-rule="evenodd"/><path d="M1168.26 490.211C1171.78 484.257 1179.46 482.283 1185.41 485.801L1230.46 512.42C1236.41 515.938 1238.39 523.616 1234.87 529.569L1234.87 529.569C1231.35 535.522 1223.67 537.497 1217.72 533.979L1172.67 507.36C1166.72 503.842 1164.74 496.164 1168.26 490.211Z" fill="#FC8484" fill-rule="evenodd"/><path d="M1222.37 526.148C1218.74 520.259 1220.58 512.547 1226.47 508.922L1264.98 485.219C1270.87 481.594 1278.58 483.43 1282.21 489.319L1282.21 489.319C1285.83 495.208 1283.99 502.92 1278.11 506.545L1239.59 530.248C1233.7 533.873 1225.99 532.037 1222.37 526.148Z" fill="#B4E5A2" fill-rule="evenodd"/><path d="M1264.45 488.201C1267.91 482.212 1275.57 480.161 1281.56 483.618L1327.29 510.023C1333.28 513.48 1335.33 521.138 1331.87 527.126L1331.87 527.126C1328.41 533.115 1320.76 535.167 1314.77 531.709L1269.03 505.304C1263.05 501.847 1260.99 494.189 1264.45 488.201Z" fill="#B4E5A2" fill-rule="evenodd"/><path d="M1217.39 575.866C1220.85 569.878 1228.5 567.826 1234.49 571.283L1280.23 597.688C1286.22 601.146 1288.27 608.803 1284.81 614.792L1284.81 614.792C1281.35 620.78 1273.69 622.832 1267.71 619.375L1221.97 592.97C1215.98 589.512 1213.93 581.855 1217.39 575.866Z" fill="#B4E5A2" fill-rule="evenodd"/><path d="M1323.5 514C1330.4 514 1336 519.596 1336 526.5L1336 579.5C1336 586.404 1330.4 592 1323.5 592L1323.5 592C1316.6 592 1311 586.403 1311 579.5L1311 526.5C1311 519.596 1316.6 514 1323.5 514Z" fill="#B4E5A2" fill-rule="evenodd"/><path d="M1228.5 509C1235.4 509 1241 514.597 1241 521.5L1241 579.5C1241 586.404 1235.4 592 1228.5 592L1228.5 592C1221.6 592 1216 586.403 1216 579.5L1216 521.5C1216 514.597 1221.6 509 1228.5 509Z" fill="#B4E5A2" fill-rule="evenodd"/><path d="M1077.09 576.515C1072.28 571.547 1072.41 563.62 1077.38 558.811L1114.97 522.418C1119.94 517.608 1127.87 517.737 1132.68 522.705L1132.68 522.706C1137.49 527.674 1137.36 535.6 1132.39 540.41L1094.79 576.803C1089.83 581.612 1081.9 581.484 1077.09 576.515Z" fill="#FC8484" fill-rule="evenodd"/><path d="M1120.31 518.227C1125.73 513.932 1133.61 514.844 1137.9 520.264L1170.4 561.272C1174.7 566.692 1173.78 574.567 1168.36 578.862L1168.36 578.862C1162.95 583.156 1155.07 582.245 1150.78 576.825L1118.28 535.817C1113.98 530.397 1114.89 522.522 1120.31 518.227Z" fill="#FC8484" fill-rule="evenodd"/><path d="M1120.81 530.223C1117.41 524.198 1119.55 516.563 1125.57 513.17L1171.17 487.498C1177.19 484.105 1184.83 486.239 1188.22 492.265L1188.22 492.265C1191.61 498.29 1189.48 505.925 1183.45 509.318L1137.86 534.99C1131.83 538.383 1124.2 536.249 1120.81 530.223Z" fill="#FC8484" fill-rule="evenodd"/><path d="M1069.58 491.607C1073.1 485.654 1080.78 483.68 1086.73 487.198L1131.78 513.817C1137.73 517.335 1139.71 525.013 1136.19 530.966L1136.19 530.966C1132.67 536.919 1124.99 538.893 1119.04 535.375L1073.99 508.756C1068.04 505.238 1066.06 497.56 1069.58 491.607Z" fill="#FC8484" fill-rule="evenodd"/><path d="M1020.21 530.341C1016.82 524.316 1018.95 516.681 1024.98 513.288L1070.57 487.616C1076.6 484.223 1084.23 486.357 1087.62 492.383L1087.62 492.383C1091.02 498.408 1088.88 506.043 1082.86 509.436L1037.26 535.108C1031.24 538.501 1023.6 536.367 1020.21 530.341Z" fill="#FC8484" fill-rule="evenodd"/><path d="M1077.5 508C1070.6 508 1065 502.404 1065 495.5L1065 442.5C1065 435.596 1070.6 430 1077.5 430L1077.5 430C1084.4 430 1090 435.596 1090 442.5L1090 495.5C1090 502.404 1084.4 508 1077.5 508Z" fill="#FC8484" fill-rule="evenodd"/><path d="M1017.49 406.13C1021.01 400.177 1028.68 398.202 1034.64 401.72L1079.69 428.34C1085.64 431.857 1087.61 439.535 1084.09 445.488L1084.09 445.488C1080.58 451.442 1072.9 453.416 1066.95 449.898L1021.9 423.279C1015.95 419.761 1013.97 412.083 1017.49 406.13Z" fill="#FC8484" fill-rule="evenodd"/><path d="M969.985 490.995C973.503 485.042 981.181 483.067 987.134 486.585L1032.18 513.204C1038.13 516.722 1040.11 524.4 1036.59 530.353L1036.59 530.353C1033.07 536.307 1025.4 538.281 1019.44 534.763L974.395 508.144C968.441 504.626 966.467 496.948 969.985 490.995Z" fill="#FC8484" fill-rule="evenodd"/><path d="M965.004 446.968C961.611 440.942 963.745 433.307 969.771 429.915L1015.36 404.242C1021.39 400.85 1029.02 402.984 1032.42 409.009L1032.42 409.009C1035.81 415.035 1033.68 422.67 1027.65 426.063L982.057 451.735C976.031 455.127 968.397 452.993 965.004 446.968Z" fill="#FC8484" fill-rule="evenodd"/><path d="M924.448 506.275C931.061 508.297 934.782 515.296 932.761 521.909L917.462 571.947C915.441 578.56 908.441 582.282 901.828 580.26L901.828 580.26C895.215 578.238 891.494 571.238 893.515 564.626L908.814 514.588C910.835 507.975 917.835 504.253 924.448 506.275Z" fill="#FC8484" fill-rule="evenodd"/><path d="M911.726 520.31C909.548 513.747 913.104 506.662 919.667 504.484L969.33 488.009C975.893 485.832 982.979 489.388 985.156 495.951L985.156 495.951C987.333 502.514 983.778 509.6 977.215 511.777L927.552 528.252C920.988 530.429 913.903 526.874 911.726 520.31Z" fill="#FC8484" fill-rule="evenodd"/><path d="M978.5 508C971.596 508 966 502.404 966 495.5L966 442.5C966 435.596 971.596 430 978.5 430L978.5 430C985.404 430 991 435.596 991 442.5L991 495.5C991 502.404 985.404 508 978.5 508Z" fill="#FC8484" fill-rule="evenodd"/><path d="M816 466.5C816 459.596 821.596 454 828.5 454L880.5 454C887.404 454 893 459.596 893 466.5L893 466.5C893 473.403 887.404 479 880.5 479L828.5 479C821.596 479 816 473.403 816 466.5Z" fill="#FC8484" fill-rule="evenodd"/><path d="M902.293 357.787C908.869 355.65 915.933 359.25 918.07 365.826L934.239 415.59C936.376 422.166 932.776 429.23 926.2 431.366L926.2 431.366C919.623 433.503 912.56 429.904 910.423 423.328L894.254 373.564C892.117 366.988 895.716 359.924 902.293 357.787Z" fill="#FC8484" fill-rule="evenodd"/><path d="M880.334 461.194C885.928 457.13 893.758 458.37 897.823 463.964L928.578 506.295C932.643 511.89 931.403 519.72 925.808 523.784L925.808 523.784C920.214 527.849 912.384 526.609 908.32 521.014L877.564 478.683C873.5 473.089 874.74 465.259 880.334 461.194Z" fill="#FC8484" fill-rule="evenodd"/><path d="M875.994 475.888C870.697 471.444 870.006 463.546 874.451 458.249L908.051 418.206C912.496 412.908 920.394 412.217 925.691 416.662L925.691 416.662C930.988 421.107 931.679 429.005 927.234 434.302L893.634 474.345C889.189 479.642 881.292 480.333 875.994 475.888Z" fill="#FC8484" fill-rule="evenodd"/><path d="M917.474 420.685C919.61 414.108 926.674 410.509 933.25 412.646L977.734 427.099C984.31 429.236 987.909 436.3 985.772 442.876L985.772 442.876C983.635 449.453 976.572 453.052 969.995 450.915L925.512 436.462C918.936 434.325 915.337 427.261 917.474 420.685Z" fill="#FC8484" fill-rule="evenodd"/><g><g><g><g><path d="M679.774 1259.46 679.774 1259.46 682.623 1257.36 685.513 1259.02 685.513 1312.69 682.623 1314.35 679.774 1312.25Z" fill-rule="evenodd" transform="matrix(1.00241 0 0 1 294.135 -819.657)"/><path d="M682.307 1317.48 682.307 1317.48 682.623 1314.35 685.513 1312.69 731.976 1339.52 731.976 1342.85 731.976 1346.17Z" fill-rule="evenodd" transform="matrix(1.00241 0 0 1 294.135 -819.657)"/><path d="M696.99 1306.08 731.976 1326.26" stroke="#000000" stroke-width="5.73866" transform="matrix(1.00241 0 0 1 294.135 -819.657)"/><path d="M731.976 1346.17 731.976 1346.17 731.976 1342.85 731.976 1339.52 778.479 1312.69 781.328 1314.35 781.328 1317.68Z" fill-rule="evenodd" transform="matrix(1.00241 0 0 1 294.135 -819.657)"/><path d="M784.217 1312.69 784.217 1312.69 781.328 1314.35 778.479 1312.69 778.479 1259.02 781.328 1257.36 784.178 1255.7Z" fill-rule="evenodd" transform="matrix(1.00241 0 0 1 294.135 -819.657)"/><path d="M767.001 1306.08 767.001 1265.63" stroke="#000000" stroke-width="5.73866" fill="none" transform="matrix(1.00241 0 0 1 294.135 -819.657)"/><path d="M784.178 1255.7 784.178 1255.7 781.328 1257.36 778.479 1259.02 731.976 1232.19 731.976 1228.86 731.976 1225.54Z" fill-rule="evenodd" transform="matrix(1.00241 0 0 1 294.135 -819.657)"/><path d="M731.976 1225.54 731.976 1225.54 731.976 1228.86 731.976 1232.19 685.513 1259.02 682.623 1257.36 682.307 1254.23Z" fill-rule="evenodd" transform="matrix(1.00241 0 0 1 294.135 -819.657)"/><path d="M731.976 1245.45 696.99 1265.63" stroke="#000000" stroke-width="5.73866" transform="matrix(1.00241 0 0 1 294.135 -819.657)"/><text font-family="Arial,Arial_MSFontService,sans-serif" font-weight="700" font-size="10" transform="matrix(3.96723 0 0 3.9577 909.769 436)">N</text><text font-family="Arial,Arial_MSFontService,sans-serif" font-weight="700" font-size="10" transform="matrix(3.96723 0 0 3.9577 909.769 528)">N</text><path d="M682.307 1254.23 682.307 1254.23 682.623 1257.36 679.774 1259.46 644.669 1248.06 645.54 1245.33 646.45 1242.6Z" fill-rule="evenodd" transform="matrix(1.00241 0 0 1 294.135 -819.657)"/><path d="M611.385 1258.31 611.385 1258.31 613.72 1259.97 616.015 1261.67 598.483 1285.86 594.921 1285.86 591.359 1285.86Z" fill-rule="evenodd" transform="matrix(1.00241 0 0 1 294.135 -819.657)"/><path d="M591.359 1285.86 591.359 1285.86 594.921 1285.86 598.483 1285.86 617.955 1312.73 615.659 1314.39 613.324 1316.09Z" fill-rule="evenodd" transform="matrix(1.00241 0 0 1 294.135 -819.657)"/><path d="M646.45 1329.11 646.45 1329.11 645.54 1326.38 644.669 1323.65 679.774 1312.25 682.623 1314.35 682.307 1317.48Z" fill-rule="evenodd" transform="matrix(1.00241 0 0 1 294.135 -819.657)"/><text font-family="Arial,Arial_MSFontService,sans-serif" font-weight="700" font-size="10" transform="matrix(3.96723 0 0 3.9577 817.888 482)">O</text><path d="M594.921 1293.02 557.996 1293.02" stroke="#000000" stroke-width="5.73866" fill="none" transform="matrix(1.00241 0 0 1 294.135 -819.657)"/><path d="M594.486 1281.54 594.486 1281.54 598.681 1275.8 557.996 1275.8 557.996 1281.54Z" fill-rule="evenodd" transform="matrix(1.00241 0 0 1 294.135 -819.657)"/><path d="M598.681 1295.91 598.681 1295.91 594.486 1290.17 557.996 1290.17 557.996 1295.91Z" fill-rule="evenodd" transform="matrix(1.00241 0 0 1 294.135 -819.657)"/><path d="M625.158 1220.4 625.158 1220.4 622.427 1221.31 619.696 1222.18 608.06 1186.4 610.791 1185.53 613.522 1184.66Z" fill-rule="evenodd" transform="matrix(1.00241 0 0 1 294.135 -819.657)"/><path d="M618.667 1352.7 618.667 1352.7 621.398 1353.57 624.129 1354.48 613.522 1387.05 610.791 1386.18 608.06 1385.31Z" fill-rule="evenodd" transform="matrix(1.00241 0 0 1 294.135 -819.657)"/><text font-family="Arial,Arial_MSFontService,sans-serif" font-weight="700" font-size="10" transform="matrix(3.96723 0 0 3.9577 1113.64 539)">S</text><path d="M781.328 1317.68 781.328 1317.68 781.328 1314.35 784.217 1312.69 816.037 1331.05 814.573 1333.55 813.148 1336.04Z" fill-rule="evenodd" transform="matrix(1.00241 0 0 1 294.135 -819.657)"/><text font-family="Arial,Arial_MSFontService,sans-serif" font-weight="700" font-size="10" transform="matrix(3.96723 0 0 3.9577 1162.01 477)">H</text><text font-family="Arial,Arial_MSFontService,sans-serif" font-weight="700" font-size="10" transform="matrix(3.96723 0 0 3.9577 1162.01 518)">N</text><path d="M848.293 1336 848.293 1336 846.868 1333.51 845.403 1331.01 861.828 1321.55 863.253 1324.05 864.717 1326.5Z" fill-rule="evenodd" transform="matrix(1.00241 0 0 1 294.135 -819.657)"/><path d="M895.27 1326.46 895.27 1326.46 896.735 1323.97 898.16 1321.51 929.386 1339.52 929.386 1342.85 926.536 1344.51Z" fill-rule="evenodd" transform="matrix(1.00241 0 0 1 294.135 -819.657)"/><path d="M926.536 1344.51 926.536 1344.51 929.386 1342.85 932.275 1344.51 932.275 1398.17 929.386 1399.84 926.497 1401.5Z" fill-rule="evenodd" transform="matrix(1.00241 0 0 1 294.135 -819.657)"/><path d="M943.752 1351.12 943.752 1391.57" stroke="#000000" stroke-width="5.73866" fill="none" transform="matrix(1.00241 0 0 1 294.135 -819.657)"/><path d="M926.497 1401.5 926.497 1401.5 929.386 1399.84 932.275 1398.17 978.738 1425.01 978.738 1428.33 978.738 1431.66Z" fill-rule="evenodd" transform="matrix(1.00241 0 0 1 294.135 -819.657)"/><path d="M978.738 1431.66 978.738 1431.66 978.738 1428.33 978.738 1425.01 1025.24 1398.17 1028.09 1399.84 1030.94 1401.5Z" fill-rule="evenodd" transform="matrix(1.00241 0 0 1 294.135 -819.657)"/><path d="M978.738 1411.75 1013.76 1391.57" stroke="#000000" stroke-width="5.73866" transform="matrix(1.00241 0 0 1 294.135 -819.657)"/><path d="M1030.94 1401.5 1030.94 1401.5 1028.09 1399.84 1025.24 1398.17 1025.24 1344.51 1028.09 1342.85 1030.98 1344.51Z" fill-rule="evenodd" transform="matrix(1.00241 0 0 1 294.135 -819.657)"/><path d="M1028.09 1339.52 1028.09 1339.52 1028.09 1342.85 1025.24 1344.51 978.738 1317.68 978.738 1314.35 978.738 1311.03Z" fill-rule="evenodd" transform="matrix(1.00241 0 0 1 294.135 -819.657)"/><path d="M1013.76 1351.12 978.738 1330.93" stroke="#000000" stroke-width="5.73866" transform="matrix(1.00241 0 0 1 294.135 -819.657)"/><path d="M978.738 1311.03 978.738 1311.03 978.738 1314.35 978.738 1317.68 932.275 1344.51 929.386 1342.85 929.386 1339.52Z" fill-rule="evenodd" transform="matrix(1.00241 0 0 1 294.135 -819.657)"/><path d="M1030.98 1344.51 1030.98 1344.51 1028.09 1342.85 1028.09 1339.52 1077.48 1311.03 1077.48 1314.35 1077.48 1317.68Z" fill-rule="evenodd" transform="matrix(1.00241 0 0 1 294.135 -819.657)"/><path d="M1077.48 1317.68 1077.48 1317.68 1077.48 1314.35 1077.48 1311.03 1128.26 1340.35 1126.84 1342.85 1125.41 1345.34Z" fill-rule="evenodd" transform="matrix(1.00241 0 0 1 294.135 -819.657)"/><text font-family="Arial,Arial_MSFontService,sans-serif" font-weight="700" font-size="10" transform="matrix(3.96723 0 0 3.9577 1072.98 581)">O</text><path d="M820.787 1364.46 813.227 1372.77" stroke="#000000" stroke-width="5.73866" transform="matrix(1.00241 0 0 1 294.135 -819.657)"/><path d="M812.278 1356.74 812.278 1356.74 808.043 1352.9 800.484 1361.21 804.718 1365.09Z" fill-rule="evenodd" transform="matrix(1.00241 0 0 1 294.135 -819.657)"/><path d="M822.924 1366.39 822.924 1366.39 818.649 1362.52 811.09 1370.87 815.365 1374.71Z" fill-rule="evenodd" transform="matrix(1.00241 0 0 1 294.135 -819.657)"/><text font-family="Arial,Arial_MSFontService,sans-serif" font-weight="700" font-size="10" transform="matrix(3.96723 0 0 3.9577 1145.7 584)">O</text><path d="M851.142 1358.12 857.593 1366.71" stroke="#000000" stroke-width="5.73866" transform="matrix(1.00241 0 0 1 294.135 -819.657)"/><path d="M842 1365.01 842 1365.01 837.409 1368.49 843.86 1377.04 848.451 1373.6Z" fill-rule="evenodd" transform="matrix(1.00241 0 0 1 294.135 -819.657)"/><path d="M853.438 1356.42 853.438 1356.42 848.847 1359.86 855.298 1368.41 859.889 1364.97Z" fill-rule="evenodd" transform="matrix(1.00241 0 0 1 294.135 -819.657)"/></g></g></g></g><text fill="#016EAB" font-family="Open Sans ExtraBold,Open Sans ExtraBold_MSFontService,sans-serif" font-weight="800" font-size="64" transform="matrix(1 0 0 1 -447.737 207)">End</text><text fill="#016EAB" font-family="Open Sans ExtraBold,Open Sans ExtraBold_MSFontService,sans-serif" font-weight="800" font-size="64" transform="matrix(1 0 0 1 -328.57 207)">-</text><text fill="#016EAB" font-family="Open Sans ExtraBold,Open Sans ExtraBold_MSFontService,sans-serif" font-weight="800" font-size="64" transform="matrix(1 0 0 1 -307.945 207)">to</text><text fill="#016EAB" font-family="Open Sans ExtraBold,Open Sans ExtraBold_MSFontService,sans-serif" font-weight="800" font-size="64" transform="matrix(1 0 0 1 -237.477 207)">-</text><text fill="#016EAB" font-family="Open Sans ExtraBold,Open Sans ExtraBold_MSFontService,sans-serif" font-weight="800" font-size="64" transform="matrix(1 0 0 1 -216.852 207)">end Optimization</text></g></svg>