<svg width="2819" height="2007" xmlns="http://www.w3.org/2000/svg" xmlns:xlink="http://www.w3.org/1999/xlink" xml:space="preserve" overflow="hidden"><defs><clipPath id="clip0"><rect x="-344" y="470" width="2819" height="2007"/></clipPath><clipPath id="clip1"><path d="M1782.09 1283.47 1955.92 1239.63 2009.73 1452.97 1835.9 1496.81Z" fill-rule="evenodd" clip-rule="evenodd"/></clipPath><clipPath id="clip2"><path d="M1782.09 1283.47 1955.92 1239.63 2009.73 1452.97 1835.9 1496.81Z" fill-rule="evenodd" clip-rule="evenodd"/></clipPath><clipPath id="clip3"><path d="M1782.09 1283.47 1955.92 1239.63 2009.73 1452.97 1835.9 1496.81Z" fill-rule="evenodd" clip-rule="evenodd"/></clipPath><clipPath id="clip4"><path d="M2093.82 1264.94 1951.27 1373.65 2084.68 1548.61 2227.24 1439.9Z" fill-rule="evenodd" clip-rule="evenodd"/></clipPath><clipPath id="clip5"><path d="M2093.82 1264.94 1951.27 1373.65 2084.68 1548.61 2227.24 1439.9Z" fill-rule="evenodd" clip-rule="evenodd"/></clipPath><clipPath id="clip6"><path d="M2093.82 1264.94 1951.27 1373.65 2084.68 1548.61 2227.24 1439.9Z" fill-rule="evenodd" clip-rule="evenodd"/></clipPath><clipPath id="clip7"><path d="M1891.76 1225.99 1996.49 1080.48 2175.07 1209 2070.34 1354.51Z" fill-rule="evenodd" clip-rule="evenodd"/></clipPath><clipPath id="clip8"><path d="M1891.76 1225.99 1996.49 1080.48 2175.07 1209 2070.34 1354.51Z" fill-rule="evenodd" clip-rule="evenodd"/></clipPath><clipPath id="clip9"><path d="M1891.76 1225.99 1996.49 1080.48 2175.07 1209 2070.34 1354.51Z" fill-rule="evenodd" clip-rule="evenodd"/></clipPath></defs><g clip-path="url(#clip0)" transform="translate(344 -470)"><rect x="-337" y="1969" width="2812" height="508" fill="#FEF7F3"/><rect x="1558" y="470" width="917" height="1507" fill="#EAE0F1"/><rect x="-337" y="470" width="1895" height="678" fill="#FEF7F3"/><rect x="-337" y="1144" width="1895" height="834" fill="#EDF6E8"/><path d="M220 1392.65C220 1375.17 234.172 1361 251.655 1361L691.345 1361C708.828 1361 723 1375.17 723 1392.65L723 1662.35C723 1679.83 708.828 1694 691.345 1694L251.655 1694C234.172 1694 220 1679.83 220 1662.35Z" stroke="#215F9A" stroke-width="8.02083" stroke-miterlimit="8" fill="#FFF4E5" fill-rule="evenodd"/><path d="M255 1547.33C255 1537.76 262.761 1530 272.334 1530L341.666 1530C351.239 1530 359 1537.76 359 1547.33L359 1616.67C359 1626.24 351.239 1634 341.666 1634L272.334 1634C262.761 1634 255 1626.24 255 1616.67Z" stroke="#215F9A" stroke-width="8.02083" stroke-miterlimit="8" fill="#FFDBB2" fill-rule="evenodd"/><text fill="#262626" font-family="Lato Black,Lato Black_MSFontService,sans-serif" font-style="italic" font-weight="900" font-size="48" transform="matrix(1 0 0 1 288.291 1601)">Q</text><path d="M420 1547.33C420 1537.76 427.761 1530 437.334 1530L506.666 1530C516.239 1530 524 1537.76 524 1547.33L524 1616.67C524 1626.24 516.239 1634 506.666 1634L437.334 1634C427.761 1634 420 1626.24 420 1616.67Z" stroke="#215F9A" stroke-width="8.02083" stroke-miterlimit="8" fill="#FFDBB2" fill-rule="evenodd"/><text fill="#262626" font-family="Lato Black,Lato Black_MSFontService,sans-serif" font-style="italic" font-weight="900" font-size="48" transform="matrix(1 0 0 1 455.961 1601)">K</text><path d="M585 1547.33C585 1537.76 592.761 1530 602.334 1530L671.666 1530C681.239 1530 689 1537.76 689 1547.33L689 1616.67C689 1626.24 681.239 1634 671.666 1634L602.334 1634C592.761 1634 585 1626.24 585 1616.67Z" stroke="#215F9A" stroke-width="8.02083" stroke-miterlimit="8" fill="#FFDBB2" fill-rule="evenodd"/><text fill="#262626" font-family="Lato Black,Lato Black_MSFontService,sans-serif" font-style="italic" font-weight="900" font-size="48" transform="matrix(1 0 0 1 621.053 1601)">V</text><text font-family="Lato Black,Lato Black_MSFontService,sans-serif" font-weight="900" font-size="48" transform="matrix(1 0 0 1 348.333 1437)">Multi</text><text font-family="Lato Black,Lato Black_MSFontService,sans-serif" font-weight="900" font-size="48" transform="matrix(1 0 0 1 464.636 1437)">-</text><text font-family="Lato Black,Lato Black_MSFontService,sans-serif" font-weight="900" font-size="48" transform="matrix(1 0 0 1 482.396 1437)">Head</text><text font-family="Lato Black,Lato Black_MSFontService,sans-serif" font-weight="900" font-size="48" transform="matrix(1 0 0 1 301.927 1494)">Cross Attention</text><path d="M220 2019C220 2004.64 231.641 1993 246 1993L696.999 1993C711.359 1993 723 2004.64 723 2019L723 2123C723 2137.36 711.359 2149 696.999 2149L246 2149C231.641 2149 220 2137.36 220 2123Z" stroke="#215F9A" stroke-width="8.02083" stroke-miterlimit="8" fill="#E5F1FF" fill-rule="evenodd"/><text fill="#262626" font-family="Lato Black,Lato Black_MSFontService,sans-serif" font-weight="900" font-size="48" transform="matrix(1 0 0 1 371.445 2061)">Molecule </text><text fill="#262626" font-family="Lato Black,Lato Black_MSFontService,sans-serif" font-weight="900" font-size="48" transform="matrix(1 0 0 1 350.545 2118)">Embedding</text><path d="M220 1861.17C220 1852.79 226.79 1846 235.167 1846L707.833 1846C716.209 1846 723 1852.79 723 1861.17L723 1921.83C723 1930.21 716.209 1937 707.833 1937L235.167 1937C226.79 1937 220 1930.21 220 1921.83Z" stroke="#215F9A" stroke-width="8.02083" stroke-miterlimit="8" fill="#FFF4E5" fill-rule="evenodd"/><text fill="#262626" font-family="Lato Black,Lato Black_MSFontService,sans-serif" font-weight="900" font-size="48" transform="matrix(1 0 0 1 317.029 1911)">Self</text><text fill="#262626" font-family="Lato Black,Lato Black_MSFontService,sans-serif" font-weight="900" font-size="48" transform="matrix(1 0 0 1 398.383 1911)">-</text><text fill="#262626" font-family="Lato Black,Lato Black_MSFontService,sans-serif" font-weight="900" font-size="48" transform="matrix(1 0 0 1 416.144 1911)">Attention</text><path d="M974 1392.65C974 1375.17 988.172 1361 1005.65 1361L1445.35 1361C1462.83 1361 1477 1375.17 1477 1392.65L1477 1662.35C1477 1679.83 1462.83 1694 1445.35 1694L1005.65 1694C988.172 1694 974 1679.83 974 1662.35Z" stroke="#215F9A" stroke-width="8.02083" stroke-miterlimit="8" fill="#FFF4E5" fill-rule="evenodd"/><path d="M1009 1547.33C1009 1537.76 1016.76 1530 1026.33 1530L1095.67 1530C1105.24 1530 1113 1537.76 1113 1547.33L1113 1616.67C1113 1626.24 1105.24 1634 1095.67 1634L1026.33 1634C1016.76 1634 1009 1626.24 1009 1616.67Z" stroke="#215F9A" stroke-width="8.02083" stroke-miterlimit="8" fill="#FFDBB2" fill-rule="evenodd"/><text fill="#262626" font-family="Lato Black,Lato Black_MSFontService,sans-serif" font-style="italic" font-weight="900" font-size="48" transform="matrix(1 0 0 1 1042.34 1601)">Q</text><path d="M1174 1547.33C1174 1537.76 1181.76 1530 1191.33 1530L1260.67 1530C1270.24 1530 1278 1537.76 1278 1547.33L1278 1616.67C1278 1626.24 1270.24 1634 1260.67 1634L1191.33 1634C1181.76 1634 1174 1626.24 1174 1616.67Z" stroke="#215F9A" stroke-width="8.02083" stroke-miterlimit="8" fill="#FFDBB2" fill-rule="evenodd"/><text fill="#262626" font-family="Lato Black,Lato Black_MSFontService,sans-serif" font-style="italic" font-weight="900" font-size="48" transform="matrix(1 0 0 1 1210.01 1601)">K</text><path d="M1339 1547.33C1339 1537.76 1346.76 1530 1356.33 1530L1425.67 1530C1435.24 1530 1443 1537.76 1443 1547.33L1443 1616.67C1443 1626.24 1435.24 1634 1425.67 1634L1356.33 1634C1346.76 1634 1339 1626.24 1339 1616.67Z" stroke="#215F9A" stroke-width="8.02083" stroke-miterlimit="8" fill="#FFDBB2" fill-rule="evenodd"/><text fill="#262626" font-family="Lato Black,Lato Black_MSFontService,sans-serif" font-style="italic" font-weight="900" font-size="48" transform="matrix(1 0 0 1 1375.1 1601)">V</text><text font-family="Lato Black,Lato Black_MSFontService,sans-serif" font-weight="900" font-size="48" transform="matrix(1 0 0 1 1100.6 1437)">Multi</text><text font-family="Lato Black,Lato Black_MSFontService,sans-serif" font-weight="900" font-size="48" transform="matrix(1 0 0 1 1216.9 1437)">-</text><text font-family="Lato Black,Lato Black_MSFontService,sans-serif" font-weight="900" font-size="48" transform="matrix(1 0 0 1 1234.66 1437)">Head</text><text font-family="Lato Black,Lato Black_MSFontService,sans-serif" font-weight="900" font-size="48" transform="matrix(1 0 0 1 1054.19 1494)">Cross Attention</text><path d="M974 2019C974 2004.64 985.641 1993 1000 1993L1451 1993C1465.36 1993 1477 2004.64 1477 2019L1477 2123C1477 2137.36 1465.36 2149 1451 2149L1000 2149C985.641 2149 974 2137.36 974 2123Z" stroke="#215F9A" stroke-width="8.02083" stroke-miterlimit="8" fill="#E5F1FF" fill-rule="evenodd"/><text fill="#262626" font-family="Lato Black,Lato Black_MSFontService,sans-serif" font-weight="900" font-size="48" transform="matrix(1 0 0 1 1145.27 2061)">Protein</text><text fill="#262626" font-family="Lato Black,Lato Black_MSFontService,sans-serif" font-weight="900" font-size="48" transform="matrix(1 0 0 1 1104.59 2118)">Embeddin</text><text fill="#262626" font-family="Lato Black,Lato Black_MSFontService,sans-serif" font-weight="900" font-size="48" transform="matrix(1 0 0 1 1321.16 2118)">g</text><path d="M3.4375-2.21873e-05 3.43771 32.9967-3.43729 32.9968-3.4375 2.21873e-05ZM13.7502 28.4133 0.000360892 55.9134-13.7498 28.4135Z" fill="#156082" transform="matrix(1 0 0 -1 1226.5 1993.41)"/><path d="M974 1861.17C974 1852.79 980.79 1846 989.167 1846L1461.83 1846C1470.21 1846 1477 1852.79 1477 1861.17L1477 1921.83C1477 1930.21 1470.21 1937 1461.83 1937L989.167 1937C980.79 1937 974 1930.21 974 1921.83Z" stroke="#215F9A" stroke-width="8.02083" stroke-miterlimit="8" fill="#FFF4E5" fill-rule="evenodd"/><text fill="#262626" font-family="Lato Black,Lato Black_MSFontService,sans-serif" font-weight="900" font-size="48" transform="matrix(1 0 0 1 1071.08 1911)">Self</text><text fill="#262626" font-family="Lato Black,Lato Black_MSFontService,sans-serif" font-weight="900" font-size="48" transform="matrix(1 0 0 1 1152.43 1911)">-</text><text fill="#262626" font-family="Lato Black,Lato Black_MSFontService,sans-serif" font-weight="900" font-size="48" transform="matrix(1 0 0 1 1170.19 1911)">Attention</text><path d="M0-3.4375 109.502-3.4375 109.502 165.092 106.065 161.655 189.213 161.655 189.213 168.53 102.627 168.53 102.627 0 106.065 3.4375 0 3.4375ZM184.63 151.342 212.13 165.092 184.63 178.842Z" fill="#D22053" transform="matrix(-1.83697e-16 -1 -1 1.83697e-16 1226.59 1846.63)"/><path d="M0-3.4375 62.8104-3.4375 62.8104 165.092 59.3729 161.655 189.213 161.655 189.213 168.53 55.9354 168.53 55.9354 0 59.3729 3.4375 0 3.4375ZM184.63 151.342 212.13 165.092 184.63 178.842Z" fill="#F3800D" transform="matrix(-1.83697e-16 -1 -1 1.83697e-16 472.593 1846.63)"/><path d="M0-3.4375 109.502-3.4375 109.502 754.05 106.065 750.612 189.213 750.612 189.213 757.487 102.627 757.487 102.627 0 106.065 3.4375 0 3.4375ZM184.629 740.3 212.129 754.05 184.629 767.8Z" fill="#D22053" transform="matrix(-1.83697e-16 -1 -1 1.83697e-16 1226.55 1846.63)"/><path d="M3.4375-1.49272e-05 3.43812 143.3-3.43688 143.3-3.4375 1.49272e-05ZM13.7506 138.716 0.000721785 166.216-13.7494 138.716Z" fill="#156082" transform="matrix(1 0 0 -1 472.5 2315.72)"/><path d="M3.4375-1.49271e-05 3.43812 143.3-3.43688 143.3-3.4375 1.49271e-05ZM13.7506 138.717 0.000721785 166.217-13.7494 138.717Z" fill="#156082" transform="matrix(1 0 0 -1 1226.5 2315.72)"/><path d="M469.062 1846.63 469.062 1784.39 1226.55 1784.39 1223.11 1787.83 1223.11 1657.42 1229.99 1657.42 1229.99 1791.27 472.5 1791.27 475.937 1787.83 475.937 1846.63ZM1212.8 1662 1226.55 1634.5 1240.3 1662Z" fill="#F3800D"/><path d="M469.063 1846.63 469.063 1785.25 1391.64 1785.25 1388.2 1788.69 1388.2 1657.42 1395.08 1657.42 1395.08 1792.13 472.5 1792.13 475.938 1788.69 475.938 1846.63ZM1377.89 1662 1391.64 1634.5 1405.39 1662Z" fill="#F3800D"/><path d="M0-3.4375 109.502-3.4375 109.502 588.958 106.065 585.52 189.213 585.52 189.213 592.395 102.627 592.395 102.627 0 106.065 3.4375 0 3.4375ZM184.629 575.208 212.129 588.958 184.629 602.708Z" fill="#D22053" transform="matrix(-1.83697e-16 -1 -1 1.83697e-16 1226.46 1846.63)"/><path d="M220 1197.67C220 1189.57 226.567 1183 234.667 1183L708.333 1183C716.433 1183 723 1189.57 723 1197.67L723 1256.33C723 1264.43 716.433 1271 708.333 1271L234.667 1271C226.567 1271 220 1264.43 220 1256.33Z" stroke="#215F9A" stroke-width="8.02083" stroke-miterlimit="8" fill="#E5F1FF" fill-rule="evenodd"/><text fill="#262626" font-family="Lato Black,Lato Black_MSFontService,sans-serif" font-weight="900" font-size="48" transform="matrix(1 0 0 1 336.22 1246)">Add &amp; Norm</text><path d="M469.063 1361.81 469.063 1294.42 475.938 1294.42 475.938 1361.81ZM458.75 1299 472.5 1271.5 486.25 1299Z" fill="#156082"/><path d="M973 1204.67C973 1196.57 979.567 1190 987.667 1190L1461.33 1190C1469.43 1190 1476 1196.57 1476 1204.67L1476 1263.33C1476 1271.43 1469.43 1278 1461.33 1278L987.667 1278C979.567 1278 973 1271.43 973 1263.33Z" stroke="#215F9A" stroke-width="8.02083" stroke-miterlimit="8" fill="#E5F1FF" fill-rule="evenodd"/><text fill="#262626" font-family="Lato Black,Lato Black_MSFontService,sans-serif" font-weight="900" font-size="48" transform="matrix(1 0 0 1 1089.35 1253)">Add &amp; Norm</text><path d="M1222.98 1362.11 1222.31 1301.45 1229.19 1301.38 1229.86 1362.04ZM1212.05 1306.15 1225.5 1278.5 1239.55 1305.85Z" fill="#156082"/><path d="M0-3.4375 61.9641-3.4375 61.9641 333.853 58.5266 330.415 619.392 330.415 615.955 333.853 615.955 274.268 622.83 274.268 622.83 337.29 55.0891 337.29 55.0891 0 58.5266 3.4375 0 3.4375ZM605.642 278.851 619.392 251.351 633.142 278.851Z" fill="#F3800D" transform="matrix(-1.83697e-16 -1 -1 1.83697e-16 471.851 1846.89)"/><path d="M0-3.4375 109.875-3.4375 109.875 334.768 106.438 331.331 612.661 331.331 609.223 334.768 609.223 275.185 616.098 275.185 616.098 338.206 103 338.206 103 0 106.438 3.4375 0 3.4375ZM598.911 279.769 612.661 252.269 626.411 279.769Z" fill="#D22053" transform="matrix(-1.83697e-16 -1 -1 1.83697e-16 1225.77 1847.16)"/><path d="M3.4375-2.21872e-05 3.43771 32.9971-3.43729 32.9971-3.4375 2.21872e-05ZM13.7502 28.4137 0.000360892 55.9138-13.7498 28.4139Z" fill="#156082" transform="matrix(1 0 0 -1 472.5 1993.41)"/><path d="M1756 1807C1756 1792.64 1767.64 1781 1782 1781L2233 1781C2247.36 1781 2259 1792.64 2259 1807L2259 1911C2259 1925.36 2247.36 1937 2233 1937L1782 1937C1767.64 1937 1756 1925.36 1756 1911Z" stroke="#215F9A" stroke-width="8.02083" stroke-miterlimit="8" fill="#E5F1FF" fill-rule="evenodd"/><text fill="#262626" font-family="Lato Black,Lato Black_MSFontService,sans-serif" font-weight="900" font-size="48" transform="matrix(1 0 0 1 1872.68 1850)">Transformer</text><text fill="#262626" font-family="Lato Black,Lato Black_MSFontService,sans-serif" font-weight="900" font-size="48" transform="matrix(1 0 0 1 1914.51 1907)">Decoder</text><path d="M1756 2019C1756 2004.64 1767.64 1993 1782 1993L2233 1993C2247.36 1993 2259 2004.64 2259 2019L2259 2123C2259 2137.36 2247.36 2149 2233 2149L1782 2149C1767.64 2149 1756 2137.36 1756 2123Z" stroke="#215F9A" stroke-width="8.02083" stroke-miterlimit="8" fill="#E5F1FF" fill-rule="evenodd"/><text fill="#262626" font-family="Lato Black,Lato Black_MSFontService,sans-serif" font-weight="900" font-size="48" transform="matrix(1 0 0 1 1907.05 2061)">Molecule </text><text fill="#262626" font-family="Lato Black,Lato Black_MSFontService,sans-serif" font-weight="900" font-size="48" transform="matrix(1 0 0 1 1886.15 2118)">Embedding</text><path d="M3.4375-7.46355e-06 3.43781 143.3-3.43719 143.3-3.4375 7.46355e-06ZM13.7503 138.717 0.000360892 166.217-13.7497 138.717Z" fill="#156082" transform="matrix(1 0 0 -1 2007.5 2315.72)"/><path d="M3.4375-2.21873e-05 3.43771 32.9967-3.43729 32.9968-3.4375 2.21873e-05ZM13.7502 28.4133 0.000360892 55.9134-13.7498 28.4135Z" fill="#156082" transform="matrix(1 0 0 -1 2007.5 1993.41)"/><path d="M3.4375-1.13336e-05 3.43779 86.5423-3.43721 86.5424-3.4375 1.13336e-05ZM13.7503 81.959 0.000360892 109.459-13.7497 81.9591Z" fill="#156082" transform="matrix(1 0 0 -1 2007.5 1781.96)"/><g><g><g><path d="M612.77 546.902 661.861 546.902 661.861 595.997 612.77 595.997Z" stroke="#215F9A" stroke-width="4.61449" fill="#20318B" fill-rule="evenodd"/><path d="M661.861 546.902 710.951 546.902 710.951 595.997 661.861 595.997Z" stroke="#215F9A" stroke-width="4.61449" fill="#F9FDCD" fill-rule="evenodd"/><path d="M710.951 546.902 760.041 546.902 760.041 595.997 710.951 595.997Z" stroke="#215F9A" stroke-width="4.61449" fill="#206DAF" fill-rule="evenodd"/><path d="M760.041 546.902 809.132 546.902 809.132 595.997 760.041 595.997Z" stroke="#215F9A" stroke-width="4.61449" fill="#EEF9B7" fill-rule="evenodd"/><path d="M809.132 546.902 858.223 546.902 858.223 595.997 809.132 595.997Z" stroke="#215F9A" stroke-width="4.61449" fill="#97D5B9" fill-rule="evenodd"/><path d="M858.223 546.902 907.313 546.902 907.313 595.997 858.223 595.997Z" stroke="#215F9A" stroke-width="4.61449" fill="#1E7BB6" fill-rule="evenodd"/><path d="M907.313 546.902 956.403 546.902 956.403 595.997 907.313 595.997Z" stroke="#215F9A" stroke-width="4.61449" fill="#243F99" fill-rule="evenodd"/><path d="M956.403 546.902 1005.49 546.902 1005.49 595.997 956.403 595.997Z" stroke="#215F9A" stroke-width="4.61449" fill="#F7FCC7" fill-rule="evenodd"/><path d="M612.77 595.997 661.861 595.997 661.861 645.085 612.77 645.085Z" stroke="#215F9A" stroke-width="4.61449" fill="#73C9BD" fill-rule="evenodd"/><path d="M661.861 595.997 710.951 595.997 710.951 645.085 661.861 645.085Z" stroke="#215F9A" stroke-width="4.61449" fill="#CDECB4" fill-rule="evenodd"/><path d="M710.951 595.997 760.041 595.997 760.041 645.085 710.951 645.085Z" stroke="#215F9A" stroke-width="4.61449" fill="#223491" fill-rule="evenodd"/><path d="M760.041 595.997 809.132 595.997 809.132 645.085 760.041 645.085Z" stroke="#215F9A" stroke-width="4.61449" fill="#F8FDCA" fill-rule="evenodd"/><path d="M809.132 595.997 858.223 595.997 858.223 645.085 809.132 645.085Z" stroke="#215F9A" stroke-width="4.61449" fill="#2169AD" fill-rule="evenodd"/><path d="M858.223 595.997 907.313 595.997 907.313 645.085 858.223 645.085Z" stroke="#215F9A" stroke-width="4.61449" fill="#FCFED3" fill-rule="evenodd"/><path d="M907.313 595.997 956.403 595.997 956.403 645.085 907.313 645.085Z" stroke="#215F9A" stroke-width="4.61449" fill="#A2DAB8" fill-rule="evenodd"/><path d="M956.403 595.997 1005.49 595.997 1005.49 645.085 956.403 645.085Z" stroke="#215F9A" stroke-width="4.61449" fill="#4FBBC2" fill-rule="evenodd"/><path d="M612.77 645.085 661.861 645.085 661.861 694.174 612.77 694.174Z" stroke="#215F9A" stroke-width="4.61449" fill="#DAF0B3" fill-rule="evenodd"/><path d="M661.861 645.085 710.951 645.085 710.951 694.174 661.861 694.174Z" stroke="#215F9A" stroke-width="4.61449" fill="#F7FCC7" fill-rule="evenodd"/><path d="M710.951 645.085 760.041 645.085 760.041 694.174 710.951 694.174Z" stroke="#215F9A" stroke-width="4.61449" fill="#4CBCC3" fill-rule="evenodd"/><path d="M760.041 645.085 809.132 645.085 809.132 694.174 760.041 694.174Z" stroke="#215F9A" stroke-width="4.61449" fill="#4AB9C2" fill-rule="evenodd"/><path d="M809.132 645.085 858.223 645.085 858.223 694.174 809.132 694.174Z" stroke="#215F9A" stroke-width="4.61449" fill="#1E82B9" fill-rule="evenodd"/><path d="M858.223 645.085 907.313 645.085 907.313 694.174 858.223 694.174Z" stroke="#215F9A" stroke-width="4.61449" fill="#46B7C3" fill-rule="evenodd"/><path d="M907.313 645.085 956.403 645.085 956.403 694.174 907.313 694.174Z" stroke="#215F9A" stroke-width="4.61449" fill="#1E8EBF" fill-rule="evenodd"/><path d="M956.403 645.085 1005.49 645.085 1005.49 694.174 956.403 694.174Z" stroke="#215F9A" stroke-width="4.61449" fill="#1C2D82" fill-rule="evenodd"/><path d="M612.77 694.174 661.861 694.174 661.861 743.263 612.77 743.263Z" stroke="#215F9A" stroke-width="4.61449" fill="#234CA0" fill-rule="evenodd"/><path d="M661.861 694.174 710.951 694.174 710.951 743.263 661.861 743.263Z" stroke="#215F9A" stroke-width="4.61449" fill="#243D98" fill-rule="evenodd"/><path d="M710.951 694.174 760.041 694.174 760.041 743.263 710.951 743.263Z" stroke="#215F9A" stroke-width="4.61449" fill="#40B4C3" fill-rule="evenodd"/><path d="M760.041 694.174 809.132 694.174 809.132 743.263 760.041 743.263Z" stroke="#215F9A" stroke-width="4.61449" fill="#225DA8" fill-rule="evenodd"/><path d="M809.132 694.174 858.223 694.174 858.223 743.263 809.132 743.263Z" stroke="#215F9A" stroke-width="4.61449" fill="#FEFED6" fill-rule="evenodd"/><path d="M858.223 694.174 907.313 694.174 907.313 743.263 858.223 743.263Z" stroke="#215F9A" stroke-width="4.61449" fill="#75CABD" fill-rule="evenodd"/><path d="M907.313 694.174 956.403 694.174 956.403 743.263 907.313 743.263Z" stroke="#215F9A" stroke-width="4.61449" fill="#E3F4B2" fill-rule="evenodd"/><path d="M956.403 694.174 1005.49 694.174 1005.49 743.263 956.403 743.263Z" stroke="#215F9A" stroke-width="4.61449" fill="#E0F3B3" fill-rule="evenodd"/><path d="M612.77 743.263 661.861 743.263 661.861 792.358 612.77 792.358Z" stroke="#215F9A" stroke-width="4.61449" fill="#5AC0C1" fill-rule="evenodd"/><path d="M661.861 743.263 710.951 743.263 710.951 792.358 661.861 792.358Z" stroke="#215F9A" stroke-width="4.61449" fill="#2356A4" fill-rule="evenodd"/><path d="M710.951 743.263 760.041 743.263 760.041 792.358 710.951 792.358Z" stroke="#215F9A" stroke-width="4.61449" fill="#F4FBBE" fill-rule="evenodd"/><path d="M760.041 743.263 809.132 743.263 809.132 792.358 760.041 792.358Z" stroke="#215F9A" stroke-width="4.61449" fill="#0B1F5E" fill-rule="evenodd"/><path d="M809.132 743.263 858.223 743.263 858.223 792.358 809.132 792.358Z" stroke="#215F9A" stroke-width="4.61449" fill="#243A97" fill-rule="evenodd"/><path d="M858.223 743.263 907.313 743.263 907.313 792.358 858.223 792.358Z" stroke="#215F9A" stroke-width="4.61449" fill="#C8E9B5" fill-rule="evenodd"/><path d="M907.313 743.263 956.403 743.263 956.403 792.358 907.313 792.358Z" stroke="#215F9A" stroke-width="4.61449" fill="#6DC7BE" fill-rule="evenodd"/><path d="M956.403 743.263 1005.49 743.263 1005.49 792.358 956.403 792.358Z" stroke="#215F9A" stroke-width="4.61449" fill="#1F2F87" fill-rule="evenodd"/><path d="M612.77 792.358 661.861 792.358 661.861 841.447 612.77 841.447Z" stroke="#215F9A" stroke-width="4.61449" fill="#0E2264" fill-rule="evenodd"/><path d="M661.861 792.358 710.951 792.358 710.951 841.447 661.861 841.447Z" stroke="#215F9A" stroke-width="4.61449" fill="#1F7CB6" fill-rule="evenodd"/><path d="M710.951 792.358 760.041 792.358 760.041 841.447 710.951 841.447Z" stroke="#215F9A" stroke-width="4.61449" fill="#1E80B9" fill-rule="evenodd"/><path d="M760.041 792.358 809.132 792.358 809.132 841.447 760.041 841.447Z" stroke="#215F9A" stroke-width="4.61449" fill="#56BEC1" fill-rule="evenodd"/><path d="M809.132 792.358 858.223 792.358 858.223 841.447 809.132 841.447Z" stroke="#215F9A" stroke-width="4.61449" fill="#E4F5B2" fill-rule="evenodd"/><path d="M858.223 792.358 907.313 792.358 907.313 841.447 858.223 841.447Z" stroke="#215F9A" stroke-width="4.61449" fill="#B4E1B7" fill-rule="evenodd"/><path d="M907.313 792.358 956.403 792.358 956.403 841.447 907.313 841.447Z" stroke="#215F9A" stroke-width="4.61449" fill="#FBFED0" fill-rule="evenodd"/><path d="M956.403 792.358 1005.49 792.358 1005.49 841.447 956.403 841.447Z" stroke="#215F9A" stroke-width="4.61449" fill="#206DAF" fill-rule="evenodd"/><path d="M612.77 841.447 661.861 841.447 661.861 890.536 612.77 890.536Z" stroke="#215F9A" stroke-width="4.61449" fill="#36A9C3" fill-rule="evenodd"/><path d="M661.861 841.447 710.951 841.447 710.951 890.536 661.861 890.536Z" stroke="#215F9A" stroke-width="4.61449" fill="#243796" fill-rule="evenodd"/><path d="M710.951 841.447 760.041 841.447 760.041 890.536 710.951 890.536Z" stroke="#215F9A" stroke-width="4.61449" fill="#1E89BD" fill-rule="evenodd"/><path d="M760.041 841.447 809.132 841.447 809.132 890.536 760.041 890.536Z" stroke="#215F9A" stroke-width="4.61449" fill="#0B1F5E" fill-rule="evenodd"/><path d="M809.132 841.447 858.223 841.447 858.223 890.536 809.132 890.536Z" stroke="#215F9A" stroke-width="4.61449" fill="#DBF1B3" fill-rule="evenodd"/><path d="M858.223 841.447 907.313 841.447 907.313 890.536 858.223 890.536Z" stroke="#215F9A" stroke-width="4.61449" fill="#C0E5B7" fill-rule="evenodd"/><path d="M907.313 841.447 956.403 841.447 956.403 890.536 907.313 890.536Z" stroke="#215F9A" stroke-width="4.61449" fill="#23469D" fill-rule="evenodd"/><path d="M956.403 841.447 1005.49 841.447 1005.49 890.536 956.403 890.536Z" stroke="#215F9A" stroke-width="4.61449" fill="#0B1F5E" fill-rule="evenodd"/><path d="M612.77 890.536 661.861 890.536 661.861 939.624 612.77 939.624Z" stroke="#215F9A" stroke-width="4.61449" fill="#FBFED0" fill-rule="evenodd"/><path d="M661.861 890.536 710.951 890.536 710.951 939.624 661.861 939.624Z" stroke="#215F9A" stroke-width="4.61449" fill="#8CD2BA" fill-rule="evenodd"/><path d="M710.951 890.536 760.041 890.536 760.041 939.624 710.951 939.624Z" stroke="#215F9A" stroke-width="4.61449" fill="#FCFED1" fill-rule="evenodd"/><path d="M760.041 890.536 809.132 890.536 809.132 939.624 760.041 939.624Z" stroke="#215F9A" stroke-width="4.61449" fill="#20308A" fill-rule="evenodd"/><path d="M809.132 890.536 858.223 890.536 858.223 939.624 809.132 939.624Z" stroke="#215F9A" stroke-width="4.61449" fill="#3DB2C4" fill-rule="evenodd"/><path d="M858.223 890.536 907.313 890.536 907.313 939.624 858.223 939.624Z" stroke="#215F9A" stroke-width="4.61449" fill="#DEF2B2" fill-rule="evenodd"/><path d="M907.313 890.536 956.403 890.536 956.403 939.624 907.313 939.624Z" stroke="#215F9A" stroke-width="4.61449" fill="#FAFDCE" fill-rule="evenodd"/><path d="M956.403 890.536 1005.49 890.536 1005.49 939.624 956.403 939.624Z" stroke="#215F9A" stroke-width="4.61449" fill="#E7F6B4" fill-rule="evenodd"/><path d="M661.861 545.459 661.861 941.073" stroke="#215F9A" stroke-width="4.61449" stroke-linejoin="round" stroke-miterlimit="10" fill="none" fill-rule="evenodd"/><path d="M710.951 545.459 710.951 941.073" stroke="#215F9A" stroke-width="4.61449" stroke-linejoin="round" stroke-miterlimit="10" fill="none" fill-rule="evenodd"/><path d="M760.041 545.459 760.041 941.073" stroke="#215F9A" stroke-width="4.61449" stroke-linejoin="round" stroke-miterlimit="10" fill="none" fill-rule="evenodd"/><path d="M809.132 545.459 809.132 941.073" stroke="#215F9A" stroke-width="4.61449" stroke-linejoin="round" stroke-miterlimit="10" fill="none" fill-rule="evenodd"/><path d="M858.223 545.459 858.223 941.073" stroke="#215F9A" stroke-width="4.61449" stroke-linejoin="round" stroke-miterlimit="10" fill="none" fill-rule="evenodd"/><path d="M907.313 545.459 907.313 941.073" stroke="#215F9A" stroke-width="4.61449" stroke-linejoin="round" stroke-miterlimit="10" fill="none" fill-rule="evenodd"/><path d="M956.403 545.459 956.403 941.073" stroke="#215F9A" stroke-width="4.61449" stroke-linejoin="round" stroke-miterlimit="10" fill="none" fill-rule="evenodd"/><path d="M611.327 595.997 1006.94 595.997" stroke="#215F9A" stroke-width="4.61449" stroke-linejoin="round" stroke-miterlimit="10" fill="none" fill-rule="evenodd"/><path d="M611.327 645.085 1006.94 645.085" stroke="#215F9A" stroke-width="4.61449" stroke-linejoin="round" stroke-miterlimit="10" fill="none" fill-rule="evenodd"/><path d="M611.327 694.174 1006.94 694.174" stroke="#215F9A" stroke-width="4.61449" stroke-linejoin="round" stroke-miterlimit="10" fill="none" fill-rule="evenodd"/><path d="M611.327 743.263 1006.94 743.263" stroke="#215F9A" stroke-width="4.61449" stroke-linejoin="round" stroke-miterlimit="10" fill="none" fill-rule="evenodd"/><path d="M611.327 792.358 1006.94 792.358" stroke="#215F9A" stroke-width="4.61449" stroke-linejoin="round" stroke-miterlimit="10" fill="none" fill-rule="evenodd"/><path d="M611.327 841.447 1006.94 841.447" stroke="#215F9A" stroke-width="4.61449" stroke-linejoin="round" stroke-miterlimit="10" fill="none" fill-rule="evenodd"/><path d="M611.327 890.536 1006.94 890.536" stroke="#215F9A" stroke-width="4.61449" stroke-linejoin="round" stroke-miterlimit="10" fill="none" fill-rule="evenodd"/><path d="M612.77 545.459 612.77 941.073" stroke="#215F9A" stroke-width="4.61449" stroke-linejoin="round" stroke-miterlimit="10" fill="none" fill-rule="evenodd"/><path d="M1005.49 545.459 1005.49 941.073" stroke="#215F9A" stroke-width="4.61449" stroke-linejoin="round" stroke-miterlimit="10" fill="none" fill-rule="evenodd"/><path d="M611.327 546.902 1006.94 546.902" stroke="#215F9A" stroke-width="4.61449" stroke-linejoin="round" stroke-miterlimit="10" fill="none" fill-rule="evenodd"/><path d="M611.327 939.624 1006.94 939.624" stroke="#215F9A" stroke-width="4.61449" stroke-linejoin="round" stroke-miterlimit="10" fill="none" fill-rule="evenodd"/></g></g></g><path d="M1009.5 741.063 1659.27 741.063 1659.27 1859.72 1655.84 1856.28 1733.85 1856.28 1733.85 1863.15 1652.4 1863.15 1652.4 744.5 1655.84 747.938 1009.5 747.938ZM1729.26 1845.97 1756.76 1859.72 1729.26 1873.47Z" fill="#156082"/><text font-family="Lato Black,Lato Black_MSFontService,sans-serif" font-weight="900" font-size="55" transform="matrix(1 0 0 1 231.274 2401)">Molecule Sequences</text><text font-family="Lato Black,Lato Black_MSFontService,sans-serif" font-weight="900" font-size="55" transform="matrix(1 0 0 1 996.54 2399)">Protein Sequences</text><text font-family="Lato Black,Lato Black_MSFontService,sans-serif" font-weight="900" font-size="55" transform="matrix(1 0 0 1 1830.29 2399)">Decoder Input</text><text font-family="Lato Black,Lato Black_MSFontService,sans-serif" font-weight="900" font-size="55" transform="matrix(1 0 0 1 1869.01 1565)">Generated</text><text font-family="Lato Black,Lato Black_MSFontService,sans-serif" font-weight="900" font-size="55" transform="matrix(1 0 0 1 1747.83 1631)">Molecule Sequences</text><text fill="#016EAB" font-family="Open Sans ExtraBold,Open Sans ExtraBold_MSFontService,sans-serif" font-weight="800" font-size="55" transform="matrix(1 0 0 1 -76.6683 2283)">Molecule Encoder</text><text fill="#016EAB" font-family="Open Sans ExtraBold,Open Sans ExtraBold_MSFontService,sans-serif" font-weight="800" font-size="55" transform="matrix(1 0 0 1 731.91 2276)">Protein Encoder</text><text fill="#016EAB" font-family="Open Sans ExtraBold,Open Sans ExtraBold_MSFontService,sans-serif" font-weight="800" font-size="64" transform="matrix(1 0 0 1 -170.999 1254)">CPI </text><text fill="#016EAB" font-family="Open Sans ExtraBold,Open Sans ExtraBold_MSFontService,sans-serif" font-weight="800" font-size="64" transform="matrix(1 0 0 1 -279.853 1331)">Attention</text><text fill="#016EAB" font-family="Open Sans ExtraBold,Open Sans ExtraBold_MSFontService,sans-serif" font-weight="800" font-size="64" transform="matrix(1 0 0 1 -164.995 1408)">×</text><text fill="#016EAB" font-family="Open Sans ExtraBold,Open Sans ExtraBold_MSFontService,sans-serif" font-style="italic" font-weight="800" font-size="64" transform="matrix(1 0 0 1 -112.286 1408)">n</text><path d="M105 1225C105 1162.04 156.041 1111 219.002 1111L674.997 1111C737.959 1111 789 1162.04 789 1225L789 2093C789 2155.96 737.959 2207 674.997 2207L219.002 2207C156.041 2207 105 2155.96 105 2093Z" stroke="#215F9A" stroke-width="8.02083" stroke-miterlimit="8" stroke-dasharray="8.02083 8.02083" fill="none" fill-rule="evenodd"/><path d="M841 1221.17C841 1155.35 894.354 1102 960.169 1102L1436.83 1102C1502.65 1102 1556 1155.35 1556 1221.17L1556 2079.83C1556 2145.65 1502.65 2199 1436.83 2199L960.169 2199C894.354 2199 841 2145.65 841 2079.83Z" stroke="#215F9A" stroke-width="8.02083" stroke-miterlimit="8" stroke-dasharray="8.02083 8.02083" fill="none" fill-rule="evenodd"/><path d="M469.063 1183.45 469.063 1060.04 810.607 1060.04 807.169 1063.47 807.169 966.417 814.044 966.417 814.044 1066.91 472.5 1066.91 475.938 1063.47 475.938 1183.45ZM796.857 971 810.607 943.5 824.357 971Z" fill="#156082"/><path d="M0-3.4375 130.214-3.4375 130.214 415.025 126.777 411.588 223.764 411.588 223.764 418.463 123.339 418.463 123.339 0 126.777 3.4375 0 3.4375ZM219.181 401.275 246.681 415.025 219.181 428.775Z" fill="#156082" transform="matrix(-1.83697e-16 -1 -1 1.83697e-16 1225.53 1190.18)"/><text fill="#016EAB" font-family="Open Sans ExtraBold,Open Sans ExtraBold_MSFontService,sans-serif" font-weight="800" font-size="64" transform="matrix(1 0 0 1 -187.984 594)">Attention Fusion &amp;</text><text fill="#016EAB" font-family="Open Sans ExtraBold,Open Sans ExtraBold_MSFontService,sans-serif" font-weight="800" font-size="64" transform="matrix(1 0 0 1 -227.378 671)">Feature Compression</text><text fill="#016EAB" font-family="Open Sans ExtraBold,Open Sans ExtraBold_MSFontService,sans-serif" font-weight="800" font-size="64" transform="matrix(1 0 0 1 1600.03 589)">Decoding Stage </text><path d="M1892 1385.5C1892 1380.25 1896.48 1376 1902 1376 1907.52 1376 1912 1380.25 1912 1385.5 1912 1390.75 1907.52 1395 1902 1395 1896.48 1395 1892 1390.75 1892 1385.5Z" fill="#4E95D9" fill-rule="evenodd"/><path d="M1933 1379C1933 1373.48 1937.25 1369 1942.5 1369 1947.75 1369 1952 1373.48 1952 1379 1952 1384.52 1947.75 1389 1942.5 1389 1937.25 1389 1933 1384.52 1933 1379Z" fill="#4E95D9" fill-rule="evenodd"/><path d="M1868 1354C1868 1346.82 1873.82 1341 1881 1341 1888.18 1341 1894 1346.82 1894 1354 1894 1361.18 1888.18 1367 1881 1367 1873.82 1367 1868 1361.18 1868 1354Z" fill="#BFBFBF" fill-rule="evenodd"/><path d="M1850 1329.5C1850 1325.91 1852.91 1323 1856.5 1323 1860.09 1323 1863 1325.91 1863 1329.5 1863 1333.09 1860.09 1336 1856.5 1336 1852.91 1336 1850 1333.09 1850 1329.5Z" fill="#4E95D9" fill-rule="evenodd"/><path d="M1910 1315.5C1910 1313.01 1912.24 1311 1915 1311 1917.76 1311 1920 1313.01 1920 1315.5 1920 1317.99 1917.76 1320 1915 1320 1912.24 1320 1910 1317.99 1910 1315.5Z" fill="#4E95D9" fill-rule="evenodd"/><path d="M1919 1344.5C1919 1348.09 1916.09 1351 1912.5 1351 1908.91 1351 1906 1348.09 1906 1344.5 1906 1340.91 1908.91 1338 1912.5 1338 1916.09 1338 1919 1340.91 1919 1344.5Z" fill="#BFBFBF" fill-rule="evenodd"/><path d="M1849 1387.5C1849 1383.36 1852.58 1380 1857 1380 1861.42 1380 1865 1383.36 1865 1387.5 1865 1391.64 1861.42 1395 1857 1395 1852.58 1395 1849 1391.64 1849 1387.5Z" fill="#BFBFBF" fill-rule="evenodd"/><path d="M1926 1372C1926 1367.58 1929.81 1364 1934.5 1364 1939.19 1364 1943 1367.58 1943 1372 1943 1376.42 1939.19 1380 1934.5 1380 1929.81 1380 1926 1376.42 1926 1372Z" fill="#FF8181" fill-rule="evenodd"/><path d="M1856 1380.5C1856 1376.91 1858.91 1374 1862.5 1374 1866.09 1374 1869 1376.91 1869 1380.5 1869 1384.09 1866.09 1387 1862.5 1387 1858.91 1387 1856 1384.09 1856 1380.5Z" fill="#FF8181" fill-rule="evenodd"/><g clip-path="url(#clip1)"><g clip-path="url(#clip2)"><g clip-path="url(#clip3)"><path d="M1943.95 1365.95C1940.71 1360.59 1933.1 1358.73 1927.86 1362.31L1920.26 1351.15C1925.89 1345.48 1922.62 1335.19 1914.78 1333.78L1916.02 1323.49C1928.03 1322.09 1925.2 1304.52 1913.34 1306.94 1906.17 1308.59 1904.73 1318.72 1911.04 1322.3L1909.66 1334C1904.63 1335.53 1901.56 1340.53 1902.39 1345.68L1895.3 1347.47C1891.45 1337.7 1877.83 1334.41 1869.94 1341.55L1865.43 1334.49C1869.75 1326.86 1862.23 1317.23 1853.7 1319.56 1848.15 1320.96 1844.74 1326.63 1846.15 1332.21 1847.73 1338.98 1856.11 1342.33 1861.86 1338.38L1866.5 1345.64C1862.53 1351.87 1864.09 1361.46 1869.94 1366.13L1866.85 1370.66C1861.65 1368.27 1854.76 1371.03 1852.64 1376.35 1847.17 1378.73 1844.07 1384.68 1845.56 1390.56 1848.91 1403.55 1867.79 1402.47 1869.55 1389.18 1870.32 1388.57 1870.96 1387.88 1871.53 1387.11L1889.34 1386.73C1892.59 1403.17 1916.58 1398.2 1913.11 1381.74 1910.02 1369.57 1892.67 1369.61 1889.58 1381.63L1873.52 1381.98C1873.91 1379.07 1872.91 1375.83 1870.97 1373.67L1874.29 1368.81C1885.1 1373.67 1897.93 1364.11 1896.55 1352.43L1904.43 1350.44C1907.01 1353.78 1911.77 1355.47 1915.99 1353.91L1924.24 1365.98C1920.14 1372.01 1923.56 1381.31 1930.67 1383.24 1933.12 1388.51 1939.01 1391.44 1944.76 1389.98 1957.49 1386.72 1956.85 1368.34 1944 1365.94ZM1899.52 1377.84C1908.65 1375.8 1911.99 1389.06 1902.99 1391.59 1893.87 1393.63 1890.52 1380.37 1899.52 1377.84ZM1914.56 1311.88C1918.82 1310.89 1920.42 1317.21 1916.19 1318.35 1911.93 1319.35 1910.33 1313.03 1914.56 1311.88ZM1851.06 1330.97C1849.52 1324.14 1859.47 1321.63 1861.36 1328.37 1862.9 1335.21 1852.95 1337.72 1851.06 1330.97ZM1861.19 1375.06C1867.58 1373.45 1871.34 1382.22 1865.66 1385.72 1861.33 1388.63 1855.29 1383.95 1857.03 1379 1857.62 1377.06 1859.21 1375.56 1861.19 1375.06ZM1859.19 1394.53C1852.54 1396.28 1847.47 1388.16 1851.89 1383 1852.94 1388.2 1858.02 1391.98 1863.3 1391.68 1862.33 1393.05 1860.89 1394.1 1859.19 1394.53ZM1883.11 1364.62C1868.77 1367.76 1863.57 1347.14 1877.68 1343.11 1892.02 1339.97 1897.22 1360.59 1883.11 1364.62ZM1907.41 1345.3C1905.85 1338.37 1915.95 1335.82 1917.86 1342.67 1919.42 1349.6 1909.32 1352.15 1907.41 1345.3ZM1932.48 1365.75C1935.54 1364.97 1938.73 1366.48 1940.02 1369.2 1942.39 1373.91 1938.11 1379.66 1932.91 1378.58 1926.06 1377.37 1925.73 1367.42 1932.5 1365.74ZM1943.49 1385.05C1941.1 1385.66 1938.67 1384.98 1936.91 1383.43 1942 1382.15 1945.81 1377.27 1945.75 1372.04 1950.84 1375.24 1949.46 1383.73 1943.49 1385.05Z" fill="#171717"/><path d="M1878.53 1345C1875.24 1345.41 1875.76 1350.27 1879.05 1350.07 1879.48 1350.04 1881.76 1350.02 1883 1352.72 1884.44 1355.75 1888.97 1353.69 1887.64 1350.63 1885.39 1345.66 1880.86 1344.75 1878.53 1345Z" fill="#171717"/></g></g></g><path d="M0 9.74409C-2.48111e-15 4.36258 4.36258 0 9.74409 0 15.1256-2.48111e-15 19.4882 4.36258 19.4882 9.74409 19.4882 15.1256 15.1256 19.4882 9.74409 19.4882 4.36258 19.4882-3.72166e-15 15.1256 0 9.74409Z" fill="#4E95D9" fill-rule="evenodd" transform="matrix(-0.622738 0.78243 0.78243 0.622738 2097.24 1408.62)"/><path d="M0 9.74409C-2.48111e-15 4.36258 4.36258 0 9.74409 0 15.1256-2.48111e-15 19.4882 4.36258 19.4882 9.74409 19.4882 15.1256 15.1256 19.4882 9.74409 19.4882 4.36258 19.4882-3.72166e-15 15.1256 0 9.74409Z" fill="#4E95D9" fill-rule="evenodd" transform="matrix(-0.622738 0.78243 0.78243 0.622738 2066.94 1436.35)"/><path d="M0 12.9921C-3.30814e-15 5.81677 5.81677 0 12.9921 0 20.1675-3.30814e-15 25.9843 5.81677 25.9843 12.9921 25.9843 20.1675 20.1675 25.9843 12.9921 25.9843 5.81677 25.9843-4.96221e-15 20.1675 0 12.9921Z" fill="#BFBFBF" fill-rule="evenodd" transform="matrix(-0.622738 0.78243 0.78243 0.622738 2085.12 1367.81)"/><path d="M0 6.49606C-1.65407e-15 2.90839 2.90839 0 6.49606 0 10.0837-1.65407e-15 12.9921 2.90839 12.9921 6.49606 12.9921 10.0837 10.0837 12.9921 6.49606 12.9921 2.90839 12.9921-2.48111e-15 10.0837 0 6.49606Z" fill="#4E95D9" fill-rule="evenodd" transform="matrix(-0.622738 0.78243 0.78243 0.622738 2082.64 1342.43)"/><path d="M0 4.54724C-1.15785e-15 2.03587 2.03587 0 4.54724 0 7.05862-1.15785e-15 9.09449 2.03587 9.09449 4.54724 9.09449 7.05862 7.05862 9.09449 4.54724 9.09449 2.03587 9.09449-1.73677e-15 7.05862 0 4.54724Z" fill="#4E95D9" fill-rule="evenodd" transform="matrix(-0.622738 0.78243 0.78243 0.622738 2035.28 1382.46)"/><path d="M0 6.49606C-1.65407e-15 2.90839 2.90839 0 6.49606 0 10.0837-1.65407e-15 12.9921 2.90839 12.9921 6.49606 12.9921 10.0837 10.0837 12.9921 6.49606 12.9921 2.90839 12.9921-2.48111e-15 10.0837 0 6.49606Z" fill="#BFBFBF" fill-rule="evenodd" transform="matrix(0.622738 -0.78243 -0.78243 -0.622738 2061.33 1413.91)"/><path d="M0 7.79528C-1.98489e-15 3.49006 3.49006 0 7.79528 0 12.1005-1.98489e-15 15.5906 3.49006 15.5906 7.79528 15.5906 12.1005 12.1005 15.5906 7.79528 15.5906 3.49006 15.5906-2.97733e-15 12.1005 0 7.79528Z" fill="#BFBFBF" fill-rule="evenodd" transform="matrix(-0.622738 0.78243 0.78243 0.622738 2127.44 1377.12)"/><path d="M0 8.44488C-2.15029e-15 3.7809 3.7809 0 8.44488 0 13.1089-2.15029e-15 16.8898 3.7809 16.8898 8.44488 16.8898 13.1089 13.1089 16.8898 8.44488 16.8898 3.7809 16.8898-3.22544e-15 13.1089 0 8.44488Z" fill="#FF8181" fill-rule="evenodd" transform="matrix(-0.622738 0.78243 0.78243 0.622738 2066.71 1427.58)"/><path d="M0 6.49606C-1.65407e-15 2.90839 2.90839 0 6.49606 0 10.0837-1.65407e-15 12.9921 2.90839 12.9921 6.49606 12.9921 10.0837 10.0837 12.9921 6.49606 12.9921 2.90839 12.9921-2.48111e-15 10.0837 0 6.49606Z" fill="#FF8181" fill-rule="evenodd" transform="matrix(-0.622738 0.78243 0.78243 0.622738 2118.63 1379.68)"/><g clip-path="url(#clip4)"><g clip-path="url(#clip5)"><g clip-path="url(#clip6)"><path d="M128.625 103.261C126.792 97.2768 119.865 93.6098 113.907 95.7999L109.272 83.1183C116.122 78.993 115.46 68.2211 108.202 64.9364L111.92 55.2596C123.914 56.8386 125.468 39.1147 113.372 38.5544 106.012 38.4017 102.142 47.8748 107.387 52.8914L103.186 63.8924C97.9396 64.147 93.7379 68.247 93.2796 73.4419L85.971 73.4419C84.6214 63.0267 72.2198 56.5069 62.8233 61.4987L60.1749 53.5536C66.2357 47.2127 61.2953 36.0334 52.4588 36.2111 46.7292 36.2111 42.0436 40.8713 42.0436 46.6264 41.9161 53.5783 49.2247 58.8751 55.7694 56.4559L58.4942 64.6302C53.121 69.6978 52.2807 79.3747 56.8136 85.3333L52.7137 88.9749C48.2573 85.3843 40.8978 86.3773 37.5364 91.0121 31.6539 91.9799 27.1974 96.9965 27.1974 103.057 27.2737 116.477 45.8388 120.043 50.8032 107.59 51.6945 107.182 52.4838 106.673 53.2224 106.062L70.5893 110.06C69.7234 126.791 94.1951 127.834 94.8584 111.028 94.8328 98.4732 77.9999 94.2718 72.0675 105.17L56.4063 101.58C57.5014 98.8551 57.3231 95.4682 55.9735 92.8964L60.3788 89.0001C69.6737 96.3597 84.4442 90.2225 85.9714 78.5594L94.0947 78.5594C95.7755 82.4302 99.9773 85.2314 104.459 84.7477L109.501 98.4734C104.052 103.312 105.096 113.167 111.513 116.782 112.608 122.487 117.599 126.765 123.533 126.765 136.673 126.714 140.545 108.736 128.677 103.26ZM82.6347 103.923C91.9805 104.178 91.9805 117.853 82.6347 118.107 73.2889 117.853 73.2889 104.178 82.6347 103.923ZM113.346 43.6474C117.726 43.7239 117.726 50.243 113.346 50.3194 108.966 50.2432 108.966 43.7239 113.346 43.6474ZM47.1104 46.627C47.2887 39.624 57.5511 39.624 57.7294 46.627 57.5511 53.6298 47.2887 53.6298 47.1104 46.627ZM46.1428 91.8532C52.7382 91.8532 54.2409 101.275 47.8744 103.287 42.9595 105.044 38.2485 99.0344 41.1516 94.6543 42.1956 92.9227 44.1056 91.8531 46.1428 91.8531ZM39.4454 110.239C32.5697 110.315 29.6413 101.199 35.1926 97.277 34.9379 102.574 38.9361 107.489 44.131 108.482 42.8577 109.577 41.2024 110.239 39.4454 110.239ZM69.9531 87.0912C55.285 86.6327 55.285 65.3693 69.9531 64.9115 84.6211 65.3698 84.6211 86.633 69.9531 87.0912ZM98.2444 74.3075C98.4227 67.2025 108.838 67.2025 109.016 74.3075 108.838 81.4122 98.4229 81.4122 98.2444 74.3075ZM117.548 100.257C120.705 100.257 123.43 102.498 124.016 105.452 125.162 110.596 119.61 115.128 114.823 112.811 108.482 109.959 110.596 100.231 117.573 100.257ZM123.506 121.674C121.036 121.674 118.846 120.426 117.522 118.491 122.768 118.491 127.657 114.696 128.88 109.603 133.03 113.958 129.618 121.852 123.506 121.674Z" fill="#171717" transform="matrix(-0.795182 0.606372 0.606372 0.795181 2097.23 1282.84)"/><path d="M70.3103 66.9481C67.0253 66.5406 66.3377 71.3791 69.5719 71.9903 70.0047 72.0667 72.2203 72.6015 72.755 75.53 73.417 78.815 78.3063 77.9238 77.7716 74.6387 76.8038 69.2655 72.6277 67.2793 70.3103 66.9481Z" fill="#171717" transform="matrix(-0.795182 0.606372 0.606372 0.795181 2097.23 1282.84)"/></g></g></g><path d="M2041.76 1232.89C2038.29 1228.77 2038.82 1222.62 2042.94 1219.16 2047.05 1215.69 2053.2 1216.22 2056.67 1220.33 2060.13 1224.45 2059.61 1230.6 2055.49 1234.06 2051.37 1237.53 2045.23 1237 2041.76 1232.89Z" fill="#4E95D9" fill-rule="evenodd"/><path d="M2068.64 1201.82C2065.18 1197.71 2065.7 1191.56 2069.82 1188.09 2073.93 1184.63 2080.08 1185.15 2083.55 1189.27 2087.01 1193.39 2086.49 1199.53 2082.37 1203 2078.26 1206.47 2072.11 1205.94 2068.64 1201.82Z" fill="#4E95D9" fill-rule="evenodd"/><path d="M2002.72 1224.38C1998.1 1218.89 1998.8 1210.69 2004.29 1206.07 2009.78 1201.45 2017.98 1202.15 2022.6 1207.64 2027.22 1213.13 2026.52 1221.32 2021.03 1225.95 2015.54 1230.57 2007.34 1229.87 2002.72 1224.38Z" fill="#BFBFBF" fill-rule="evenodd"/><path d="M1973.1 1217.64C1970.79 1214.9 1971.14 1210.8 1973.88 1208.49 1976.63 1206.18 1980.72 1206.53 1983.03 1209.27 1985.35 1212.02 1984.99 1216.11 1982.25 1218.43 1979.51 1220.74 1975.41 1220.38 1973.1 1217.64Z" fill="#4E95D9" fill-rule="evenodd"/><path d="M2010.54 1167.7C2008.92 1165.78 2009.17 1162.91 2011.09 1161.29 2013.01 1159.67 2015.88 1159.92 2017.5 1161.84 2019.12 1163.76 2018.87 1166.63 2016.95 1168.25 2015.03 1169.86 2012.16 1169.62 2010.54 1167.7Z" fill="#4E95D9" fill-rule="evenodd"/><path d="M2035.59 1184.42C2037.9 1187.16 2037.55 1191.26 2034.81 1193.57 2032.06 1195.88 2027.97 1195.53 2025.65 1192.79 2023.34 1190.04 2023.69 1185.95 2026.44 1183.64 2029.18 1181.32 2033.28 1181.68 2035.59 1184.42Z" fill="#BFBFBF" fill-rule="evenodd"/><path d="M2009.85 1262.45C2007.08 1259.16 2007.5 1254.24 2010.79 1251.46 2014.09 1248.69 2019 1249.11 2021.78 1252.41 2024.55 1255.7 2024.13 1260.62 2020.84 1263.39 2017.54 1266.16 2012.62 1265.74 2009.85 1262.45Z" fill="#BFBFBF" fill-rule="evenodd"/><path d="M2059.03 1200.85C2056.02 1197.28 2056.48 1191.96 2060.05 1188.95 2063.62 1185.95 2068.94 1186.4 2071.95 1189.97 2074.95 1193.54 2074.5 1198.87 2070.93 1201.87 2067.36 1204.87 2062.03 1204.42 2059.03 1200.85Z" fill="#FF8181" fill-rule="evenodd"/><path d="M2011.33 1252.58C2009.02 1249.84 2009.37 1245.74 2012.12 1243.43 2014.86 1241.12 2018.96 1241.47 2021.27 1244.21 2023.58 1246.95 2023.23 1251.05 2020.49 1253.36 2017.74 1255.67 2013.64 1255.32 2011.33 1252.58Z" fill="#FF8181" fill-rule="evenodd"/><g clip-path="url(#clip7)"><g clip-path="url(#clip8)"><g clip-path="url(#clip9)"><path d="M2068.7 1184.82C2062.77 1182.81 2055.75 1186.29 2054.05 1192.4L2041.05 1188.76C2041.7 1180.79 2032.57 1175.03 2025.66 1179.01L2019.98 1170.34C2028.27 1161.52 2014.79 1149.91 2007.27 1159.4 2002.85 1165.28 2008.27 1173.96 2015.41 1172.63L2021.89 1182.47C2019.03 1186.87 2019.9 1192.68 2023.85 1196.09L2019.58 1202.02C2010.34 1197.03 1997.8 1203.29 1996.37 1213.83L1988.37 1211.34C1986.76 1202.72 1974.8 1200.19 1969.79 1207.47 1966.44 1212.12 1967.48 1218.65 1972.16 1222.01 1977.72 1226.17 1986.29 1223.33 1988.15 1216.61L1996.38 1219.17C1997.35 1226.49 2004.72 1232.83 2012.2 1232.63L2012.76 1238.09C2007.24 1239.6 2003.75 1246.16 2005.55 1251.59 2002.9 1256.93 2004.37 1263.48 2009.29 1267.02 2020.22 1274.8 2033.96 1261.81 2026.75 1250.51 2026.94 1249.55 2026.99 1248.61 2026.93 1247.65L2040.32 1235.89C2053.39 1246.37 2068.53 1227.12 2055.28 1216.76 2045.07 1209.45 2031.83 1220.66 2037.21 1231.84L2025.15 1242.45C2023.58 1239.97 2020.72 1238.14 2017.85 1237.73L2017.26 1231.88C2028.66 1228.63 2032.31 1213.06 2023.73 1205.01L2028.48 1198.41C2032.6 1199.31 2037.33 1197.54 2039.56 1193.62L2053.64 1197.54C2054.39 1204.79 2063 1209.7 2069.68 1206.6 2074.95 1209.05 2081.34 1207.49 2084.8 1202.68 2092.44 1191.98 2080.11 1178.34 2068.73 1184.77ZM2042.37 1222.53C2048.04 1215.09 2059.14 1223.08 2053.88 1230.82 2048.22 1238.25 2037.12 1230.27 2042.37 1222.53ZM2011.39 1162.4C2014.01 1158.88 2019.3 1162.69 2016.8 1166.29 2014.18 1169.8 2008.89 1165.99 2011.39 1162.4ZM1975.12 1217.9C1969.54 1213.66 1975.53 1205.33 1981.32 1209.28 1986.9 1213.51 1980.9 1221.84 1975.12 1217.9ZM2011.26 1245.1C2015.11 1239.75 2023.64 1244.03 2021.55 1250.37 2020.11 1255.39 2012.48 1255.7 2010.62 1250.79 2009.82 1248.93 2010.07 1246.75 2011.26 1245.1ZM2022.27 1261.28C2018.32 1266.9 2009.21 1263.95 2009.27 1257.16 2013.42 1260.46 2019.74 1260.08 2023.58 1256.45 2023.73 1258.12 2023.3 1259.85 2022.27 1261.28ZM2021.3 1222.99C2012.36 1234.63 1995.1 1222.21 2003.3 1210.04 2012.24 1198.4 2029.5 1210.82 2021.3 1222.99ZM2027.45 1192.56C2021.79 1188.27 2027.87 1179.81 2033.74 1183.82 2039.41 1188.11 2033.32 1196.57 2027.45 1192.56ZM2059.79 1192.05C2061.63 1189.49 2065.05 1188.59 2067.78 1189.84 2072.63 1191.91 2073.07 1199.07 2068.39 1201.6 2062.37 1205.08 2055.71 1197.68 2059.8 1192.03ZM2080.65 1199.73C2079.21 1201.73 2076.92 1202.78 2074.57 1202.72 2077.64 1198.47 2077.42 1192.28 2074 1188.31 2079.95 1187.49 2084.37 1194.87 2080.65 1199.73Z" fill="#171717"/><path d="M2005.16 1210.94C2002.91 1213.36 2006.44 1216.75 2008.82 1214.48 2009.14 1214.17 2010.87 1212.69 2013.56 1213.96 2016.61 1215.35 2018.74 1210.86 2015.76 1209.37 2010.84 1207.02 2006.78 1209.25 2005.16 1210.94Z" fill="#171717"/></g></g></g></g></svg>