<svg width="2695" height="677" xmlns="http://www.w3.org/2000/svg" xmlns:xlink="http://www.w3.org/1999/xlink" xml:space="preserve" overflow="hidden"><defs><clipPath id="clip0"><rect x="1301" y="867" width="159" height="200"/></clipPath><clipPath id="clip1"><rect x="1301" y="867" width="159" height="200"/></clipPath><clipPath id="clip2"><rect x="1301" y="867" width="159" height="200"/></clipPath><clipPath id="clip3"><rect x="1661" y="951" width="262" height="125"/></clipPath><clipPath id="clip4"><rect x="1661" y="951" width="262" height="125"/></clipPath><clipPath id="clip5"><rect x="1661" y="951" width="262" height="125"/></clipPath><clipPath id="clip6"><rect x="1381" y="580" width="415" height="227"/></clipPath><clipPath id="clip7"><rect x="1381" y="580" width="415" height="227"/></clipPath><clipPath id="clip8"><rect x="1381" y="580" width="415" height="227"/></clipPath></defs><g transform="translate(44 -521)"><rect x="1966" y="521" width="685" height="675" fill="#EDF6E8"/><rect x="1582" y="858" width="390" height="337" fill="#C1E5F5"/><path d="M1970 960 2028 1034 1970 1108Z" fill="#C1E5F5" fill-rule="evenodd"/><rect x="1193" y="859" width="390" height="338" fill="#E9EEF8"/><path d="M1581 955 1639 1029 1581 1103Z" fill="#E9EEF8" fill-rule="evenodd"/><rect x="1193" y="521" width="777" height="338" fill="#EAE0F1"/><path d="M1962 616 2020 690 1962 764Z" fill="#EAE0F1" fill-rule="evenodd"/><rect x="544" y="522" width="649" height="676" fill="#FEF7F3"/><path d="M1193 624 1251 698 1193 772Z" fill="#FEF7F3" fill-rule="evenodd"/><path d="M1193 955 1250 1029 1193 1103Z" fill="#FEF7F3" fill-rule="evenodd"/><rect x="-44" y="521" width="594" height="676" fill="#EDF6E8"/><path d="M549 785 602 859 549 933Z" fill="#EDF6E8" fill-rule="evenodd"/><g><g><g><g><path d="M693.191 1284.32 693.191 1284.32 696.096 1282.18 699.043 1283.87 699.043 1338.6 696.096 1340.29 693.191 1338.15Z" fill-rule="evenodd" transform="matrix(1 0 0 1.0005 -549.068 -542.641)"/><path d="M695.774 1343.48 695.774 1343.48 696.096 1340.29 699.043 1338.6 746.423 1365.96 746.423 1369.35 746.423 1372.74Z" fill-rule="evenodd" transform="matrix(1 0 0 1.0005 -549.068 -542.641)"/><path d="M710.746 1331.86 746.423 1352.44" stroke="#000000" stroke-width="5.85192" transform="matrix(1 0 0 1.0005 -549.068 -542.641)"/><path d="M746.423 1372.74 746.423 1372.74 746.423 1369.35 746.423 1365.96 793.844 1338.6 796.75 1340.29 796.75 1343.68Z" fill-rule="evenodd" transform="matrix(1 0 0 1.0005 -549.068 -542.641)"/><path d="M799.696 1338.6 799.696 1338.6 796.75 1340.29 793.844 1338.6 793.844 1283.87 796.75 1282.18 799.655 1280.48Z" fill-rule="evenodd" transform="matrix(1 0 0 1.0005 -549.068 -542.641)"/><path d="M782.14 1331.86 782.14 1290.61" stroke="#000000" stroke-width="5.85192" fill="none" transform="matrix(1 0 0 1.0005 -549.068 -542.641)"/><path d="M799.655 1280.48 799.655 1280.48 796.75 1282.18 793.844 1283.87 746.423 1256.51 746.423 1253.12 746.423 1249.73Z" fill-rule="evenodd" transform="matrix(1 0 0 1.0005 -549.068 -542.641)"/><path d="M746.423 1249.73 746.423 1249.73 746.423 1253.12 746.423 1256.51 699.043 1283.87 696.096 1282.18 695.774 1278.99Z" fill-rule="evenodd" transform="matrix(1 0 0 1.0005 -549.068 -542.641)"/><path d="M746.423 1270.03 710.746 1290.61" stroke="#000000" stroke-width="5.85192" transform="matrix(1 0 0 1.0005 -549.068 -542.641)"/><text font-family="Arial,Arial_MSFontService,sans-serif" font-weight="700" font-size="10" transform="matrix(4.03581 0 0 4.03782 77.209 738)">N</text><text font-family="Arial,Arial_MSFontService,sans-serif" font-weight="700" font-size="10" transform="matrix(4.03581 0 0 4.03782 77.209 832)">N</text><path d="M695.774 1278.99 695.774 1278.99 696.096 1282.18 693.191 1284.32 657.393 1272.69 658.281 1269.91 659.209 1267.12Z" fill-rule="evenodd" transform="matrix(1 0 0 1.0005 -549.068 -542.641)"/><path d="M623.452 1283.15 623.452 1283.15 625.833 1284.84 628.174 1286.58 610.295 1311.23 606.663 1311.23 603.031 1311.23Z" fill-rule="evenodd" transform="matrix(1 0 0 1.0005 -549.068 -542.641)"/><path d="M603.031 1311.23 603.031 1311.23 606.663 1311.23 610.295 1311.23 630.151 1338.64 627.811 1340.33 625.429 1342.07Z" fill-rule="evenodd" transform="matrix(1 0 0 1.0005 -549.068 -542.641)"/><path d="M659.209 1355.35 659.209 1355.35 658.281 1352.56 657.393 1349.78 693.191 1338.15 696.096 1340.29 695.774 1343.48Z" fill-rule="evenodd" transform="matrix(1 0 0 1.0005 -549.068 -542.641)"/><text font-family="Arial,Arial_MSFontService,sans-serif" font-weight="700" font-size="10" transform="matrix(4.03581 0 0 4.03782 -16.2604 785)">O</text><path d="M606.663 1318.54 569.009 1318.54" stroke="#000000" stroke-width="5.85192" fill="none" transform="matrix(1 0 0 1.0005 -549.068 -542.641)"/><path d="M606.219 1306.84 606.219 1306.84 610.497 1300.98 569.009 1300.98 569.009 1306.84Z" fill-rule="evenodd" transform="matrix(1 0 0 1.0005 -549.068 -542.641)"/><path d="M610.497 1321.49 610.497 1321.49 606.219 1315.63 569.009 1315.63 569.009 1321.49Z" fill-rule="evenodd" transform="matrix(1 0 0 1.0005 -549.068 -542.641)"/><path d="M637.497 1244.48 637.497 1244.48 634.712 1245.41 631.927 1246.3 620.062 1209.81 622.846 1208.93 625.631 1208.04Z" fill-rule="evenodd" transform="matrix(1 0 0 1.0005 -549.068 -542.641)"/><path d="M630.878 1379.4 630.878 1379.4 633.662 1380.29 636.447 1381.22 625.631 1414.43 622.846 1413.54 620.062 1412.65Z" fill-rule="evenodd" transform="matrix(1 0 0 1.0005 -549.068 -542.641)"/><text font-family="Arial,Arial_MSFontService,sans-serif" font-weight="700" font-size="10" transform="matrix(4.03581 0 0 4.03782 284.609 843)">S</text><path d="M796.75 1343.68 796.75 1343.68 796.75 1340.29 799.696 1338.6 832.144 1357.32 830.65 1359.87 829.197 1362.41Z" fill-rule="evenodd" transform="matrix(1 0 0 1.0005 -549.068 -542.641)"/><text font-family="Arial,Arial_MSFontService,sans-serif" font-weight="700" font-size="10" transform="matrix(4.03581 0 0 4.03782 333.806 781)">H</text><text font-family="Arial,Arial_MSFontService,sans-serif" font-weight="700" font-size="10" transform="matrix(4.03581 0 0 4.03782 333.806 822)">N</text><path d="M865.035 1362.37 865.035 1362.37 863.583 1359.83 862.089 1357.28 878.838 1347.64 880.291 1350.18 881.784 1352.68Z" fill-rule="evenodd" transform="matrix(1 0 0 1.0005 -549.068 -542.641)"/><path d="M912.94 1352.64 912.94 1352.64 914.434 1350.1 915.887 1347.6 947.729 1365.96 947.729 1369.35 944.823 1371.05Z" fill-rule="evenodd" transform="matrix(1 0 0 1.0005 -549.068 -542.641)"/><path d="M944.823 1371.05 944.823 1371.05 947.729 1369.35 950.675 1371.05 950.675 1425.77 947.729 1427.47 944.783 1429.16Z" fill-rule="evenodd" transform="matrix(1 0 0 1.0005 -549.068 -542.641)"/><path d="M962.379 1377.79 962.379 1419.03" stroke="#000000" stroke-width="5.85192" fill="none" transform="matrix(1 0 0 1.0005 -549.068 -542.641)"/><path d="M944.783 1429.16 944.783 1429.16 947.729 1427.47 950.675 1425.77 998.056 1453.13 998.056 1456.52 998.056 1459.91Z" fill-rule="evenodd" transform="matrix(1 0 0 1.0005 -549.068 -542.641)"/><path d="M998.056 1459.91 998.056 1459.91 998.056 1456.52 998.056 1453.13 1045.48 1425.77 1048.38 1427.47 1051.29 1429.16Z" fill-rule="evenodd" transform="matrix(1 0 0 1.0005 -549.068 -542.641)"/><path d="M998.056 1439.61 1033.77 1419.03" stroke="#000000" stroke-width="5.85192" transform="matrix(1 0 0 1.0005 -549.068 -542.641)"/><path d="M1051.29 1429.16 1051.29 1429.16 1048.38 1427.47 1045.48 1425.77 1045.48 1371.05 1048.38 1369.35 1051.29 1367.66Z" fill-rule="evenodd" transform="matrix(1 0 0 1.0005 -549.068 -542.641)"/><path d="M1051.29 1367.66 1051.29 1367.66 1048.38 1369.35 1045.48 1371.05 998.056 1343.68 998.056 1340.29 1001 1338.6Z" fill-rule="evenodd" transform="matrix(1 0 0 1.0005 -549.068 -542.641)"/><path d="M1033.77 1377.79 998.056 1357.2" stroke="#000000" stroke-width="5.85192" transform="matrix(1 0 0 1.0005 -549.068 -542.641)"/><path d="M995.15 1338.6 995.15 1338.6 998.056 1340.29 998.056 1343.68 950.675 1371.05 947.729 1369.35 947.729 1365.96Z" fill-rule="evenodd" transform="matrix(1 0 0 1.0005 -549.068 -542.641)"/><text font-family="Arial,Arial_MSFontService,sans-serif" font-weight="700" font-size="10" transform="matrix(4.03581 0 0 4.03782 243.242 886)">O</text><path d="M836.987 1391.39 829.278 1399.86" stroke="#000000" stroke-width="5.85192" transform="matrix(1 0 0 1.0005 -549.068 -542.641)"/><path d="M828.31 1383.52 828.31 1383.52 823.991 1379.6 816.283 1388.08 820.601 1392.03Z" fill-rule="evenodd" transform="matrix(1 0 0 1.0005 -549.068 -542.641)"/><path d="M839.166 1393.36 839.166 1393.36 834.807 1389.41 827.099 1397.92 831.458 1401.84Z" fill-rule="evenodd" transform="matrix(1 0 0 1.0005 -549.068 -542.641)"/><text font-family="Arial,Arial_MSFontService,sans-serif" font-weight="700" font-size="10" transform="matrix(4.03581 0 0 4.03782 317.219 890)">O</text><path d="M867.941 1384.93 874.52 1393.69" stroke="#000000" stroke-width="5.85192" transform="matrix(1 0 0 1.0005 -549.068 -542.641)"/><path d="M858.618 1391.95 858.618 1391.95 853.937 1395.5 860.515 1404.22 865.197 1400.71Z" fill-rule="evenodd" transform="matrix(1 0 0 1.0005 -549.068 -542.641)"/><path d="M870.282 1383.19 870.282 1383.19 865.6 1386.7 872.179 1395.42 876.86 1391.91Z" fill-rule="evenodd" transform="matrix(1 0 0 1.0005 -549.068 -542.641)"/><text font-family="Arial,Arial_MSFontService,sans-serif" font-weight="700" font-size="10" transform="matrix(4.03581 0 0 4.03782 433.248 756)">OH</text><path d="M1001 1338.6 1001 1338.6 998.056 1340.29 995.15 1338.6 995.15 1305.14 998.056 1305.14 1001 1305.14Z" fill-rule="evenodd" transform="matrix(1 0 0 1.0005 -549.068 -542.641)"/></g></g></g></g><path d="M1084.5 722C1091.4 722 1097 727.596 1097 734.5L1097 786.5C1097 793.404 1091.4 799 1084.5 799L1084.5 799C1077.6 799 1072 793.404 1072 786.5L1072 734.5C1072 727.596 1077.6 722 1084.5 722Z" fill="#83CBEB" fill-rule="evenodd"/><path d="M1076.44 914.769C1072.91 908.821 1074.87 901.14 1080.82 897.612L1125.82 870.917C1131.77 867.389 1139.45 869.35 1142.98 875.298L1142.98 875.298C1146.51 881.245 1144.55 888.926 1138.6 892.454L1093.6 919.149C1087.65 922.677 1079.97 920.716 1076.44 914.769Z" fill="#83CBEB" fill-rule="evenodd"/><path d="M1025.64 828.809C1022.11 822.861 1024.07 815.18 1030.02 811.652L1075.02 784.957C1080.97 781.429 1088.65 783.391 1092.18 789.338L1092.18 789.338C1095.71 795.285 1093.75 802.966 1087.8 806.494L1042.8 833.189C1036.85 836.717 1029.17 834.756 1025.64 828.809Z" fill="#83CBEB" fill-rule="evenodd"/><path d="M1033.5 814C1040.4 814 1046 819.596 1046 826.5L1046 875.5C1046 882.403 1040.4 888 1033.5 888L1033.5 888C1026.6 888 1021 882.403 1021 875.5L1021 826.5C1021 819.596 1026.6 814 1033.5 814Z" fill="#83CBEB" fill-rule="evenodd"/><path d="M1134.5 813C1141.4 813 1147 818.596 1147 825.5L1147 877.5C1147 884.403 1141.4 890 1134.5 890L1134.5 890C1127.6 890 1122 884.403 1122 877.5L1122 825.5C1122 818.596 1127.6 813 1134.5 813Z" fill="#83CBEB" fill-rule="evenodd"/><path d="M1024.96 874.585C1028.48 868.632 1036.16 866.658 1042.11 870.176L1087.16 896.795C1093.11 900.313 1095.09 907.991 1091.57 913.944L1091.57 913.944C1088.05 919.897 1080.37 921.871 1074.42 918.353L1029.37 891.734C1023.42 888.216 1021.44 880.538 1024.96 874.585Z" fill="#83CBEB" fill-rule="evenodd"/><path d="M1074.61 789.481C1078.13 783.527 1085.81 781.553 1091.76 785.071L1136.81 811.69C1142.76 815.208 1144.73 822.886 1141.22 828.839L1141.22 828.839C1137.7 834.792 1130.02 836.767 1124.07 833.249L1079.02 806.63C1073.07 803.112 1071.09 795.434 1074.61 789.481Z" fill="#83CBEB" fill-rule="evenodd"/><g><g><g><g><path d="M693.191 1284.32 693.191 1284.32 696.097 1282.18 699.043 1283.87 699.043 1338.6 696.097 1340.29 693.191 1338.15Z" fill-rule="evenodd" transform="matrix(1 0 0 1.0005 84.9316 -547.639)"/><path d="M695.774 1343.48 695.774 1343.48 696.097 1340.29 699.043 1338.6 746.423 1365.96 746.423 1369.35 746.423 1372.74Z" fill-rule="evenodd" transform="matrix(1 0 0 1.0005 84.9316 -547.639)"/><path d="M710.747 1331.86 746.423 1352.44" stroke="#000000" stroke-width="5.85193" transform="matrix(1 0 0 1.0005 84.9316 -547.639)"/><path d="M746.423 1372.74 746.423 1372.74 746.423 1369.35 746.423 1365.96 793.844 1338.6 796.75 1340.29 796.75 1343.68Z" fill-rule="evenodd" transform="matrix(1 0 0 1.0005 84.9316 -547.639)"/><path d="M799.696 1338.6 799.696 1338.6 796.75 1340.29 793.844 1338.6 793.844 1283.87 796.75 1282.18 799.656 1280.48Z" fill-rule="evenodd" transform="matrix(1 0 0 1.0005 84.9316 -547.639)"/><path d="M782.14 1331.86 782.14 1290.61" stroke="#000000" stroke-width="5.85193" fill="none" transform="matrix(1 0 0 1.0005 84.9316 -547.639)"/><path d="M799.656 1280.48 799.656 1280.48 796.75 1282.18 793.844 1283.87 746.423 1256.51 746.423 1253.12 746.423 1249.73Z" fill-rule="evenodd" transform="matrix(1 0 0 1.0005 84.9316 -547.639)"/><path d="M746.423 1249.73 746.423 1249.73 746.423 1253.12 746.423 1256.51 699.043 1283.87 696.097 1282.18 695.774 1278.99Z" fill-rule="evenodd" transform="matrix(1 0 0 1.0005 84.9316 -547.639)"/><path d="M746.423 1270.03 710.747 1290.61" stroke="#000000" stroke-width="5.85193" transform="matrix(1 0 0 1.0005 84.9316 -547.639)"/><text font-family="Arial,Arial_MSFontService,sans-serif" font-weight="700" font-size="10" transform="matrix(4.03581 0 0 4.03781 711.209 733)">N</text><text font-family="Arial,Arial_MSFontService,sans-serif" font-weight="700" font-size="10" transform="matrix(4.03581 0 0 4.03781 711.209 827)">N</text><path d="M695.774 1278.99 695.774 1278.99 696.097 1282.18 693.191 1284.32 657.393 1272.69 658.281 1269.91 659.21 1267.12Z" fill-rule="evenodd" transform="matrix(1 0 0 1.0005 84.9316 -547.639)"/><path d="M623.452 1283.15 623.452 1283.15 625.833 1284.84 628.174 1286.58 610.296 1311.24 606.663 1311.24 603.031 1311.24Z" fill-rule="evenodd" transform="matrix(1 0 0 1.0005 84.9316 -547.639)"/><path d="M603.031 1311.24 603.031 1311.24 606.663 1311.24 610.296 1311.24 630.152 1338.64 627.811 1340.33 625.43 1342.07Z" fill-rule="evenodd" transform="matrix(1 0 0 1.0005 84.9316 -547.639)"/><path d="M659.21 1355.35 659.21 1355.35 658.281 1352.56 657.393 1349.78 693.191 1338.15 696.097 1340.29 695.774 1343.48Z" fill-rule="evenodd" transform="matrix(1 0 0 1.0005 84.9316 -547.639)"/><text font-family="Arial,Arial_MSFontService,sans-serif" font-weight="700" font-size="10" transform="matrix(4.03581 0 0 4.03781 617.74 780)">O</text><path d="M606.663 1318.54 569.009 1318.54" stroke="#000000" stroke-width="5.85193" fill="none" transform="matrix(1 0 0 1.0005 84.9316 -547.639)"/><path d="M606.219 1306.84 606.219 1306.84 610.497 1300.98 569.009 1300.98 569.009 1306.84Z" fill-rule="evenodd" transform="matrix(1 0 0 1.0005 84.9316 -547.639)"/><path d="M610.497 1321.49 610.497 1321.49 606.219 1315.63 569.009 1315.63 569.009 1321.49Z" fill-rule="evenodd" transform="matrix(1 0 0 1.0005 84.9316 -547.639)"/><path d="M637.497 1244.48 637.497 1244.48 634.712 1245.41 631.927 1246.3 620.062 1209.82 622.847 1208.93 625.632 1208.04Z" fill-rule="evenodd" transform="matrix(1 0 0 1.0005 84.9316 -547.639)"/><path d="M630.878 1379.4 630.878 1379.4 633.663 1380.29 636.448 1381.22 625.632 1414.43 622.847 1413.54 620.062 1412.66Z" fill-rule="evenodd" transform="matrix(1 0 0 1.0005 84.9316 -547.639)"/><text font-family="Arial,Arial_MSFontService,sans-serif" font-weight="700" font-size="10" transform="matrix(4.03581 0 0 4.03781 918.609 838)">S</text><path d="M796.75 1343.68 796.75 1343.68 796.75 1340.29 799.696 1338.6 832.144 1357.32 830.651 1359.87 829.198 1362.41Z" fill-rule="evenodd" transform="matrix(1 0 0 1.0005 84.9316 -547.639)"/><text font-family="Arial,Arial_MSFontService,sans-serif" font-weight="700" font-size="10" transform="matrix(4.03581 0 0 4.03781 967.806 776)">H</text><text font-family="Arial,Arial_MSFontService,sans-serif" font-weight="700" font-size="10" transform="matrix(4.03581 0 0 4.03781 967.806 817)">N</text><path d="M865.036 1362.37 865.036 1362.37 863.583 1359.83 862.09 1357.28 878.839 1347.64 880.291 1350.18 881.785 1352.68Z" fill-rule="evenodd" transform="matrix(1 0 0 1.0005 84.9316 -547.639)"/><path d="M912.941 1352.64 912.941 1352.64 914.434 1350.1 915.887 1347.6 947.73 1365.96 947.73 1369.35 944.824 1371.05Z" fill-rule="evenodd" transform="matrix(1 0 0 1.0005 84.9316 -547.639)"/><path d="M944.824 1371.05 944.824 1371.05 947.73 1369.35 950.676 1371.05 950.676 1425.77 947.73 1427.47 944.784 1429.16Z" fill-rule="evenodd" transform="matrix(1 0 0 1.0005 84.9316 -547.639)"/><path d="M962.38 1377.79 962.38 1419.03" stroke="#000000" stroke-width="5.85193" fill="none" transform="matrix(1 0 0 1.0005 84.9316 -547.639)"/><path d="M944.784 1429.16 944.784 1429.16 947.73 1427.47 950.676 1425.77 998.056 1453.13 998.056 1456.52 998.056 1459.91Z" fill-rule="evenodd" transform="matrix(1 0 0 1.0005 84.9316 -547.639)"/><path d="M998.056 1459.91 998.056 1459.91 998.056 1456.52 998.056 1453.13 1045.48 1425.77 1048.38 1427.47 1051.29 1429.16Z" fill-rule="evenodd" transform="matrix(1 0 0 1.0005 84.9316 -547.639)"/><path d="M998.056 1439.61 1033.77 1419.03" stroke="#000000" stroke-width="5.85193" transform="matrix(1 0 0 1.0005 84.9316 -547.639)"/><path d="M1051.29 1429.16 1051.29 1429.16 1048.38 1427.47 1045.48 1425.77 1045.48 1371.05 1048.38 1369.35 1051.29 1367.66Z" fill-rule="evenodd" transform="matrix(1 0 0 1.0005 84.9316 -547.639)"/><path d="M1051.29 1367.66 1051.29 1367.66 1048.38 1369.35 1045.48 1371.05 998.056 1343.68 998.056 1340.29 1001 1338.6Z" fill-rule="evenodd" transform="matrix(1 0 0 1.0005 84.9316 -547.639)"/><path d="M1033.77 1377.79 998.056 1357.2" stroke="#000000" stroke-width="5.85193" transform="matrix(1 0 0 1.0005 84.9316 -547.639)"/><path d="M995.151 1338.6 995.151 1338.6 998.056 1340.29 998.056 1343.68 950.676 1371.05 947.73 1369.35 947.73 1365.96Z" fill-rule="evenodd" transform="matrix(1 0 0 1.0005 84.9316 -547.639)"/><text font-family="Arial,Arial_MSFontService,sans-serif" font-weight="700" font-size="10" transform="matrix(4.03581 0 0 4.03781 877.242 881)">O</text><path d="M836.987 1391.39 829.279 1399.86" stroke="#000000" stroke-width="5.85193" transform="matrix(1 0 0 1.0005 84.9316 -547.639)"/><path d="M828.31 1383.52 828.31 1383.52 823.992 1379.6 816.283 1388.08 820.602 1392.03Z" fill-rule="evenodd" transform="matrix(1 0 0 1.0005 84.9316 -547.639)"/><path d="M839.166 1393.36 839.166 1393.36 834.808 1389.41 827.099 1397.92 831.458 1401.84Z" fill-rule="evenodd" transform="matrix(1 0 0 1.0005 84.9316 -547.639)"/><text font-family="Arial,Arial_MSFontService,sans-serif" font-weight="700" font-size="10" transform="matrix(4.03581 0 0 4.03781 951.219 885)">O</text><path d="M867.942 1384.93 874.52 1393.69" stroke="#000000" stroke-width="5.85193" transform="matrix(1 0 0 1.0005 84.9316 -547.639)"/><path d="M858.619 1391.95 858.619 1391.95 853.938 1395.5 860.516 1404.22 865.197 1400.71Z" fill-rule="evenodd" transform="matrix(1 0 0 1.0005 84.9316 -547.639)"/><path d="M870.283 1383.19 870.283 1383.19 865.601 1386.71 872.179 1395.42 876.861 1391.91Z" fill-rule="evenodd" transform="matrix(1 0 0 1.0005 84.9316 -547.639)"/><text font-family="Arial,Arial_MSFontService,sans-serif" font-weight="700" font-size="10" transform="matrix(4.03581 0 0 4.03781 1067.25 751)">OH</text><path d="M1001 1338.6 1001 1338.6 998.056 1340.29 995.151 1338.6 995.151 1305.14 998.056 1305.14 1001 1305.14Z" fill-rule="evenodd" transform="matrix(1 0 0 1.0005 84.9316 -547.639)"/></g></g></g></g><path d="M1404.5 875C1411.4 875 1417 880.596 1417 887.5L1417 939.5C1417 946.403 1411.4 952 1404.5 952L1404.5 952C1397.6 952 1392 946.403 1392 939.5L1392 887.5C1392 880.596 1397.6 875 1404.5 875Z" fill="#83CBEB" fill-rule="evenodd"/><path d="M1396.13 1067.16C1392.6 1061.21 1394.56 1053.53 1400.51 1050L1445.51 1023.31C1451.46 1019.78 1459.14 1021.74 1462.67 1027.69L1462.67 1027.69C1466.19 1033.63 1464.23 1041.32 1458.28 1044.84L1413.28 1071.54C1407.33 1075.07 1399.65 1073.1 1396.13 1067.16Z" fill="#83CBEB" fill-rule="evenodd"/><path d="M1345.33 981.198C1341.8 975.25 1343.76 967.569 1349.71 964.041L1394.71 937.346C1400.66 933.818 1408.34 935.78 1411.87 941.727L1411.87 941.727C1415.39 947.674 1413.43 955.355 1407.49 958.883L1362.48 985.578C1356.54 989.106 1348.86 987.145 1345.33 981.198Z" fill="#83CBEB" fill-rule="evenodd"/><path d="M1353.5 967C1360.4 967 1366 972.596 1366 979.5L1366 1027.5C1366 1034.4 1360.4 1040 1353.5 1040L1353.5 1040C1346.6 1040 1341 1034.4 1341 1027.5L1341 979.5C1341 972.596 1346.6 967 1353.5 967Z" fill="#83CBEB" fill-rule="evenodd"/><path d="M1454.5 965C1461.4 965 1467 970.596 1467 977.5L1467 1029.5C1467 1036.4 1461.4 1042 1454.5 1042L1454.5 1042C1447.6 1042 1442 1036.4 1442 1029.5L1442 977.5C1442 970.596 1447.6 965 1454.5 965Z" fill="#83CBEB" fill-rule="evenodd"/><path d="M1344.65 1026.97C1348.17 1021.02 1355.84 1019.05 1361.8 1022.56L1406.84 1049.18C1412.8 1052.7 1414.77 1060.38 1411.25 1066.33L1411.25 1066.33C1407.74 1072.29 1400.06 1074.26 1394.11 1070.74L1349.06 1044.12C1343.1 1040.61 1341.13 1032.93 1344.65 1026.97Z" fill="#83CBEB" fill-rule="evenodd"/><path d="M1394.3 941.87C1397.81 935.916 1405.49 933.942 1411.44 937.46L1456.49 964.079C1462.45 967.597 1464.42 975.275 1460.9 981.228L1460.9 981.228C1457.38 987.181 1449.71 989.156 1443.75 985.638L1398.71 959.019C1392.75 955.501 1390.78 947.823 1394.3 941.87Z" fill="#83CBEB" fill-rule="evenodd"/><g clip-path="url(#clip0)"><g clip-path="url(#clip1)"><g clip-path="url(#clip2)"><g><path d="M909.574 1363.25 909.574 1363.25 911.049 1360.67 912.524 1358.09 962.141 1386.73 962.141 1390.17 959.191 1391.89Z" fill-rule="evenodd" transform="matrix(1.00386 0 0 1 388.236 -415.114)"/><path d="M959.191 1391.89 959.191 1391.89 962.141 1390.17 965.132 1391.89 965.132 1447.45 962.141 1449.17 959.15 1450.89Z" fill-rule="evenodd" transform="matrix(1.00386 0 0 1 388.236 -415.114)"/><path d="M977.014 1398.74 977.014 1440.61" stroke="#000000" stroke-width="5.94091" fill="none" transform="matrix(1.00386 0 0 1 388.236 -415.114)"/><path d="M959.15 1450.89 959.15 1450.89 962.141 1449.17 965.132 1447.45 1013.23 1475.23 1013.23 1478.67 1013.23 1482.11Z" fill-rule="evenodd" transform="matrix(1.00386 0 0 1 388.236 -415.114)"/><path d="M1013.23 1482.11 1013.23 1482.11 1013.23 1478.67 1013.23 1475.23 1061.37 1447.45 1064.32 1449.17 1067.27 1450.89Z" fill-rule="evenodd" transform="matrix(1.00386 0 0 1 388.236 -415.114)"/><path d="M1013.23 1461.51 1049.49 1440.61" stroke="#000000" stroke-width="5.94091" transform="matrix(1.00386 0 0 1 388.236 -415.114)"/><path d="M1067.27 1450.89 1067.27 1450.89 1064.32 1449.17 1061.37 1447.45 1061.37 1391.89 1064.32 1390.17 1067.27 1388.45Z" fill-rule="evenodd" transform="matrix(1.00386 0 0 1 388.236 -415.114)"/><path d="M1067.27 1388.45 1067.27 1388.45 1064.32 1390.17 1061.37 1391.89 1013.23 1364.12 1013.23 1360.67 1016.22 1358.95Z" fill-rule="evenodd" transform="matrix(1.00386 0 0 1 388.236 -415.114)"/><path d="M1049.49 1398.74 1013.23 1377.84" stroke="#000000" stroke-width="5.94091" transform="matrix(1.00386 0 0 1 388.236 -415.114)"/><path d="M1010.28 1358.95 1010.28 1358.95 1013.23 1360.67 1013.23 1364.12 965.132 1391.89 962.141 1390.17 962.141 1386.73Z" fill-rule="evenodd" transform="matrix(1.00386 0 0 1 388.236 -415.114)"/><text font-family="Arial,Arial_MSFontService,sans-serif" font-weight="700" font-size="10" transform="matrix(4.11301 0 0 4.09718 1389.34 903)">OH</text><path d="M1016.22 1358.95 1016.22 1358.95 1013.23 1360.67 1010.28 1358.95 1010.28 1324.99 1013.23 1324.99 1016.22 1324.99Z" fill-rule="evenodd" transform="matrix(1.00386 0 0 1 388.236 -415.114)"/></g></g></g></g><text font-family="Arial,sans-serif" font-weight="400" font-size="83" transform="matrix(1 0 0 1 1272.37 981)">*</text><path d="M1854.28 949.936C1857.73 943.947 1865.39 941.895 1871.38 945.353L1917.11 971.758C1923.1 975.215 1925.15 982.872 1921.7 988.861L1921.7 988.861C1918.24 994.85 1910.58 996.901 1904.59 993.444L1858.86 967.039C1852.87 963.582 1850.82 955.924 1854.28 949.936Z" fill="#B4E5A2" fill-rule="evenodd"/><path d="M1811.24 986.321C1807.62 980.432 1809.46 972.72 1815.35 969.095L1853.86 945.392C1859.75 941.768 1867.46 943.604 1871.08 949.493L1871.08 949.493C1874.71 955.382 1872.87 963.094 1866.98 966.718L1828.47 990.421C1822.58 994.046 1814.87 992.21 1811.24 986.321Z" fill="#B4E5A2" fill-rule="evenodd"/><path d="M1765.18 1072.39C1761.55 1066.5 1763.39 1058.79 1769.28 1055.16L1807.79 1031.46C1813.68 1027.83 1821.39 1029.67 1825.02 1035.56L1825.02 1035.56C1828.64 1041.45 1826.81 1049.16 1820.92 1052.78L1782.4 1076.49C1776.51 1080.11 1768.8 1078.28 1765.18 1072.39Z" fill="#B4E5A2" fill-rule="evenodd"/><path d="M1713.92 986.321C1710.3 980.432 1712.13 972.72 1718.02 969.095L1756.54 945.392C1762.43 941.768 1770.14 943.604 1773.76 949.493L1773.76 949.493C1777.39 955.382 1775.55 963.094 1769.66 966.718L1731.15 990.421C1725.26 994.046 1717.55 992.21 1713.92 986.321Z" fill="#B4E5A2" fill-rule="evenodd"/><path d="M1756.01 948.374C1759.47 942.386 1767.12 940.334 1773.11 943.791L1818.85 970.196C1824.83 973.653 1826.89 981.311 1823.43 987.299L1823.43 987.299C1819.97 993.288 1812.31 995.34 1806.33 991.882L1760.59 965.478C1754.6 962.02 1752.55 954.363 1756.01 948.374Z" fill="#B4E5A2" fill-rule="evenodd"/><path d="M1708.95 1036.04C1712.4 1030.05 1720.06 1028 1726.05 1031.46L1771.78 1057.86C1777.77 1061.32 1779.82 1068.98 1776.37 1074.96L1776.37 1074.96C1772.91 1080.95 1765.25 1083.01 1759.26 1079.55L1713.53 1053.14C1707.54 1049.69 1705.49 1042.03 1708.95 1036.04Z" fill="#B4E5A2" fill-rule="evenodd"/><path d="M1814.5 975C1821.4 975 1827 980.596 1827 987.5L1827 1039.5C1827 1046.4 1821.4 1052 1814.5 1052L1814.5 1052C1807.6 1052 1802 1046.4 1802 1039.5L1802 987.5C1802 980.596 1807.6 975 1814.5 975Z" fill="#B4E5A2" fill-rule="evenodd"/><path d="M1720.5 969C1727.4 969 1733 974.596 1733 981.5L1733 1039.5C1733 1046.4 1727.4 1052 1720.5 1052L1720.5 1052C1713.6 1052 1708 1046.4 1708 1039.5L1708 981.5C1708 974.596 1713.6 969 1720.5 969Z" fill="#B4E5A2" fill-rule="evenodd"/><g clip-path="url(#clip3)"><g clip-path="url(#clip4)"><g clip-path="url(#clip5)"><g><path d="M908.997 1362.39 908.997 1362.39 910.471 1359.81 911.945 1357.23 961.53 1385.85 961.53 1389.29 958.582 1391.01Z" fill-rule="evenodd" transform="matrix(1 0 0 1.00191 753.839 -407.957)"/><path d="M958.582 1391.01 958.582 1391.01 961.53 1389.29 964.519 1391.01 964.519 1446.53 961.53 1448.25 958.541 1449.97Z" fill-rule="evenodd" transform="matrix(1 0 0 1.00191 753.839 -407.957)"/><path d="M976.394 1397.85 976.394 1439.7" stroke="#000000" stroke-width="5.93714" fill="none" transform="matrix(1 0 0 1.00191 753.839 -407.957)"/><path d="M958.541 1449.97 958.541 1449.97 961.53 1448.25 964.519 1446.53 1012.59 1474.29 1012.59 1477.73 1012.59 1481.17Z" fill-rule="evenodd" transform="matrix(1 0 0 1.00191 753.839 -407.957)"/><path d="M1012.59 1481.17 1012.59 1481.17 1012.59 1477.73 1012.59 1474.29 1060.7 1446.53 1063.65 1448.25 1066.6 1449.97Z" fill-rule="evenodd" transform="matrix(1 0 0 1.00191 753.839 -407.957)"/><path d="M1012.59 1460.58 1048.83 1439.7" stroke="#000000" stroke-width="5.93714" transform="matrix(1 0 0 1.00191 753.839 -407.957)"/><path d="M1066.6 1449.97 1066.6 1449.97 1063.65 1448.25 1060.7 1446.53 1060.7 1391.01 1063.65 1389.29 1066.64 1391.01Z" fill-rule="evenodd" transform="matrix(1 0 0 1.00191 753.839 -407.957)"/><path d="M1063.65 1385.85 1063.65 1385.85 1063.65 1389.29 1060.7 1391.01 1012.59 1363.25 1012.59 1359.81 1012.59 1356.37Z" fill-rule="evenodd" transform="matrix(1 0 0 1.00191 753.839 -407.957)"/><path d="M1048.83 1397.85 1012.59 1376.97" stroke="#000000" stroke-width="5.93714" transform="matrix(1 0 0 1.00191 753.839 -407.957)"/><path d="M1012.59 1356.37 1012.59 1356.37 1012.59 1359.81 1012.59 1363.25 964.519 1391.01 961.53 1389.29 961.53 1385.85Z" fill-rule="evenodd" transform="matrix(1 0 0 1.00191 753.839 -407.957)"/><path d="M1066.64 1391.01 1066.64 1391.01 1063.65 1389.29 1063.65 1385.85 1114.75 1356.37 1114.75 1359.81 1114.75 1363.25Z" fill-rule="evenodd" transform="matrix(1 0 0 1.00191 753.839 -407.957)"/><path d="M1114.75 1363.25 1114.75 1363.25 1114.75 1359.81 1114.75 1356.37 1167.28 1386.71 1165.81 1389.29 1164.33 1391.87Z" fill-rule="evenodd" transform="matrix(1 0 0 1.00191 753.839 -407.957)"/></g></g></g></g><text font-family="Arial,sans-serif" font-weight="400" font-size="83" transform="matrix(1 0 0 1 1629.39 992)">*</text><path d="M1646.92 793.35C1642.11 788.381 1642.24 780.455 1647.2 775.645L1684.8 739.252C1689.77 734.443 1697.69 734.571 1702.5 739.54L1702.5 739.54C1707.31 744.508 1707.18 752.435 1702.22 757.244L1664.62 793.637C1659.65 798.447 1651.73 798.318 1646.92 793.35Z" fill="#FC8484" fill-rule="evenodd"/><path d="M1687.56 734.202C1692.98 729.907 1700.86 730.819 1705.15 736.239L1737.65 777.247C1741.95 782.667 1741.03 790.542 1735.61 794.837L1735.61 794.836C1730.19 799.131 1722.32 798.22 1718.02 792.8L1685.53 751.792C1681.23 746.372 1682.14 738.497 1687.56 734.202Z" fill="#FC8484" fill-rule="evenodd"/><path d="M1688.06 746.198C1684.66 740.173 1686.8 732.538 1692.82 729.145L1738.42 703.473C1744.44 700.08 1752.08 702.214 1755.47 708.24L1755.47 708.24C1758.86 714.265 1756.73 721.9 1750.7 725.293L1705.11 750.965C1699.08 754.358 1691.45 752.224 1688.06 746.198Z" fill="#FC8484" fill-rule="evenodd"/><path d="M1636.83 707.582C1640.35 701.629 1648.03 699.655 1653.98 703.173L1699.03 729.792C1704.98 733.31 1706.95 740.988 1703.44 746.941L1703.44 746.941C1699.92 752.894 1692.24 754.868 1686.29 751.35L1641.24 724.731C1635.29 721.213 1633.31 713.535 1636.83 707.582Z" fill="#FC8484" fill-rule="evenodd"/><path d="M1587.46 746.316C1584.07 740.291 1586.2 732.656 1592.23 729.263L1637.82 703.591C1643.84 700.198 1651.48 702.332 1654.87 708.358L1654.87 708.358C1658.26 714.383 1656.13 722.018 1650.11 725.411L1604.51 751.083C1598.49 754.476 1590.85 752.341 1587.46 746.316Z" fill="#FC8484" fill-rule="evenodd"/><path d="M1644.5 724C1637.6 724 1632 718.403 1632 711.5L1632 658.5C1632 651.596 1637.6 646 1644.5 646L1644.5 646C1651.4 646 1657 651.596 1657 658.5L1657 711.5C1657 718.403 1651.4 724 1644.5 724Z" fill="#FC8484" fill-rule="evenodd"/><path d="M1584.74 622.105C1588.26 616.152 1595.93 614.177 1601.89 617.695L1646.93 644.314C1652.89 647.832 1654.86 655.51 1651.34 661.463L1651.34 661.463C1647.83 667.417 1640.15 669.391 1634.19 665.873L1589.15 639.254C1583.19 635.736 1581.22 628.058 1584.74 622.105Z" fill="#FC8484" fill-rule="evenodd"/><path d="M1537.23 706.97C1540.75 701.017 1548.43 699.042 1554.38 702.56L1599.43 729.179C1605.38 732.697 1607.36 740.375 1603.84 746.328L1603.84 746.328C1600.32 752.282 1592.64 754.256 1586.69 750.738L1541.64 724.119C1535.69 720.601 1533.72 712.923 1537.23 706.97Z" fill="#FC8484" fill-rule="evenodd"/><path d="M1532.25 662.943C1528.86 656.917 1530.99 649.282 1537.02 645.89L1582.61 620.217C1588.64 616.825 1596.27 618.959 1599.67 624.984L1599.67 624.984C1603.06 631.01 1600.93 638.645 1594.9 642.038L1549.31 667.71C1543.28 671.102 1535.65 668.968 1532.25 662.943Z" fill="#FC8484" fill-rule="evenodd"/><path d="M1491.7 722.25C1498.31 724.272 1502.03 731.271 1500.01 737.884L1484.71 787.922C1482.69 794.535 1475.69 798.257 1469.08 796.235L1469.08 796.235C1462.46 794.213 1458.74 787.213 1460.76 780.601L1476.06 730.563C1478.08 723.95 1485.08 720.228 1491.7 722.25Z" fill="#FC8484" fill-rule="evenodd"/><path d="M1478.97 736.285C1476.8 729.722 1480.35 722.636 1486.92 720.459L1536.58 703.984C1543.14 701.807 1550.23 705.362 1552.41 711.926L1552.41 711.926C1554.58 718.489 1551.03 725.575 1544.46 727.752L1494.8 744.227C1488.24 746.404 1481.15 742.849 1478.97 736.285Z" fill="#FC8484" fill-rule="evenodd"/><path d="M1546 724C1538.82 724 1533 718.18 1533 711L1533 659C1533 651.82 1538.82 646 1546 646L1546 646C1553.18 646 1559 651.82 1559 659L1559 711C1559 718.18 1553.18 724 1546 724Z" fill="#FC8484" fill-rule="evenodd"/><path d="M1383 683.5C1383 676.596 1388.6 671 1395.5 671L1448.5 671C1455.4 671 1461 676.596 1461 683.5L1461 683.5C1461 690.404 1455.4 696 1448.5 696L1395.5 696C1388.6 696 1383 690.404 1383 683.5Z" fill="#FC8484" fill-rule="evenodd"/><path d="M1469.52 575.901C1476.09 573.764 1483.16 577.363 1485.29 583.939L1501.46 633.703C1503.6 640.279 1500 647.343 1493.42 649.48L1493.42 649.48C1486.85 651.616 1479.78 648.017 1477.65 641.441L1461.48 591.677C1459.34 585.101 1462.94 578.037 1469.52 575.901Z" fill="#FC8484" fill-rule="evenodd"/><path d="M1447.56 679.307C1453.15 675.243 1460.98 676.483 1465.05 682.077L1495.8 724.409C1499.87 730.003 1498.63 737.833 1493.03 741.897L1493.03 741.897C1487.44 745.962 1479.61 744.722 1475.54 739.127L1444.79 696.796C1440.72 691.202 1441.96 683.372 1447.56 679.307Z" fill="#FC8484" fill-rule="evenodd"/><path d="M1443.22 694.002C1437.92 689.557 1437.23 681.659 1441.68 676.362L1475.28 636.319C1479.72 631.022 1487.62 630.331 1492.92 634.776L1492.92 634.776C1498.21 639.221 1498.9 647.118 1494.46 652.415L1460.86 692.458C1456.41 697.755 1448.52 698.446 1443.22 694.002Z" fill="#FC8484" fill-rule="evenodd"/><path d="M1484.7 638.798C1486.84 632.221 1493.9 628.622 1500.48 630.759L1544.96 645.213C1551.54 647.35 1555.13 654.413 1553 660.99L1553 660.99C1550.86 667.566 1543.8 671.165 1537.22 669.028L1492.74 654.575C1486.16 652.438 1482.56 645.374 1484.7 638.798Z" fill="#FC8484" fill-rule="evenodd"/><g clip-path="url(#clip6)"><g clip-path="url(#clip7)"><g clip-path="url(#clip8)"><g><path d="M687.573 1273.91 687.573 1273.91 690.455 1271.79 693.378 1273.47 693.378 1327.75 690.455 1329.43 687.573 1327.31Z" fill-rule="evenodd" transform="matrix(1 0 0 1.00203 853.51 -618.556)"/><path d="M690.135 1332.59 690.135 1332.59 690.455 1329.43 693.378 1327.75 740.374 1354.89 740.374 1358.25 740.374 1361.62Z" fill-rule="evenodd" transform="matrix(1 0 0 1.00203 853.51 -618.556)"/><path d="M704.987 1321.06 740.374 1341.48" stroke="#000000" stroke-width="5.8045" transform="matrix(1 0 0 1.00203 853.51 -618.556)"/><path d="M740.374 1361.62 740.374 1361.62 740.374 1358.25 740.374 1354.89 787.411 1327.75 790.293 1329.43 790.293 1332.79Z" fill-rule="evenodd" transform="matrix(1 0 0 1.00203 853.51 -618.556)"/><path d="M793.215 1327.75 793.215 1327.75 790.293 1329.43 787.411 1327.75 787.411 1273.47 790.293 1271.79 793.175 1270.1Z" fill-rule="evenodd" transform="matrix(1 0 0 1.00203 853.51 -618.556)"/><path d="M775.802 1321.06 775.802 1280.15" stroke="#000000" stroke-width="5.8045" fill="none" transform="matrix(1 0 0 1.00203 853.51 -618.556)"/><path d="M793.175 1270.1 793.175 1270.1 790.293 1271.79 787.411 1273.47 740.374 1246.33 740.374 1242.96 740.374 1239.6Z" fill-rule="evenodd" transform="matrix(1 0 0 1.00203 853.51 -618.556)"/><path d="M740.374 1239.6 740.374 1239.6 740.374 1242.96 740.374 1246.33 693.378 1273.47 690.455 1271.79 690.135 1268.62Z" fill-rule="evenodd" transform="matrix(1 0 0 1.00203 853.51 -618.556)"/><path d="M740.374 1259.74 704.987 1280.15" stroke="#000000" stroke-width="5.8045" transform="matrix(1 0 0 1.00203 853.51 -618.556)"/><text font-family="Arial,Arial_MSFontService,sans-serif" font-weight="700" font-size="10" transform="matrix(4.0031 0 0 4.01124 1474.71 654)">N</text><text font-family="Arial,Arial_MSFontService,sans-serif" font-weight="700" font-size="10" transform="matrix(4.0031 0 0 4.01124 1474.71 747)">N</text><path d="M690.135 1268.62 690.135 1268.62 690.455 1271.79 687.573 1273.91 652.066 1262.38 652.946 1259.62 653.867 1256.85Z" fill-rule="evenodd" transform="matrix(1 0 0 1.00203 853.51 -618.556)"/><path d="M618.399 1272.75 618.399 1272.75 620.761 1274.43 623.083 1276.15 605.349 1300.61 601.747 1300.61 598.144 1300.61Z" fill-rule="evenodd" transform="matrix(1 0 0 1.00203 853.51 -618.556)"/><path d="M598.144 1300.61 598.144 1300.61 601.747 1300.61 605.349 1300.61 625.045 1327.79 622.723 1329.47 620.361 1331.19Z" fill-rule="evenodd" transform="matrix(1 0 0 1.00203 853.51 -618.556)"/><path d="M653.867 1344.36 653.867 1344.36 652.946 1341.6 652.066 1338.84 687.573 1327.31 690.455 1329.43 690.135 1332.59Z" fill-rule="evenodd" transform="matrix(1 0 0 1.00203 853.51 -618.556)"/><text font-family="Arial,Arial_MSFontService,sans-serif" font-weight="700" font-size="10" transform="matrix(4.0031 0 0 4.01124 1382 700)">O</text><path d="M601.747 1307.85 564.398 1307.85" stroke="#000000" stroke-width="5.8045" fill="none" transform="matrix(1 0 0 1.00203 853.51 -618.556)"/><path d="M601.306 1296.24 601.306 1296.24 605.549 1290.44 564.398 1290.44 564.398 1296.24Z" fill-rule="evenodd" transform="matrix(1 0 0 1.00203 853.51 -618.556)"/><path d="M605.549 1310.78 605.549 1310.78 601.306 1304.97 564.398 1304.97 564.398 1310.78Z" fill-rule="evenodd" transform="matrix(1 0 0 1.00203 853.51 -618.556)"/><path d="M632.33 1234.4 632.33 1234.4 629.568 1235.32 626.806 1236.2 615.037 1200.01 617.799 1199.13 620.561 1198.25Z" fill-rule="evenodd" transform="matrix(1 0 0 1.00203 853.51 -618.556)"/><path d="M625.765 1368.22 625.765 1368.22 628.527 1369.1 631.289 1370.02 620.561 1402.97 617.799 1402.09 615.037 1401.21Z" fill-rule="evenodd" transform="matrix(1 0 0 1.00203 853.51 -618.556)"/><text font-family="Arial,Arial_MSFontService,sans-serif" font-weight="700" font-size="10" transform="matrix(4.0031 0 0 4.01124 1680.43 758)">S</text><path d="M790.293 1332.79 790.293 1332.79 790.293 1329.43 793.215 1327.75 825.4 1346.32 823.919 1348.85 822.478 1351.37Z" fill-rule="evenodd" transform="matrix(1 0 0 1.00203 853.51 -618.556)"/><text font-family="Arial,Arial_MSFontService,sans-serif" font-weight="700" font-size="10" transform="matrix(4.0031 0 0 4.01124 1729.23 696)">H</text><text font-family="Arial,Arial_MSFontService,sans-serif" font-weight="700" font-size="10" transform="matrix(4.0031 0 0 4.01124 1729.23 737)">N</text><path d="M858.025 1351.33 858.025 1351.33 856.584 1348.81 855.103 1346.28 871.716 1336.72 873.157 1339.24 874.638 1341.72Z" fill-rule="evenodd" transform="matrix(1 0 0 1.00203 853.51 -618.556)"/><path d="M905.542 1341.68 905.542 1341.68 907.023 1339.16 908.464 1336.68 941.49 1355.73 940.049 1358.25 938.608 1360.78Z" fill-rule="evenodd" transform="matrix(1 0 0 1.00203 853.51 -618.556)"/><text font-family="Arial,Arial_MSFontService,sans-serif" font-weight="700" font-size="10" transform="matrix(4.0031 0 0 4.01124 1639.4 801)">O</text><path d="M830.204 1380.11 822.558 1388.52" stroke="#000000" stroke-width="5.8045" transform="matrix(1 0 0 1.00203 853.51 -618.556)"/><path d="M821.597 1372.3 821.597 1372.3 817.314 1368.42 809.668 1376.83 813.951 1380.75Z" fill-rule="evenodd" transform="matrix(1 0 0 1.00203 853.51 -618.556)"/><path d="M832.365 1382.07 832.365 1382.07 828.042 1378.15 820.396 1386.6 824.719 1390.48Z" fill-rule="evenodd" transform="matrix(1 0 0 1.00203 853.51 -618.556)"/><text font-family="Arial,Arial_MSFontService,sans-serif" font-weight="700" font-size="10" transform="matrix(4.0031 0 0 4.01124 1712.78 804)">O</text><path d="M860.907 1373.71 867.433 1382.39" stroke="#000000" stroke-width="5.8045" transform="matrix(1 0 0 1.00203 853.51 -618.556)"/><path d="M851.66 1380.67 851.66 1380.67 847.017 1384.19 853.542 1392.84 858.185 1389.36Z" fill-rule="evenodd" transform="matrix(1 0 0 1.00203 853.51 -618.556)"/><path d="M863.229 1371.98 863.229 1371.98 858.586 1375.47 865.111 1384.11 869.754 1380.63Z" fill-rule="evenodd" transform="matrix(1 0 0 1.00203 853.51 -618.556)"/></g></g></g></g><text font-family="Arial,sans-serif" font-weight="400" font-size="83" transform="matrix(1 0 0 1 1793.89 797)">*</text><path d="M2578.52 794.935C2581.98 788.946 2589.63 786.895 2595.62 790.352L2641.36 816.757C2647.35 820.214 2649.4 827.872 2645.94 833.86L2645.94 833.86C2642.48 839.849 2634.82 841.901 2628.84 838.443L2583.1 812.038C2577.11 808.581 2575.06 800.923 2578.52 794.935Z" fill="#B4E5A2" fill-rule="evenodd"/><path d="M2535.49 831.32C2531.86 825.431 2533.7 817.719 2539.59 814.095L2578.1 790.391C2583.99 786.767 2591.7 788.603 2595.33 794.492L2595.33 794.492C2598.95 800.381 2597.12 808.093 2591.23 811.717L2552.71 835.421C2546.82 839.045 2539.11 837.209 2535.49 831.32Z" fill="#B4E5A2" fill-rule="evenodd"/><path d="M2489.42 917.387C2485.8 911.498 2487.63 903.786 2493.52 900.161L2532.04 876.458C2537.92 872.834 2545.64 874.669 2549.26 880.558L2549.26 880.558C2552.89 886.447 2551.05 894.16 2545.16 897.784L2506.65 921.487C2500.76 925.112 2493.05 923.276 2489.42 917.387Z" fill="#B4E5A2" fill-rule="evenodd"/><path d="M2384.06 795.383C2387.58 789.43 2395.26 787.456 2401.21 790.973L2446.26 817.593C2452.21 821.111 2454.19 828.788 2450.67 834.742L2450.67 834.742C2447.15 840.695 2439.47 842.669 2433.52 839.151L2388.47 812.532C2382.52 809.014 2380.54 801.336 2384.06 795.383Z" fill="#FC8484" fill-rule="evenodd"/><path d="M2438.17 831.32C2434.54 825.431 2436.38 817.719 2442.27 814.095L2480.78 790.391C2486.67 786.767 2494.38 788.603 2498.01 794.492L2498.01 794.492C2501.63 800.381 2499.79 808.093 2493.91 811.717L2455.39 835.421C2449.5 839.045 2441.79 837.209 2438.17 831.32Z" fill="#B4E5A2" fill-rule="evenodd"/><path d="M2480.25 793.373C2483.71 787.385 2491.37 785.333 2497.35 788.79L2543.09 815.195C2549.08 818.653 2551.13 826.31 2547.67 832.299L2547.67 832.299C2544.21 838.287 2536.56 840.339 2530.57 836.882L2484.83 810.477C2478.85 807.019 2476.79 799.362 2480.25 793.373Z" fill="#B4E5A2" fill-rule="evenodd"/><path d="M2433.19 881.039C2436.65 875.05 2444.3 872.998 2450.29 876.456L2496.03 902.861C2502.02 906.318 2504.07 913.976 2500.61 919.964L2500.61 919.964C2497.15 925.953 2489.49 928.004 2483.51 924.547L2437.77 898.142C2431.78 894.685 2429.73 887.027 2433.19 881.039Z" fill="#B4E5A2" fill-rule="evenodd"/><path d="M2538.5 820C2545.4 820 2551 825.596 2551 832.5L2551 884.5C2551 891.403 2545.4 897 2538.5 897L2538.5 897C2531.6 897 2526 891.403 2526 884.5L2526 832.5C2526 825.596 2531.6 820 2538.5 820Z" fill="#B4E5A2" fill-rule="evenodd"/><path d="M2444.5 814C2451.4 814 2457 819.596 2457 826.5L2457 884.5C2457 891.403 2451.4 897 2444.5 897L2444.5 897C2437.6 897 2432 891.403 2432 884.5L2432 826.5C2432 819.596 2437.6 814 2444.5 814Z" fill="#B4E5A2" fill-rule="evenodd"/><path d="M2292.89 881.688C2288.08 876.719 2288.21 868.793 2293.18 863.983L2330.77 827.59C2335.74 822.781 2343.67 822.909 2348.48 827.878L2348.48 827.878C2353.29 832.846 2353.16 840.773 2348.19 845.582L2310.59 881.975C2305.63 886.785 2297.7 886.656 2292.89 881.688Z" fill="#FC8484" fill-rule="evenodd"/><path d="M2336.11 823.4C2341.53 819.105 2349.41 820.016 2353.7 825.436L2386.2 866.445C2390.5 871.864 2389.58 879.739 2384.16 884.034L2384.16 884.034C2378.75 888.329 2370.87 887.417 2366.58 881.997L2334.08 840.989C2329.78 835.569 2330.69 827.694 2336.11 823.4Z" fill="#FC8484" fill-rule="evenodd"/><path d="M2336.61 835.396C2333.21 829.37 2335.35 821.735 2341.37 818.342L2386.97 792.67C2392.99 789.278 2400.63 791.412 2404.02 797.437L2404.02 797.437C2407.41 803.463 2405.28 811.098 2399.25 814.49L2353.66 840.162C2347.63 843.555 2340 841.421 2336.61 835.395Z" fill="#FC8484" fill-rule="evenodd"/><path d="M2285.38 796.78C2288.9 790.826 2296.58 788.852 2302.53 792.37L2347.58 818.989C2353.53 822.507 2355.51 830.185 2351.99 836.138L2351.99 836.138C2348.47 842.091 2340.79 844.066 2334.84 840.548L2289.79 813.929C2283.84 810.411 2281.86 802.733 2285.38 796.78Z" fill="#FC8484" fill-rule="evenodd"/><path d="M2236.01 835.514C2232.62 829.488 2234.75 821.853 2240.78 818.46L2286.37 792.788C2292.4 789.396 2300.03 791.53 2303.42 797.555L2303.42 797.555C2306.82 803.581 2304.68 811.216 2298.66 814.608L2253.06 840.28C2247.04 843.673 2239.4 841.539 2236.01 835.513Z" fill="#FC8484" fill-rule="evenodd"/><path d="M2293.5 813C2286.6 813 2281 807.404 2281 800.5L2281 748.5C2281 741.596 2286.6 736 2293.5 736L2293.5 736C2300.4 736 2306 741.596 2306 748.5L2306 800.5C2306 807.404 2300.4 813 2293.5 813Z" fill="#FC8484" fill-rule="evenodd"/><path d="M2233.29 711.302C2236.81 705.349 2244.48 703.375 2250.44 706.893L2295.49 733.512C2301.44 737.03 2303.41 744.708 2299.89 750.661L2299.89 750.661C2296.38 756.614 2288.7 758.588 2282.75 755.07L2237.7 728.451C2231.75 724.933 2229.77 717.256 2233.29 711.302Z" fill="#FC8484" fill-rule="evenodd"/><path d="M2185.78 796.167C2189.3 790.214 2196.98 788.24 2202.93 791.758L2247.98 818.377C2253.93 821.895 2255.91 829.573 2252.39 835.526L2252.39 835.526C2248.87 841.479 2241.2 843.453 2235.24 839.935L2190.19 813.316C2184.24 809.798 2182.27 802.12 2185.78 796.167Z" fill="#FC8484" fill-rule="evenodd"/><path d="M2180.8 752.14C2177.41 746.115 2179.55 738.48 2185.57 735.087L2231.16 709.415C2237.19 706.022 2244.82 708.156 2248.22 714.182L2248.22 714.182C2251.61 720.207 2249.48 727.842 2243.45 731.235L2197.86 756.907C2191.83 760.3 2184.2 758.166 2180.8 752.14Z" fill="#FC8484" fill-rule="evenodd"/><path d="M2140.25 811.447C2146.86 813.469 2150.58 820.469 2148.56 827.081L2133.26 877.12C2131.24 883.732 2124.24 887.454 2117.63 885.432L2117.63 885.432C2111.02 883.411 2107.29 876.411 2109.32 869.798L2124.61 819.76C2126.64 813.147 2133.63 809.425 2140.25 811.447Z" fill="#FC8484" fill-rule="evenodd"/><path d="M2127.53 825.483C2125.35 818.919 2128.9 811.834 2135.47 809.657L2185.13 793.182C2191.69 791.004 2198.78 794.56 2200.96 801.123L2200.96 801.123C2203.13 807.686 2199.58 814.772 2193.01 816.949L2143.35 833.424C2136.79 835.602 2129.7 832.046 2127.53 825.483Z" fill="#FC8484" fill-rule="evenodd"/><path d="M2194.5 813C2187.6 813 2182 807.404 2182 800.5L2182 748.5C2182 741.596 2187.6 736 2194.5 736L2194.5 736C2201.4 736 2207 741.596 2207 748.5L2207 800.5C2207 807.404 2201.4 813 2194.5 813Z" fill="#FC8484" fill-rule="evenodd"/><path d="M2032 771.5C2032 764.596 2037.6 759 2044.5 759L2096.5 759C2103.4 759 2109 764.596 2109 771.5L2109 771.5C2109 778.404 2103.4 784 2096.5 784L2044.5 784C2037.6 784 2032 778.404 2032 771.5Z" fill="#FC8484" fill-rule="evenodd"/><path d="M2118.09 662.96C2124.67 660.823 2131.73 664.422 2133.87 670.998L2150.04 720.762C2152.18 727.338 2148.58 734.402 2142 736.539L2142 736.539C2135.42 738.676 2128.36 735.077 2126.22 728.5L2110.05 678.737C2107.92 672.16 2111.52 665.097 2118.09 662.96Z" fill="#FC8484" fill-rule="evenodd"/><path d="M2096.13 766.366C2101.73 762.302 2109.56 763.542 2113.62 769.136L2144.38 811.468C2148.44 817.062 2147.2 824.892 2141.61 828.957L2141.61 828.957C2136.01 833.021 2128.18 831.781 2124.12 826.187L2093.36 783.855C2089.3 778.261 2090.54 770.431 2096.13 766.366Z" fill="#FC8484" fill-rule="evenodd"/><path d="M2091.79 781.061C2086.5 776.616 2085.81 768.718 2090.25 763.421L2123.85 723.378C2128.3 718.081 2136.19 717.39 2141.49 721.835L2141.49 721.835C2146.79 726.28 2147.48 734.177 2143.03 739.474L2109.43 779.517C2104.99 784.815 2097.09 785.506 2091.79 781.061Z" fill="#FC8484" fill-rule="evenodd"/><path d="M2133.27 725.857C2135.41 719.281 2142.47 715.682 2149.05 717.818L2193.53 732.272C2200.11 734.409 2203.71 741.472 2201.57 748.049L2201.57 748.049C2199.44 754.625 2192.37 758.224 2185.8 756.088L2141.31 741.634C2134.74 739.497 2131.14 732.434 2133.27 725.857Z" fill="#FC8484" fill-rule="evenodd"/><g><g><g><g><path d="M681.411 1262.49 681.411 1262.49 684.268 1260.39 687.164 1262.06 687.164 1315.85 684.268 1317.52 681.411 1315.41Z" fill-rule="evenodd" transform="matrix(1 0 0 1.00164 1510.13 -519.455)"/><path d="M683.951 1320.65 683.951 1320.65 684.268 1317.52 687.164 1315.85 733.739 1342.75 733.739 1346.08 733.739 1349.41Z" fill-rule="evenodd" transform="matrix(1 0 0 1.00164 1510.13 -519.455)"/><path d="M698.669 1309.23 733.739 1329.46" stroke="#000000" stroke-width="5.75248" transform="matrix(1 0 0 1.00164 1510.13 -519.455)"/><path d="M733.739 1349.41 733.739 1349.41 733.739 1346.08 733.739 1342.75 780.354 1315.85 783.211 1317.52 783.211 1320.85Z" fill-rule="evenodd" transform="matrix(1 0 0 1.00164 1510.13 -519.455)"/><path d="M786.107 1315.85 786.107 1315.85 783.211 1317.52 780.354 1315.85 780.354 1262.06 783.211 1260.39 786.067 1258.72Z" fill-rule="evenodd" transform="matrix(1 0 0 1.00164 1510.13 -519.455)"/><path d="M768.849 1309.23 768.849 1268.68" stroke="#000000" stroke-width="5.75248" fill="none" transform="matrix(1 0 0 1.00164 1510.13 -519.455)"/><path d="M786.067 1258.72 786.067 1258.72 783.211 1260.39 780.354 1262.06 733.739 1235.16 733.739 1231.83 733.739 1228.49Z" fill-rule="evenodd" transform="matrix(1 0 0 1.00164 1510.13 -519.455)"/><path d="M733.739 1228.49 733.739 1228.49 733.739 1231.83 733.739 1235.16 687.164 1262.06 684.268 1260.39 683.951 1257.26Z" fill-rule="evenodd" transform="matrix(1 0 0 1.00164 1510.13 -519.455)"/><path d="M733.739 1248.45 698.669 1268.68" stroke="#000000" stroke-width="5.75248" transform="matrix(1 0 0 1.00164 1510.13 -519.455)"/><text font-family="Arial,Arial_MSFontService,sans-serif" font-weight="700" font-size="10" transform="matrix(3.96723 0 0 3.97373 2125.77 741)">N</text><text font-family="Arial,Arial_MSFontService,sans-serif" font-weight="700" font-size="10" transform="matrix(3.96723 0 0 3.97373 2125.77 833)">N</text><path d="M683.951 1257.26 683.951 1257.26 684.268 1260.39 681.411 1262.49 646.222 1251.07 647.095 1248.33 648.007 1245.59Z" fill-rule="evenodd" transform="matrix(1 0 0 1.00164 1510.13 -519.455)"/><path d="M612.858 1261.34 612.858 1261.34 615.198 1263.01 617.499 1264.71 599.925 1288.95 596.354 1288.95 592.784 1288.95Z" fill-rule="evenodd" transform="matrix(1 0 0 1.00164 1510.13 -519.455)"/><path d="M592.784 1288.95 592.784 1288.95 596.354 1288.95 599.925 1288.95 619.443 1315.89 617.142 1317.56 614.802 1319.26Z" fill-rule="evenodd" transform="matrix(1 0 0 1.00164 1510.13 -519.455)"/><path d="M648.007 1332.31 648.007 1332.31 647.095 1329.58 646.222 1326.84 681.411 1315.41 684.268 1317.52 683.951 1320.65Z" fill-rule="evenodd" transform="matrix(1 0 0 1.00164 1510.13 -519.455)"/><text font-family="Arial,Arial_MSFontService,sans-serif" font-weight="700" font-size="10" transform="matrix(3.96723 0 0 3.97373 2033.89 787)">O</text><path d="M596.354 1296.13 559.34 1296.13" stroke="#000000" stroke-width="5.75248" fill="none" transform="matrix(1 0 0 1.00164 1510.13 -519.455)"/><path d="M595.918 1284.63 595.918 1284.63 600.123 1278.88 559.34 1278.88 559.34 1284.63Z" fill-rule="evenodd" transform="matrix(1 0 0 1.00164 1510.13 -519.455)"/><path d="M600.123 1299.03 600.123 1299.03 595.918 1293.28 559.34 1293.28 559.34 1299.03Z" fill-rule="evenodd" transform="matrix(1 0 0 1.00164 1510.13 -519.455)"/><path d="M626.664 1223.34 626.664 1223.34 623.926 1224.25 621.189 1225.12 609.525 1189.26 612.263 1188.38 615 1187.51Z" fill-rule="evenodd" transform="matrix(1 0 0 1.00164 1510.13 -519.455)"/><path d="M620.157 1355.96 620.157 1355.96 622.895 1356.83 625.632 1357.74 615 1390.4 612.263 1389.52 609.525 1388.65Z" fill-rule="evenodd" transform="matrix(1 0 0 1.00164 1510.13 -519.455)"/><text font-family="Arial,Arial_MSFontService,sans-serif" font-weight="700" font-size="10" transform="matrix(3.96723 0 0 3.97373 2329.64 844)">S</text><path d="M783.211 1320.85 783.211 1320.85 783.211 1317.52 786.107 1315.85 818.003 1334.26 816.535 1336.76 815.107 1339.26Z" fill-rule="evenodd" transform="matrix(1 0 0 1.00164 1510.13 -519.455)"/><text font-family="Arial,Arial_MSFontService,sans-serif" font-weight="700" font-size="10" transform="matrix(3.96723 0 0 3.97373 2378.01 783)">H</text><text font-family="Arial,Arial_MSFontService,sans-serif" font-weight="700" font-size="10" transform="matrix(3.96723 0 0 3.97373 2378.01 823)">N</text><path d="M850.336 1339.22 850.336 1339.22 848.908 1336.72 847.44 1334.22 863.904 1324.74 865.332 1327.24 866.8 1329.7Z" fill-rule="evenodd" transform="matrix(1 0 0 1.00164 1510.13 -519.455)"/><path d="M897.427 1329.66 897.427 1329.66 898.895 1327.16 900.323 1324.7 931.625 1342.75 931.625 1346.08 928.768 1347.75Z" fill-rule="evenodd" transform="matrix(1 0 0 1.00164 1510.13 -519.455)"/><path d="M928.768 1347.75 928.768 1347.75 931.625 1346.08 934.521 1347.75 934.521 1401.54 931.625 1403.21 928.729 1404.88Z" fill-rule="evenodd" transform="matrix(1 0 0 1.00164 1510.13 -519.455)"/><path d="M946.026 1354.37 946.026 1394.92" stroke="#000000" stroke-width="5.75248" fill="none" transform="matrix(1 0 0 1.00164 1510.13 -519.455)"/><path d="M928.729 1404.88 928.729 1404.88 931.625 1403.21 934.521 1401.54 981.096 1428.44 981.096 1431.77 981.096 1435.11Z" fill-rule="evenodd" transform="matrix(1 0 0 1.00164 1510.13 -519.455)"/><path d="M981.096 1435.11 981.096 1435.11 981.096 1431.77 981.096 1428.44 1027.71 1401.54 1030.57 1403.21 1033.42 1404.88Z" fill-rule="evenodd" transform="matrix(1 0 0 1.00164 1510.13 -519.455)"/><path d="M981.096 1415.15 1016.21 1394.92" stroke="#000000" stroke-width="5.75248" transform="matrix(1 0 0 1.00164 1510.13 -519.455)"/><path d="M1033.42 1404.88 1033.42 1404.88 1030.57 1403.21 1027.71 1401.54 1027.71 1347.75 1030.57 1346.08 1033.46 1347.75Z" fill-rule="evenodd" transform="matrix(1 0 0 1.00164 1510.13 -519.455)"/><path d="M1030.57 1342.75 1030.57 1342.75 1030.57 1346.08 1027.71 1347.75 981.096 1320.85 981.096 1317.52 981.096 1314.18Z" fill-rule="evenodd" transform="matrix(1 0 0 1.00164 1510.13 -519.455)"/><path d="M1016.21 1354.37 981.096 1334.14" stroke="#000000" stroke-width="5.75248" transform="matrix(1 0 0 1.00164 1510.13 -519.455)"/><path d="M981.096 1314.18 981.096 1314.18 981.096 1317.52 981.096 1320.85 934.521 1347.75 931.625 1346.08 931.625 1342.75Z" fill-rule="evenodd" transform="matrix(1 0 0 1.00164 1510.13 -519.455)"/><path d="M1033.46 1347.75 1033.46 1347.75 1030.57 1346.08 1030.57 1342.75 1080.08 1314.18 1080.08 1317.52 1080.08 1320.85Z" fill-rule="evenodd" transform="matrix(1 0 0 1.00164 1510.13 -519.455)"/><path d="M1080.08 1320.85 1080.08 1320.85 1080.08 1317.52 1080.08 1314.18 1130.98 1343.58 1129.55 1346.08 1128.12 1348.58Z" fill-rule="evenodd" transform="matrix(1 0 0 1.00164 1510.13 -519.455)"/><text font-family="Arial,Arial_MSFontService,sans-serif" font-weight="700" font-size="10" transform="matrix(3.96723 0 0 3.97373 2288.98 887)">O</text><path d="M822.764 1367.74 815.186 1376.07" stroke="#000000" stroke-width="5.75248" transform="matrix(1 0 0 1.00164 1510.13 -519.455)"/><path d="M814.234 1360.01 814.234 1360.01 809.989 1356.16 802.412 1364.49 806.657 1368.38Z" fill-rule="evenodd" transform="matrix(1 0 0 1.00164 1510.13 -519.455)"/><path d="M824.906 1369.69 824.906 1369.69 820.622 1365.8 813.044 1374.17 817.329 1378.02Z" fill-rule="evenodd" transform="matrix(1 0 0 1.00164 1510.13 -519.455)"/><text font-family="Arial,Arial_MSFontService,sans-serif" font-weight="700" font-size="10" transform="matrix(3.96723 0 0 3.97373 2361.7 890)">O</text><path d="M853.193 1361.39 859.659 1370" stroke="#000000" stroke-width="5.75248" transform="matrix(1 0 0 1.00164 1510.13 -519.455)"/><path d="M844.028 1368.3 844.028 1368.3 839.426 1371.79 845.893 1380.36 850.495 1376.91Z" fill-rule="evenodd" transform="matrix(1 0 0 1.00164 1510.13 -519.455)"/><path d="M855.494 1359.69 855.494 1359.69 850.892 1363.14 857.358 1371.71 861.96 1368.26Z" fill-rule="evenodd" transform="matrix(1 0 0 1.00164 1510.13 -519.455)"/></g></g></g></g><text font-family="Lato Black,Lato Black_MSFontService,sans-serif" font-weight="900" font-size="50" transform="matrix(1 0 0 1 559.782 1145)">Design a </text><text font-family="Lato Black,Lato Black_MSFontService,sans-serif" font-weight="900" font-size="50" transform="matrix(1 0 0 1 766.032 1145)">M</text><text font-family="Lato Black,Lato Black_MSFontService,sans-serif" font-weight="900" font-size="50" transform="matrix(1 0 0 1 814.157 1145)">odification Site</text><text font-family="Lato Black,Lato Black_MSFontService,sans-serif" font-weight="900" font-size="50" transform="matrix(1 0 0 1 65.6391 1144)">Initial Molecule</text><text font-family="Lato Black,Lato Black_MSFontService,sans-serif" font-weight="900" font-size="50" transform="matrix(1 0 0 1 1237.1 1145)">Design Fragment Replacement</text><text font-family="Lato Black,Lato Black_MSFontService,sans-serif" font-weight="900" font-size="50" transform="matrix(1 0 0 1 2108.5 1145)">Optimized Molecule</text></g></svg>