<svg width="2588" height="656" xmlns="http://www.w3.org/2000/svg" xmlns:xlink="http://www.w3.org/1999/xlink" xml:space="preserve" overflow="hidden"><defs><clipPath id="clip0"><rect x="467" y="1072" width="415" height="225"/></clipPath><clipPath id="clip1"><rect x="467" y="1072" width="415" height="225"/></clipPath><clipPath id="clip2"><rect x="467" y="1072" width="415" height="225"/></clipPath><clipPath id="clip3"><rect x="977" y="1098" width="161" height="200"/></clipPath><clipPath id="clip4"><rect x="977" y="1098" width="161" height="200"/></clipPath><clipPath id="clip5"><rect x="977" y="1098" width="161" height="200"/></clipPath><clipPath id="clip6"><rect x="1783" y="1180" width="262" height="125"/></clipPath><clipPath id="clip7"><rect x="1783" y="1180" width="262" height="125"/></clipPath><clipPath id="clip8"><rect x="1783" y="1180" width="262" height="125"/></clipPath></defs><g transform="translate(460 -871)"><path d="M-453.5 875.5 2123.5 875.5 2123.5 1077.09 2123.5 1320.91 2123.5 1522.5-453.5 1522.5-453.5 1320.91-453.5 1077.09Z" stroke="#0D0D0D" stroke-width="9.16667" stroke-miterlimit="8" fill="#EDF6E8" fill-rule="evenodd"/><g><g><g><g><path d="M690.783 1279.85 690.783 1279.85 693.678 1277.72 696.614 1279.41 696.614 1333.95 693.678 1335.64 690.783 1333.51Z" fill-rule="evenodd" transform="matrix(1.00349 0 0 1 -919.069 -132.842)"/><path d="M693.357 1338.81 693.357 1338.81 693.678 1335.64 696.614 1333.95 743.83 1361.22 743.83 1364.59 743.83 1367.97Z" fill-rule="evenodd" transform="matrix(1.00349 0 0 1 -919.069 -132.842)"/><path d="M708.278 1327.23 743.83 1347.74" stroke="#000000" stroke-width="5.8316" transform="matrix(1.00349 0 0 1 -919.069 -132.842)"/><path d="M743.83 1367.97 743.83 1367.97 743.83 1364.59 743.83 1361.22 791.086 1333.95 793.982 1335.64 793.982 1339.01Z" fill-rule="evenodd" transform="matrix(1.00349 0 0 1 -919.069 -132.842)"/><path d="M796.918 1333.95 796.918 1333.95 793.982 1335.64 791.086 1333.95 791.086 1279.41 793.982 1277.72 796.878 1276.03Z" fill-rule="evenodd" transform="matrix(1.00349 0 0 1 -919.069 -132.842)"/><path d="M779.423 1327.23 779.423 1286.13" stroke="#000000" stroke-width="5.8316" fill="none" transform="matrix(1.00349 0 0 1 -919.069 -132.842)"/><path d="M796.878 1276.03 796.878 1276.03 793.982 1277.72 791.086 1279.41 743.83 1252.14 743.83 1248.77 743.83 1245.39Z" fill-rule="evenodd" transform="matrix(1.00349 0 0 1 -919.069 -132.842)"/><path d="M743.83 1245.39 743.83 1245.39 743.83 1248.77 743.83 1252.14 696.614 1279.41 693.678 1277.72 693.357 1274.55Z" fill-rule="evenodd" transform="matrix(1.00349 0 0 1 -919.069 -132.842)"/><path d="M743.83 1265.62 708.278 1286.13" stroke="#000000" stroke-width="5.8316" transform="matrix(1.00349 0 0 1 -919.069 -132.842)"/><text font-family="Arial,Arial_MSFontService,sans-serif" font-weight="700" font-size="10" transform="matrix(4.03581 0 0 4.02179 -292.791 1143)">N</text><text font-family="Arial,Arial_MSFontService,sans-serif" font-weight="700" font-size="10" transform="matrix(4.03581 0 0 4.02179 -292.791 1236)">N</text><path d="M693.357 1274.55 693.357 1274.55 693.678 1277.72 690.783 1279.85 655.109 1268.27 655.994 1265.5 656.919 1262.72Z" fill-rule="evenodd" transform="matrix(1.00349 0 0 1 -919.069 -132.842)"/><path d="M621.286 1278.69 621.286 1278.69 623.659 1280.38 625.992 1282.11 608.175 1306.68 604.556 1306.68 600.936 1306.68Z" fill-rule="evenodd" transform="matrix(1.00349 0 0 1 -919.069 -132.842)"/><path d="M600.936 1306.68 600.936 1306.68 604.556 1306.68 608.175 1306.68 627.962 1333.99 625.63 1335.68 623.257 1337.41Z" fill-rule="evenodd" transform="matrix(1.00349 0 0 1 -919.069 -132.842)"/><path d="M656.919 1350.64 656.919 1350.64 655.994 1347.86 655.109 1345.09 690.783 1333.51 693.678 1335.64 693.357 1338.81Z" fill-rule="evenodd" transform="matrix(1.00349 0 0 1 -919.069 -132.842)"/><text font-family="Arial,Arial_MSFontService,sans-serif" font-weight="700" font-size="10" transform="matrix(4.03581 0 0 4.02179 -386.261 1190)">O</text><path d="M604.556 1313.96 567.032 1313.96" stroke="#000000" stroke-width="5.8316" fill="none" transform="matrix(1.00349 0 0 1 -919.069 -132.842)"/><path d="M604.113 1302.3 604.113 1302.3 608.376 1296.46 567.032 1296.46 567.032 1302.3Z" fill-rule="evenodd" transform="matrix(1.00349 0 0 1 -919.069 -132.842)"/><path d="M608.376 1316.9 608.376 1316.9 604.113 1311.06 567.032 1311.06 567.032 1316.9Z" fill-rule="evenodd" transform="matrix(1.00349 0 0 1 -919.069 -132.842)"/><path d="M635.282 1240.16 635.282 1240.16 632.507 1241.08 629.732 1241.97 617.908 1205.61 620.683 1204.73 623.458 1203.84Z" fill-rule="evenodd" transform="matrix(1.00349 0 0 1 -919.069 -132.842)"/><path d="M628.686 1374.61 628.686 1374.61 631.461 1375.49 634.236 1376.42 623.458 1409.52 620.683 1408.63 617.908 1407.75Z" fill-rule="evenodd" transform="matrix(1.00349 0 0 1 -919.069 -132.842)"/><text font-family="Arial,Arial_MSFontService,sans-serif" font-weight="700" font-size="10" transform="matrix(4.03581 0 0 4.02179 -85.3908 1248)">S</text><path d="M793.982 1339.01 793.982 1339.01 793.982 1335.64 796.918 1333.95 829.253 1352.61 827.765 1355.14 826.317 1357.68Z" fill-rule="evenodd" transform="matrix(1.00349 0 0 1 -919.069 -132.842)"/><text font-family="Arial,Arial_MSFontService,sans-serif" font-weight="700" font-size="10" transform="matrix(4.03581 0 0 4.02179 -36.1942 1185)">H</text><text font-family="Arial,Arial_MSFontService,sans-serif" font-weight="700" font-size="10" transform="matrix(4.03581 0 0 4.02179 -36.1942 1226)">N</text><path d="M862.031 1357.64 862.031 1357.64 860.583 1355.1 859.095 1352.57 875.785 1342.96 877.233 1345.49 878.721 1347.98Z" fill-rule="evenodd" transform="matrix(1.00349 0 0 1 -919.069 -132.842)"/><path d="M909.769 1347.94 909.769 1347.94 911.257 1345.41 912.705 1342.92 944.437 1361.22 944.437 1364.59 941.541 1366.28Z" fill-rule="evenodd" transform="matrix(1.00349 0 0 1 -919.069 -132.842)"/><path d="M941.541 1366.28 941.541 1366.28 944.437 1364.59 947.373 1366.28 947.373 1420.82 944.437 1422.51 941.501 1424.2Z" fill-rule="evenodd" transform="matrix(1.00349 0 0 1 -919.069 -132.842)"/><path d="M959.036 1373 959.036 1414.1" stroke="#000000" stroke-width="5.8316" fill="none" transform="matrix(1.00349 0 0 1 -919.069 -132.842)"/><path d="M941.501 1424.2 941.501 1424.2 944.437 1422.51 947.373 1420.82 994.589 1448.09 994.589 1451.46 994.589 1454.84Z" fill-rule="evenodd" transform="matrix(1.00349 0 0 1 -919.069 -132.842)"/><path d="M994.589 1454.84 994.589 1454.84 994.589 1451.46 994.589 1448.09 1041.84 1420.82 1044.74 1422.51 1047.64 1424.2Z" fill-rule="evenodd" transform="matrix(1.00349 0 0 1 -919.069 -132.842)"/><path d="M994.589 1434.61 1030.18 1414.1" stroke="#000000" stroke-width="5.8316" transform="matrix(1.00349 0 0 1 -919.069 -132.842)"/><path d="M1047.64 1424.2 1047.64 1424.2 1044.74 1422.51 1041.84 1420.82 1041.84 1366.28 1044.74 1364.59 1047.64 1362.9Z" fill-rule="evenodd" transform="matrix(1.00349 0 0 1 -919.069 -132.842)"/><path d="M1047.64 1362.9 1047.64 1362.9 1044.74 1364.59 1041.84 1366.28 994.589 1339.01 994.589 1335.64 997.525 1333.95Z" fill-rule="evenodd" transform="matrix(1.00349 0 0 1 -919.069 -132.842)"/><path d="M1030.18 1373 994.589 1352.49" stroke="#000000" stroke-width="5.8316" transform="matrix(1.00349 0 0 1 -919.069 -132.842)"/><path d="M991.693 1333.95 991.693 1333.95 994.589 1335.64 994.589 1339.01 947.373 1366.28 944.437 1364.59 944.437 1361.22Z" fill-rule="evenodd" transform="matrix(1.00349 0 0 1 -919.069 -132.842)"/><text font-family="Arial,Arial_MSFontService,sans-serif" font-weight="700" font-size="10" transform="matrix(4.03581 0 0 4.02179 -126.758 1290)">O</text><path d="M834.079 1386.55 826.398 1395" stroke="#000000" stroke-width="5.8316" transform="matrix(1.00349 0 0 1 -919.069 -132.842)"/><path d="M825.432 1378.71 825.432 1378.71 821.129 1374.81 813.447 1383.25 817.751 1387.2Z" fill-rule="evenodd" transform="matrix(1.00349 0 0 1 -919.069 -132.842)"/><path d="M836.251 1388.52 836.251 1388.52 831.907 1384.58 824.226 1393.07 828.569 1396.97Z" fill-rule="evenodd" transform="matrix(1.00349 0 0 1 -919.069 -132.842)"/><text font-family="Arial,Arial_MSFontService,sans-serif" font-weight="700" font-size="10" transform="matrix(4.03581 0 0 4.02179 -52.7814 1294)">O</text><path d="M864.926 1380.12 871.482 1388.84" stroke="#000000" stroke-width="5.8316" transform="matrix(1.00349 0 0 1 -919.069 -132.842)"/><path d="M855.636 1387.12 855.636 1387.12 850.971 1390.65 857.526 1399.34 862.191 1395.84Z" fill-rule="evenodd" transform="matrix(1.00349 0 0 1 -919.069 -132.842)"/><path d="M867.259 1378.39 867.259 1378.39 862.594 1381.89 869.149 1390.57 873.814 1387.08Z" fill-rule="evenodd" transform="matrix(1.00349 0 0 1 -919.069 -132.842)"/><text font-family="Arial,Arial_MSFontService,sans-serif" font-weight="700" font-size="10" transform="matrix(4.03581 0 0 4.02179 63.2482 1161)">OH</text><path d="M997.525 1333.95 997.525 1333.95 994.589 1335.64 991.693 1333.95 991.693 1300.61 994.589 1300.61 997.525 1300.61Z" fill-rule="evenodd" transform="matrix(1.00349 0 0 1 -919.069 -132.842)"/></g></g></g></g><path d="M293.5 1215.06 356.75 1215.06 356.75 1221.94 293.5 1221.94ZM352.167 1204.75 398 1218.5 352.167 1232.25Z" fill="#262626"/><path d="M1304.5 1147.17C1304.5 1127.47 1320.47 1111.5 1340.17 1111.5L1599.83 1111.5C1619.53 1111.5 1635.5 1127.47 1635.5 1147.17L1635.5 1289.83C1635.5 1309.53 1619.53 1325.5 1599.83 1325.5L1340.17 1325.5C1320.47 1325.5 1304.5 1309.53 1304.5 1289.83Z" stroke="#262626" stroke-width="6.875" stroke-miterlimit="8" fill="#FEF7F3" fill-rule="evenodd"/><text fill="#262626" font-family="Lato Black,Lato Black_MSFontService,sans-serif" font-weight="900" font-size="55" transform="matrix(1 0 0 1 1351.04 1206)">Fragment </text><text fill="#262626" font-family="Lato Black,Lato Black_MSFontService,sans-serif" font-weight="900" font-size="55" transform="matrix(1 0 0 1 1390 1272)">Model</text><path d="M1199.5 1215.06 1262.49 1215.06 1262.49 1221.94 1199.5 1221.94ZM1257.9 1204.75 1303.74 1218.5 1257.9 1232.25Z" fill="#262626"/><path d="M1635.5 1215.06 1685 1215.06 1685 1221.94 1635.5 1221.94ZM1680.42 1204.75 1726.25 1218.5 1680.42 1232.25Z" fill="#262626"/><path d="M732.75 1284.38C727.94 1279.42 728.069 1271.49 733.037 1266.68L770.632 1230.29C775.601 1225.48 783.527 1225.61 788.337 1230.57L788.337 1230.57C793.146 1235.54 793.017 1243.47 788.049 1248.28L750.454 1284.67C745.486 1289.48 737.559 1289.35 732.749 1284.38Z" fill="#FC8484" fill-rule="evenodd"/><path d="M773.396 1225.24C778.816 1220.94 786.691 1221.85 790.986 1227.27L823.484 1268.28C827.779 1273.7 826.867 1281.58 821.448 1285.87L821.447 1285.87C816.028 1290.17 808.153 1289.25 803.858 1283.83L771.36 1242.83C767.065 1237.41 767.977 1229.53 773.396 1225.24Z" fill="#FC8484" fill-rule="evenodd"/><path d="M773.889 1237.23C770.496 1231.21 772.63 1223.57 778.656 1220.18L824.25 1194.51C830.275 1191.11 837.91 1193.25 841.303 1199.27L841.303 1199.27C844.695 1205.3 842.561 1212.93 836.536 1216.33L790.942 1242C784.917 1245.39 777.282 1243.26 773.889 1237.23Z" fill="#FC8484" fill-rule="evenodd"/><path d="M722.664 1198.62C726.182 1192.66 733.86 1190.69 739.813 1194.21L784.861 1220.83C790.814 1224.34 792.788 1232.02 789.27 1237.97L789.27 1237.97C785.752 1243.93 778.074 1245.9 772.121 1242.38L727.074 1215.77C721.121 1212.25 719.146 1204.57 722.664 1198.62Z" fill="#FC8484" fill-rule="evenodd"/><path d="M673.292 1237.35C669.899 1231.32 672.033 1223.69 678.059 1220.3L723.652 1194.62C729.678 1191.23 737.313 1193.37 740.705 1199.39L740.705 1199.39C744.098 1205.42 741.964 1213.05 735.938 1216.44L690.345 1242.12C684.319 1245.51 676.684 1243.38 673.292 1237.35Z" fill="#FC8484" fill-rule="evenodd"/><path d="M730.5 1215C723.597 1215 718 1209.4 718 1202.5L718 1149.5C718 1142.6 723.597 1137 730.5 1137L730.5 1137C737.404 1137 743 1142.6 743 1149.5L743 1202.5C743 1209.4 737.404 1215 730.5 1215Z" fill="#FC8484" fill-rule="evenodd"/><path d="M670.571 1113.14C674.089 1107.19 681.767 1105.21 687.72 1108.73L732.768 1135.35C738.721 1138.87 740.695 1146.54 737.177 1152.5L737.177 1152.5C733.659 1158.45 725.981 1160.42 720.028 1156.91L674.981 1130.29C669.028 1126.77 667.053 1119.09 670.571 1113.14Z" fill="#FC8484" fill-rule="evenodd"/><path d="M623.067 1198C626.585 1192.05 634.263 1190.08 640.216 1193.59L685.264 1220.21C691.217 1223.73 693.191 1231.41 689.673 1237.36L689.673 1237.36C686.155 1243.32 678.477 1245.29 672.524 1241.77L627.477 1215.15C621.524 1211.63 619.55 1203.96 623.067 1198Z" fill="#FC8484" fill-rule="evenodd"/><path d="M618.086 1153.98C614.694 1147.95 616.828 1140.32 622.853 1136.92L668.447 1111.25C674.472 1107.86 682.107 1109.99 685.5 1116.02L685.5 1116.02C688.893 1122.04 686.758 1129.68 680.733 1133.07L635.139 1158.74C629.114 1162.14 621.479 1160 618.086 1153.98Z" fill="#FC8484" fill-rule="evenodd"/><path d="M577.53 1213.28C584.143 1215.31 587.865 1222.3 585.843 1228.92L570.545 1278.96C568.523 1285.57 561.523 1289.29 554.911 1287.27L554.911 1287.27C548.298 1285.25 544.576 1278.25 546.598 1271.63L561.896 1221.6C563.918 1214.98 570.917 1211.26 577.53 1213.28Z" fill="#FC8484" fill-rule="evenodd"/><path d="M564.808 1227.32C562.631 1220.76 566.186 1213.67 572.75 1211.49L622.413 1195.02C628.976 1192.84 636.061 1196.4 638.239 1202.96L638.239 1202.96C640.416 1209.52 636.86 1216.61 630.297 1218.79L580.634 1235.26C574.071 1237.44 566.985 1233.88 564.808 1227.32Z" fill="#FC8484" fill-rule="evenodd"/><path d="M631.5 1215C624.597 1215 619 1209.4 619 1202.5L619 1149.5C619 1142.6 624.597 1137 631.5 1137L631.5 1137C638.404 1137 644 1142.6 644 1149.5L644 1202.5C644 1209.4 638.404 1215 631.5 1215Z" fill="#FC8484" fill-rule="evenodd"/><path d="M469 1174.5C469 1167.6 474.596 1162 481.5 1162L534.5 1162C541.404 1162 547 1167.6 547 1174.5L547 1174.5C547 1181.4 541.403 1187 534.5 1187L481.5 1187C474.596 1187 469 1181.4 469 1174.5Z" fill="#FC8484" fill-rule="evenodd"/><path d="M555.351 1066.93C561.927 1064.8 568.991 1068.4 571.128 1074.97L587.297 1124.74C589.434 1131.31 585.835 1138.38 579.258 1140.51L579.258 1140.51C572.682 1142.65 565.618 1139.05 563.481 1132.47L547.312 1082.71C545.175 1076.13 548.774 1069.07 555.351 1066.93Z" fill="#FC8484" fill-rule="evenodd"/><path d="M533.392 1170.34C538.987 1166.28 546.817 1167.52 550.881 1173.11L581.637 1215.44C585.701 1221.04 584.461 1228.87 578.867 1232.93L578.867 1232.93C573.272 1237 565.442 1235.76 561.378 1230.16L530.622 1187.83C526.558 1182.24 527.798 1174.41 533.392 1170.34Z" fill="#FC8484" fill-rule="evenodd"/><path d="M529.053 1185.04C523.755 1180.59 523.065 1172.69 527.509 1167.4L561.11 1127.35C565.555 1122.06 573.452 1121.36 578.749 1125.81L578.749 1125.81C584.046 1130.25 584.737 1138.15 580.292 1143.45L546.692 1183.49C542.247 1188.79 534.35 1189.48 529.053 1185.04Z" fill="#FC8484" fill-rule="evenodd"/><path d="M570.532 1129.83C572.669 1123.26 579.732 1119.66 586.309 1121.79L630.792 1136.25C637.368 1138.38 640.967 1145.45 638.831 1152.02L638.831 1152.02C636.694 1158.6 629.63 1162.2 623.054 1160.06L578.57 1145.61C571.994 1143.47 568.395 1136.41 570.532 1129.83Z" fill="#FC8484" fill-rule="evenodd"/><g clip-path="url(#clip0)"><g clip-path="url(#clip1)"><g clip-path="url(#clip2)"><g><path d="M687.573 1273.91 687.573 1273.91 690.455 1271.79 693.378 1273.47 693.378 1327.75 690.455 1329.43 687.573 1327.31Z" fill-rule="evenodd" transform="matrix(1 0 0 1.00203 -60.4899 -127.554)"/><path d="M690.135 1332.59 690.135 1332.59 690.455 1329.43 693.378 1327.75 740.374 1354.89 740.374 1358.25 740.374 1361.62Z" fill-rule="evenodd" transform="matrix(1 0 0 1.00203 -60.4899 -127.554)"/><path d="M704.987 1321.06 740.374 1341.48" stroke="#000000" stroke-width="5.8045" transform="matrix(1 0 0 1.00203 -60.4899 -127.554)"/><path d="M740.374 1361.62 740.374 1361.62 740.374 1358.25 740.374 1354.89 787.411 1327.75 790.293 1329.43 790.293 1332.79Z" fill-rule="evenodd" transform="matrix(1 0 0 1.00203 -60.4899 -127.554)"/><path d="M793.215 1327.75 793.215 1327.75 790.293 1329.43 787.411 1327.75 787.411 1273.47 790.293 1271.79 793.175 1270.1Z" fill-rule="evenodd" transform="matrix(1 0 0 1.00203 -60.4899 -127.554)"/><path d="M775.802 1321.06 775.802 1280.15" stroke="#000000" stroke-width="5.8045" fill="none" transform="matrix(1 0 0 1.00203 -60.4899 -127.554)"/><path d="M793.175 1270.1 793.175 1270.1 790.293 1271.79 787.411 1273.47 740.374 1246.33 740.374 1242.96 740.374 1239.6Z" fill-rule="evenodd" transform="matrix(1 0 0 1.00203 -60.4899 -127.554)"/><path d="M740.374 1239.6 740.374 1239.6 740.374 1242.96 740.374 1246.33 693.378 1273.47 690.455 1271.79 690.135 1268.62Z" fill-rule="evenodd" transform="matrix(1 0 0 1.00203 -60.4899 -127.554)"/><path d="M740.374 1259.74 704.987 1280.15" stroke="#000000" stroke-width="5.8045" transform="matrix(1 0 0 1.00203 -60.4899 -127.554)"/><text font-family="Arial,Arial_MSFontService,sans-serif" font-weight="700" font-size="10" transform="matrix(4.0031 0 0 4.01123 560.712 1145)">N</text><text font-family="Arial,Arial_MSFontService,sans-serif" font-weight="700" font-size="10" transform="matrix(4.0031 0 0 4.01123 560.712 1238)">N</text><path d="M690.135 1268.62 690.135 1268.62 690.455 1271.79 687.573 1273.91 652.066 1262.38 652.946 1259.62 653.867 1256.85Z" fill-rule="evenodd" transform="matrix(1 0 0 1.00203 -60.4899 -127.554)"/><path d="M618.399 1272.75 618.399 1272.75 620.761 1274.43 623.083 1276.15 605.349 1300.61 601.747 1300.61 598.144 1300.61Z" fill-rule="evenodd" transform="matrix(1 0 0 1.00203 -60.4899 -127.554)"/><path d="M598.144 1300.61 598.144 1300.61 601.747 1300.61 605.349 1300.61 625.045 1327.79 622.723 1329.47 620.361 1331.19Z" fill-rule="evenodd" transform="matrix(1 0 0 1.00203 -60.4899 -127.554)"/><path d="M653.867 1344.36 653.867 1344.36 652.946 1341.6 652.066 1338.84 687.573 1327.31 690.455 1329.43 690.135 1332.59Z" fill-rule="evenodd" transform="matrix(1 0 0 1.00203 -60.4899 -127.554)"/><text font-family="Arial,Arial_MSFontService,sans-serif" font-weight="700" font-size="10" transform="matrix(4.0031 0 0 4.01123 468 1191)">O</text><path d="M601.747 1307.85 564.398 1307.85" stroke="#000000" stroke-width="5.8045" fill="none" transform="matrix(1 0 0 1.00203 -60.4899 -127.554)"/><path d="M601.306 1296.24 601.306 1296.24 605.549 1290.44 564.398 1290.44 564.398 1296.24Z" fill-rule="evenodd" transform="matrix(1 0 0 1.00203 -60.4899 -127.554)"/><path d="M605.549 1310.78 605.549 1310.78 601.306 1304.97 564.398 1304.97 564.398 1310.78Z" fill-rule="evenodd" transform="matrix(1 0 0 1.00203 -60.4899 -127.554)"/><path d="M632.33 1234.4 632.33 1234.4 629.568 1235.32 626.806 1236.2 615.037 1200.01 617.799 1199.13 620.561 1198.25Z" fill-rule="evenodd" transform="matrix(1 0 0 1.00203 -60.4899 -127.554)"/><path d="M625.765 1368.22 625.765 1368.22 628.527 1369.1 631.289 1370.02 620.561 1402.97 617.799 1402.09 615.037 1401.21Z" fill-rule="evenodd" transform="matrix(1 0 0 1.00203 -60.4899 -127.554)"/><text font-family="Arial,Arial_MSFontService,sans-serif" font-weight="700" font-size="10" transform="matrix(4.0031 0 0 4.01123 766.431 1249)">S</text><path d="M790.293 1332.79 790.293 1332.79 790.293 1329.43 793.215 1327.75 825.4 1346.32 823.919 1348.85 822.478 1351.37Z" fill-rule="evenodd" transform="matrix(1 0 0 1.00203 -60.4899 -127.554)"/><text font-family="Arial,Arial_MSFontService,sans-serif" font-weight="700" font-size="10" transform="matrix(4.0031 0 0 4.01123 815.229 1187)">H</text><text font-family="Arial,Arial_MSFontService,sans-serif" font-weight="700" font-size="10" transform="matrix(4.0031 0 0 4.01123 815.229 1228)">N</text><path d="M858.025 1351.33 858.025 1351.33 856.584 1348.81 855.103 1346.28 871.716 1336.72 873.157 1339.24 874.638 1341.72Z" fill-rule="evenodd" transform="matrix(1 0 0 1.00203 -60.4899 -127.554)"/><path d="M905.542 1341.68 905.542 1341.68 907.023 1339.16 908.464 1336.68 941.49 1355.73 940.049 1358.25 938.608 1360.78Z" fill-rule="evenodd" transform="matrix(1 0 0 1.00203 -60.4899 -127.554)"/><text font-family="Arial,Arial_MSFontService,sans-serif" font-weight="700" font-size="10" transform="matrix(4.0031 0 0 4.01123 725.399 1292)">O</text><path d="M830.204 1380.11 822.558 1388.52" stroke="#000000" stroke-width="5.8045" transform="matrix(1 0 0 1.00203 -60.4899 -127.554)"/><path d="M821.597 1372.3 821.597 1372.3 817.314 1368.42 809.668 1376.83 813.951 1380.75Z" fill-rule="evenodd" transform="matrix(1 0 0 1.00203 -60.4899 -127.554)"/><path d="M832.365 1382.07 832.365 1382.07 828.042 1378.15 820.396 1386.6 824.719 1390.48Z" fill-rule="evenodd" transform="matrix(1 0 0 1.00203 -60.4899 -127.554)"/><text font-family="Arial,Arial_MSFontService,sans-serif" font-weight="700" font-size="10" transform="matrix(4.0031 0 0 4.01123 798.776 1295)">O</text><path d="M860.907 1373.71 867.433 1382.39" stroke="#000000" stroke-width="5.8045" transform="matrix(1 0 0 1.00203 -60.4899 -127.554)"/><path d="M851.66 1380.67 851.66 1380.67 847.017 1384.19 853.542 1392.84 858.185 1389.36Z" fill-rule="evenodd" transform="matrix(1 0 0 1.00203 -60.4899 -127.554)"/><path d="M863.229 1371.98 863.229 1371.98 858.586 1375.47 865.111 1384.11 869.754 1380.63Z" fill-rule="evenodd" transform="matrix(1 0 0 1.00203 -60.4899 -127.554)"/></g></g></g></g><text font-family="Helvetica,Helvetica_MSFontService,sans-serif" font-weight="400" font-size="83" transform="matrix(1 0 0 1 879.723 1288)">*</text><path d="M1081.5 1105C1088.4 1105 1094 1110.6 1094 1117.5L1094 1169.5C1094 1176.4 1088.4 1182 1081.5 1182L1081.5 1182C1074.6 1182 1069 1176.4 1069 1169.5L1069 1117.5C1069 1110.6 1074.6 1105 1081.5 1105Z" fill="#83CBEB" fill-rule="evenodd"/><path d="M1072.87 1297.78C1069.34 1291.83 1071.3 1284.15 1077.25 1280.62L1122.25 1253.93C1128.2 1250.4 1135.88 1252.36 1139.41 1258.31L1139.41 1258.31C1142.93 1264.25 1140.97 1271.94 1135.03 1275.46L1090.02 1302.16C1084.08 1305.69 1076.39 1303.73 1072.87 1297.78Z" fill="#83CBEB" fill-rule="evenodd"/><path d="M1022.07 1211.82C1018.54 1205.87 1020.5 1198.19 1026.45 1194.66L1071.45 1167.97C1077.4 1164.44 1085.08 1166.4 1088.61 1172.35L1088.61 1172.35C1092.14 1178.29 1090.17 1185.98 1084.23 1189.5L1039.22 1216.2C1033.28 1219.73 1025.6 1217.77 1022.07 1211.82Z" fill="#83CBEB" fill-rule="evenodd"/><path d="M1029.5 1197C1036.4 1197 1042 1202.6 1042 1209.5L1042 1258.5C1042 1265.4 1036.4 1271 1029.5 1271L1029.5 1271C1022.6 1271 1017 1265.4 1017 1258.5L1017 1209.5C1017 1202.6 1022.6 1197 1029.5 1197Z" fill="#83CBEB" fill-rule="evenodd"/><path d="M1131.5 1196C1138.4 1196 1144 1201.6 1144 1208.5L1144 1260.5C1144 1267.4 1138.4 1273 1131.5 1273L1131.5 1273C1124.6 1273 1119 1267.4 1119 1260.5L1119 1208.5C1119 1201.6 1124.6 1196 1131.5 1196Z" fill="#83CBEB" fill-rule="evenodd"/><path d="M1021.39 1257.59C1024.91 1251.64 1032.59 1249.67 1038.54 1253.19L1083.59 1279.8C1089.54 1283.32 1091.51 1291 1088 1296.95L1088 1296.95C1084.48 1302.91 1076.8 1304.88 1070.85 1301.36L1025.8 1274.74C1019.85 1271.23 1017.87 1263.55 1021.39 1257.59Z" fill="#83CBEB" fill-rule="evenodd"/><path d="M1071.04 1172.49C1074.55 1166.54 1082.23 1164.56 1088.19 1168.08L1133.23 1194.7C1139.19 1198.22 1141.16 1205.9 1137.64 1211.85L1137.64 1211.85C1134.12 1217.8 1126.45 1219.78 1120.49 1216.26L1075.45 1189.64C1069.49 1186.12 1067.52 1178.44 1071.04 1172.49Z" fill="#83CBEB" fill-rule="evenodd"/><g clip-path="url(#clip3)"><g clip-path="url(#clip4)"><g clip-path="url(#clip5)"><g><path d="M909.574 1363.25 909.574 1363.25 911.049 1360.67 912.524 1358.09 962.141 1386.73 962.141 1390.17 959.191 1391.89Z" fill-rule="evenodd" transform="matrix(1.00387 0 0 1 65.2337 -184.114)"/><path d="M959.191 1391.89 959.191 1391.89 962.141 1390.17 965.132 1391.89 965.132 1447.45 962.141 1449.17 959.15 1450.89Z" fill-rule="evenodd" transform="matrix(1.00387 0 0 1 65.2337 -184.114)"/><path d="M977.014 1398.74 977.014 1440.61" stroke="#000000" stroke-width="5.94091" fill="none" transform="matrix(1.00387 0 0 1 65.2337 -184.114)"/><path d="M959.15 1450.89 959.15 1450.89 962.141 1449.17 965.132 1447.45 1013.23 1475.23 1013.23 1478.67 1013.23 1482.11Z" fill-rule="evenodd" transform="matrix(1.00387 0 0 1 65.2337 -184.114)"/><path d="M1013.23 1482.11 1013.23 1482.11 1013.23 1478.67 1013.23 1475.23 1061.37 1447.45 1064.32 1449.17 1067.27 1450.89Z" fill-rule="evenodd" transform="matrix(1.00387 0 0 1 65.2337 -184.114)"/><path d="M1013.23 1461.51 1049.49 1440.61" stroke="#000000" stroke-width="5.94091" transform="matrix(1.00387 0 0 1 65.2337 -184.114)"/><path d="M1067.27 1450.89 1067.27 1450.89 1064.32 1449.17 1061.37 1447.45 1061.37 1391.89 1064.32 1390.17 1067.27 1388.45Z" fill-rule="evenodd" transform="matrix(1.00387 0 0 1 65.2337 -184.114)"/><path d="M1067.27 1388.45 1067.27 1388.45 1064.32 1390.17 1061.37 1391.89 1013.23 1364.12 1013.23 1360.67 1016.22 1358.95Z" fill-rule="evenodd" transform="matrix(1.00387 0 0 1 65.2337 -184.114)"/><path d="M1049.49 1398.74 1013.23 1377.84" stroke="#000000" stroke-width="5.94091" transform="matrix(1.00387 0 0 1 65.2337 -184.114)"/><path d="M1010.28 1358.95 1010.28 1358.95 1013.23 1360.67 1013.23 1364.12 965.132 1391.89 962.141 1390.17 962.141 1386.73Z" fill-rule="evenodd" transform="matrix(1.00387 0 0 1 65.2337 -184.114)"/><text font-family="Arial,Arial_MSFontService,sans-serif" font-weight="700" font-size="10" transform="matrix(4.11302 0 0 4.09718 1066.34 1134)">OH</text><path d="M1016.22 1358.95 1016.22 1358.95 1013.23 1360.67 1010.28 1358.95 1010.28 1324.99 1013.23 1324.99 1016.22 1324.99Z" fill-rule="evenodd" transform="matrix(1.00387 0 0 1 65.2337 -184.114)"/></g></g></g></g><text font-family="Helvetica,Helvetica_MSFontService,sans-serif" font-weight="400" font-size="83" transform="matrix(1 0 0 1 949.116 1212)">*</text><text font-family="Lato Black,Lato Black_MSFontService,sans-serif" font-weight="900" font-size="55" transform="matrix(1 0 0 1 514.559 1390)">Core Structure</text><text fill="#016EAB" font-family="Open Sans ExtraBold,Open Sans ExtraBold_MSFontService,sans-serif" font-weight="800" font-size="64" transform="matrix(1 0 0 1 -421.181 976)">Step</text><text fill="#016EAB" font-family="Open Sans ExtraBold,Open Sans ExtraBold_MSFontService,sans-serif" font-weight="800" font-size="64" transform="matrix(1 0 0 1 -273.369 976)">-</text><text fill="#016EAB" font-family="Open Sans ExtraBold,Open Sans ExtraBold_MSFontService,sans-serif" font-weight="800" font-size="64" transform="matrix(1 0 0 1 -252.744 976)">by</text><text fill="#016EAB" font-family="Open Sans ExtraBold,Open Sans ExtraBold_MSFontService,sans-serif" font-weight="800" font-size="64" transform="matrix(1 0 0 1 -173.819 976)">-</text><text fill="#016EAB" font-family="Open Sans ExtraBold,Open Sans ExtraBold_MSFontService,sans-serif" font-weight="800" font-size="64" transform="matrix(1 0 0 1 -153.194 976)">step Optimization</text><path d="M1976.02 1178.93C1979.47 1172.94 1987.13 1170.89 1993.12 1174.35L2038.85 1200.75C2044.84 1204.21 2046.9 1211.87 2043.44 1217.86L2043.44 1217.86C2039.98 1223.85 2032.32 1225.9 2026.33 1222.44L1980.6 1196.04C1974.61 1192.58 1972.56 1184.92 1976.02 1178.93Z" fill="#B4E5A2" fill-rule="evenodd"/><path d="M1932.99 1215.32C1929.36 1209.43 1931.2 1201.72 1937.09 1198.09L1975.6 1174.39C1981.49 1170.77 1989.2 1172.6 1992.83 1178.49L1992.83 1178.49C1996.45 1184.38 1994.61 1192.09 1988.72 1195.72L1950.21 1219.42C1944.32 1223.04 1936.61 1221.21 1932.99 1215.32Z" fill="#B4E5A2" fill-rule="evenodd"/><path d="M1886.92 1301.39C1883.29 1295.5 1885.13 1287.78 1891.02 1284.16L1929.53 1260.46C1935.42 1256.83 1943.13 1258.67 1946.76 1264.56L1946.76 1264.56C1950.38 1270.45 1948.55 1278.16 1942.66 1281.78L1904.14 1305.49C1898.26 1309.11 1890.54 1307.27 1886.92 1301.39Z" fill="#B4E5A2" fill-rule="evenodd"/><path d="M1835.66 1215.32C1832.04 1209.43 1833.88 1201.72 1839.76 1198.09L1878.28 1174.39C1884.17 1170.77 1891.88 1172.6 1895.5 1178.49L1895.5 1178.49C1899.13 1184.38 1897.29 1192.09 1891.4 1195.72L1852.89 1219.42C1847 1223.04 1839.29 1221.21 1835.66 1215.32Z" fill="#B4E5A2" fill-rule="evenodd"/><path d="M1877.75 1177.37C1881.21 1171.38 1888.86 1169.33 1894.85 1172.79L1940.59 1199.19C1946.58 1202.65 1948.63 1210.31 1945.17 1216.3L1945.17 1216.3C1941.71 1222.29 1934.05 1224.34 1928.07 1220.88L1882.33 1194.47C1876.34 1191.02 1874.29 1183.36 1877.75 1177.37Z" fill="#B4E5A2" fill-rule="evenodd"/><path d="M1830.69 1265.04C1834.14 1259.05 1841.8 1257 1847.79 1260.45L1893.52 1286.86C1899.51 1290.32 1901.56 1297.97 1898.11 1303.96L1898.11 1303.96C1894.65 1309.95 1886.99 1312 1881 1308.55L1835.27 1282.14C1829.28 1278.68 1827.23 1271.03 1830.69 1265.04Z" fill="#B4E5A2" fill-rule="evenodd"/><path d="M1936.5 1204C1943.4 1204 1949 1209.6 1949 1216.5L1949 1268.5C1949 1275.4 1943.4 1281 1936.5 1281L1936.5 1281C1929.6 1281 1924 1275.4 1924 1268.5L1924 1216.5C1924 1209.6 1929.6 1204 1936.5 1204Z" fill="#B4E5A2" fill-rule="evenodd"/><path d="M1842 1198C1849.18 1198 1855 1203.82 1855 1211L1855 1268C1855 1275.18 1849.18 1281 1842 1281L1842 1281C1834.82 1281 1829 1275.18 1829 1268L1829 1211C1829 1203.82 1834.82 1198 1842 1198Z" fill="#B4E5A2" fill-rule="evenodd"/><g clip-path="url(#clip6)"><g clip-path="url(#clip7)"><g clip-path="url(#clip8)"><g><path d="M908.997 1362.39 908.997 1362.39 910.471 1359.81 911.945 1357.23 961.53 1385.85 961.53 1389.29 958.582 1391.01Z" fill-rule="evenodd" transform="matrix(1 0 0 1.00191 875.84 -178.957)"/><path d="M958.582 1391.01 958.582 1391.01 961.53 1389.29 964.519 1391.01 964.519 1446.53 961.53 1448.25 958.541 1449.97Z" fill-rule="evenodd" transform="matrix(1 0 0 1.00191 875.84 -178.957)"/><path d="M976.394 1397.85 976.394 1439.7" stroke="#000000" stroke-width="5.93714" fill="none" transform="matrix(1 0 0 1.00191 875.84 -178.957)"/><path d="M958.541 1449.97 958.541 1449.97 961.53 1448.25 964.519 1446.53 1012.59 1474.29 1012.59 1477.73 1012.59 1481.17Z" fill-rule="evenodd" transform="matrix(1 0 0 1.00191 875.84 -178.957)"/><path d="M1012.59 1481.17 1012.59 1481.17 1012.59 1477.73 1012.59 1474.29 1060.7 1446.53 1063.65 1448.25 1066.6 1449.97Z" fill-rule="evenodd" transform="matrix(1 0 0 1.00191 875.84 -178.957)"/><path d="M1012.59 1460.58 1048.83 1439.7" stroke="#000000" stroke-width="5.93714" transform="matrix(1 0 0 1.00191 875.84 -178.957)"/><path d="M1066.6 1449.97 1066.6 1449.97 1063.65 1448.25 1060.7 1446.53 1060.7 1391.01 1063.65 1389.29 1066.64 1391.01Z" fill-rule="evenodd" transform="matrix(1 0 0 1.00191 875.84 -178.957)"/><path d="M1063.65 1385.85 1063.65 1385.85 1063.65 1389.29 1060.7 1391.01 1012.59 1363.25 1012.59 1359.81 1012.59 1356.37Z" fill-rule="evenodd" transform="matrix(1 0 0 1.00191 875.84 -178.957)"/><path d="M1048.83 1397.85 1012.59 1376.97" stroke="#000000" stroke-width="5.93714" transform="matrix(1 0 0 1.00191 875.84 -178.957)"/><path d="M1012.59 1356.37 1012.59 1356.37 1012.59 1359.81 1012.59 1363.25 964.519 1391.01 961.53 1389.29 961.53 1385.85Z" fill-rule="evenodd" transform="matrix(1 0 0 1.00191 875.84 -178.957)"/><path d="M1066.64 1391.01 1066.64 1391.01 1063.65 1389.29 1063.65 1385.85 1114.75 1356.37 1114.75 1359.81 1114.75 1363.25Z" fill-rule="evenodd" transform="matrix(1 0 0 1.00191 875.84 -178.957)"/><path d="M1114.75 1363.25 1114.75 1363.25 1114.75 1359.81 1114.75 1356.37 1167.28 1386.71 1165.81 1389.29 1164.33 1391.87Z" fill-rule="evenodd" transform="matrix(1 0 0 1.00191 875.84 -178.957)"/></g></g></g></g><text font-family="Helvetica,Helvetica_MSFontService,sans-serif" font-weight="400" font-size="83" transform="matrix(1 0 0 1 1751.13 1221)">*</text><text font-family="Lato Black,Lato Black_MSFontService,sans-serif" font-weight="900" font-size="55" transform="matrix(1 0 0 1 971.163 1390)">Truncated</text><text font-family="Lato Black,Lato Black_MSFontService,sans-serif" font-weight="900" font-size="55" transform="matrix(1 0 0 1 976.892 1456)">Fragment</text><text font-family="Lato Black,Lato Black_MSFontService,sans-serif" font-weight="900" font-size="55" transform="matrix(1 0 0 1 -210.531 1390)">Specify Modification Sites</text></g></svg>