<svg width="3290" height="1249" xmlns="http://www.w3.org/2000/svg" xmlns:xlink="http://www.w3.org/1999/xlink" xml:space="preserve" overflow="hidden"><defs><clipPath id="clip0"><rect x="2077" y="2077" width="415" height="226"/></clipPath><clipPath id="clip1"><rect x="2077" y="2077" width="415" height="226"/></clipPath><clipPath id="clip2"><rect x="2077" y="2077" width="415" height="226"/></clipPath><clipPath id="clip3"><rect x="2588" y="2104" width="159" height="201"/></clipPath><clipPath id="clip4"><rect x="2588" y="2104" width="159" height="201"/></clipPath><clipPath id="clip5"><rect x="2588" y="2104" width="159" height="201"/></clipPath><clipPath id="clip6"><rect x="1052" y="2676" width="415" height="224"/></clipPath><clipPath id="clip7"><rect x="1052" y="2676" width="415" height="224"/></clipPath><clipPath id="clip8"><rect x="1052" y="2676" width="415" height="224"/></clipPath><clipPath id="clip9"><rect x="1563" y="2701" width="159" height="201"/></clipPath><clipPath id="clip10"><rect x="1563" y="2701" width="159" height="201"/></clipPath><clipPath id="clip11"><rect x="1563" y="2701" width="159" height="201"/></clipPath></defs><g transform="translate(248 -1824)"><path d="M1827.79 1828.5 3037.5 1828.5 3037.5 2037.24 3037.5 2289.72 3037.5 2398.53 3037.5 2497.23 3037.5 2498.47 3037.5 2607.28 3037.5 2859.76 3037.5 2958.45 3037.5 3068.5 1827.79 3068.5 968.212 3068.5-241.5 3068.5-241.5 2958.45-241.5 2859.76-241.5 2607.28-241.5 2497.23-241.5 2398.53 968.212 2398.53 1728.81 2398.53 1728.81 2037.24 1827.79 2037.24 1827.79 2037.24Z" stroke="#0D0D0D" stroke-width="9.16667" stroke-miterlimit="8" fill="#EDF6E8" fill-rule="evenodd"/><path d="M-241.5 1828.5 1829.5 1828.5 1829.5 2018.56 1829.5 2248.44 1829.5 2438.5-241.5 2438.5-241.5 2248.44-241.5 2018.56Z" stroke="#0D0D0D" stroke-width="9.16667" stroke-miterlimit="8" fill="#E9EEF8" fill-rule="evenodd"/><g><g><g><g><path d="M693.191 1284.32 693.191 1284.32 696.097 1282.18 699.043 1283.87 699.043 1338.6 696.097 1340.29 693.191 1338.15Z" fill-rule="evenodd" transform="matrix(1 0 0 1.0005 -699.069 857.361)"/><path d="M695.774 1343.48 695.774 1343.48 696.097 1340.29 699.043 1338.6 746.423 1365.96 746.423 1369.35 746.423 1372.74Z" fill-rule="evenodd" transform="matrix(1 0 0 1.0005 -699.069 857.361)"/><path d="M710.747 1331.86 746.423 1352.44" stroke="#000000" stroke-width="5.85193" transform="matrix(1 0 0 1.0005 -699.069 857.361)"/><path d="M746.423 1372.74 746.423 1372.74 746.423 1369.35 746.423 1365.96 793.844 1338.6 796.75 1340.29 796.75 1343.68Z" fill-rule="evenodd" transform="matrix(1 0 0 1.0005 -699.069 857.361)"/><path d="M799.696 1338.6 799.696 1338.6 796.75 1340.29 793.844 1338.6 793.844 1283.87 796.75 1282.18 799.656 1280.48Z" fill-rule="evenodd" transform="matrix(1 0 0 1.0005 -699.069 857.361)"/><path d="M782.14 1331.86 782.14 1290.61" stroke="#000000" stroke-width="5.85193" fill="none" transform="matrix(1 0 0 1.0005 -699.069 857.361)"/><path d="M799.656 1280.48 799.656 1280.48 796.75 1282.18 793.844 1283.87 746.423 1256.51 746.423 1253.12 746.423 1249.73Z" fill-rule="evenodd" transform="matrix(1 0 0 1.0005 -699.069 857.361)"/><path d="M746.423 1249.73 746.423 1249.73 746.423 1253.12 746.423 1256.51 699.043 1283.87 696.097 1282.18 695.774 1278.99Z" fill-rule="evenodd" transform="matrix(1 0 0 1.0005 -699.069 857.361)"/><path d="M746.423 1270.03 710.747 1290.61" stroke="#000000" stroke-width="5.85193" transform="matrix(1 0 0 1.0005 -699.069 857.361)"/><text font-family="Arial,Arial_MSFontService,sans-serif" font-weight="700" font-size="10" transform="matrix(4.03581 0 0 4.03781 -72.7912 2138)">N</text><text font-family="Arial,Arial_MSFontService,sans-serif" font-weight="700" font-size="10" transform="matrix(4.03581 0 0 4.03781 -72.7912 2232)">N</text><path d="M695.774 1278.99 695.774 1278.99 696.097 1282.18 693.191 1284.32 657.393 1272.69 658.281 1269.91 659.21 1267.12Z" fill-rule="evenodd" transform="matrix(1 0 0 1.0005 -699.069 857.361)"/><path d="M623.452 1283.15 623.452 1283.15 625.833 1284.84 628.174 1286.58 610.296 1311.24 606.663 1311.24 603.031 1311.24Z" fill-rule="evenodd" transform="matrix(1 0 0 1.0005 -699.069 857.361)"/><path d="M603.031 1311.24 603.031 1311.24 606.663 1311.24 610.296 1311.24 630.152 1338.64 627.811 1340.33 625.43 1342.07Z" fill-rule="evenodd" transform="matrix(1 0 0 1.0005 -699.069 857.361)"/><path d="M659.21 1355.35 659.21 1355.35 658.281 1352.56 657.393 1349.78 693.191 1338.15 696.097 1340.29 695.774 1343.48Z" fill-rule="evenodd" transform="matrix(1 0 0 1.0005 -699.069 857.361)"/><text font-family="Arial,Arial_MSFontService,sans-serif" font-weight="700" font-size="10" transform="matrix(4.03581 0 0 4.03781 -166.261 2185)">O</text><path d="M606.663 1318.54 569.009 1318.54" stroke="#000000" stroke-width="5.85193" fill="none" transform="matrix(1 0 0 1.0005 -699.069 857.361)"/><path d="M606.219 1306.84 606.219 1306.84 610.497 1300.98 569.009 1300.98 569.009 1306.84Z" fill-rule="evenodd" transform="matrix(1 0 0 1.0005 -699.069 857.361)"/><path d="M610.497 1321.49 610.497 1321.49 606.219 1315.63 569.009 1315.63 569.009 1321.49Z" fill-rule="evenodd" transform="matrix(1 0 0 1.0005 -699.069 857.361)"/><path d="M637.497 1244.48 637.497 1244.48 634.712 1245.41 631.927 1246.3 620.062 1209.82 622.847 1208.93 625.632 1208.04Z" fill-rule="evenodd" transform="matrix(1 0 0 1.0005 -699.069 857.361)"/><path d="M630.878 1379.4 630.878 1379.4 633.663 1380.29 636.448 1381.22 625.632 1414.43 622.847 1413.54 620.062 1412.66Z" fill-rule="evenodd" transform="matrix(1 0 0 1.0005 -699.069 857.361)"/><text font-family="Arial,Arial_MSFontService,sans-serif" font-weight="700" font-size="10" transform="matrix(4.03581 0 0 4.03781 134.609 2243)">S</text><path d="M796.75 1343.68 796.75 1343.68 796.75 1340.29 799.696 1338.6 832.144 1357.32 830.651 1359.87 829.198 1362.41Z" fill-rule="evenodd" transform="matrix(1 0 0 1.0005 -699.069 857.361)"/><text font-family="Arial,Arial_MSFontService,sans-serif" font-weight="700" font-size="10" transform="matrix(4.03581 0 0 4.03781 183.806 2181)">H</text><text font-family="Arial,Arial_MSFontService,sans-serif" font-weight="700" font-size="10" transform="matrix(4.03581 0 0 4.03781 183.806 2222)">N</text><path d="M865.036 1362.37 865.036 1362.37 863.583 1359.83 862.09 1357.28 878.839 1347.64 880.291 1350.18 881.785 1352.68Z" fill-rule="evenodd" transform="matrix(1 0 0 1.0005 -699.069 857.361)"/><path d="M912.941 1352.64 912.941 1352.64 914.434 1350.1 915.887 1347.6 947.73 1365.96 947.73 1369.35 944.824 1371.05Z" fill-rule="evenodd" transform="matrix(1 0 0 1.0005 -699.069 857.361)"/><path d="M944.824 1371.05 944.824 1371.05 947.73 1369.35 950.676 1371.05 950.676 1425.77 947.73 1427.47 944.784 1429.16Z" fill-rule="evenodd" transform="matrix(1 0 0 1.0005 -699.069 857.361)"/><path d="M962.38 1377.79 962.38 1419.03" stroke="#000000" stroke-width="5.85193" fill="none" transform="matrix(1 0 0 1.0005 -699.069 857.361)"/><path d="M944.784 1429.16 944.784 1429.16 947.73 1427.47 950.676 1425.77 998.056 1453.13 998.056 1456.52 998.056 1459.91Z" fill-rule="evenodd" transform="matrix(1 0 0 1.0005 -699.069 857.361)"/><path d="M998.056 1459.91 998.056 1459.91 998.056 1456.52 998.056 1453.13 1045.48 1425.77 1048.38 1427.47 1051.29 1429.16Z" fill-rule="evenodd" transform="matrix(1 0 0 1.0005 -699.069 857.361)"/><path d="M998.056 1439.61 1033.77 1419.03" stroke="#000000" stroke-width="5.85193" transform="matrix(1 0 0 1.0005 -699.069 857.361)"/><path d="M1051.29 1429.16 1051.29 1429.16 1048.38 1427.47 1045.48 1425.77 1045.48 1371.05 1048.38 1369.35 1051.29 1367.66Z" fill-rule="evenodd" transform="matrix(1 0 0 1.0005 -699.069 857.361)"/><path d="M1051.29 1367.66 1051.29 1367.66 1048.38 1369.35 1045.48 1371.05 998.056 1343.68 998.056 1340.29 1001 1338.6Z" fill-rule="evenodd" transform="matrix(1 0 0 1.0005 -699.069 857.361)"/><path d="M1033.77 1377.79 998.056 1357.2" stroke="#000000" stroke-width="5.85193" transform="matrix(1 0 0 1.0005 -699.069 857.361)"/><path d="M995.151 1338.6 995.151 1338.6 998.056 1340.29 998.056 1343.68 950.676 1371.05 947.73 1369.35 947.73 1365.96Z" fill-rule="evenodd" transform="matrix(1 0 0 1.0005 -699.069 857.361)"/><text font-family="Arial,Arial_MSFontService,sans-serif" font-weight="700" font-size="10" transform="matrix(4.03581 0 0 4.03781 93.2421 2286)">O</text><path d="M836.987 1391.39 829.279 1399.86" stroke="#000000" stroke-width="5.85193" transform="matrix(1 0 0 1.0005 -699.069 857.361)"/><path d="M828.31 1383.52 828.31 1383.52 823.992 1379.6 816.283 1388.08 820.602 1392.03Z" fill-rule="evenodd" transform="matrix(1 0 0 1.0005 -699.069 857.361)"/><path d="M839.166 1393.36 839.166 1393.36 834.808 1389.41 827.099 1397.92 831.458 1401.84Z" fill-rule="evenodd" transform="matrix(1 0 0 1.0005 -699.069 857.361)"/><text font-family="Arial,Arial_MSFontService,sans-serif" font-weight="700" font-size="10" transform="matrix(4.03581 0 0 4.03781 167.219 2290)">O</text><path d="M867.942 1384.93 874.52 1393.69" stroke="#000000" stroke-width="5.85193" transform="matrix(1 0 0 1.0005 -699.069 857.361)"/><path d="M858.619 1391.95 858.619 1391.95 853.938 1395.5 860.516 1404.22 865.197 1400.71Z" fill-rule="evenodd" transform="matrix(1 0 0 1.0005 -699.069 857.361)"/><path d="M870.283 1383.19 870.283 1383.19 865.601 1386.71 872.179 1395.42 876.861 1391.91Z" fill-rule="evenodd" transform="matrix(1 0 0 1.0005 -699.069 857.361)"/><text font-family="Arial,Arial_MSFontService,sans-serif" font-weight="700" font-size="10" transform="matrix(4.03581 0 0 4.03781 283.248 2156)">OH</text><path d="M1001 1338.6 1001 1338.6 998.056 1340.29 995.151 1338.6 995.151 1305.14 998.056 1305.14 1001 1305.14Z" fill-rule="evenodd" transform="matrix(1 0 0 1.0005 -699.069 857.361)"/></g></g></g></g><path d="M498.5 2137.33C498.5 2117.54 514.543 2101.5 534.334 2101.5L843.666 2101.5C863.457 2101.5 879.5 2117.54 879.5 2137.33L879.5 2280.67C879.5 2300.46 863.457 2316.5 843.666 2316.5L534.334 2316.5C514.543 2316.5 498.5 2300.46 498.5 2280.67Z" stroke="#262626" stroke-width="6.875" stroke-miterlimit="8" fill="#FEF7F3" fill-rule="evenodd"/><text fill="#262626" font-family="Lato Black,Lato Black_MSFontService,sans-serif" font-weight="900" font-size="55" transform="matrix(1 0 0 1 548.657 2197)">End</text><text fill="#262626" font-family="Lato Black,Lato Black_MSFontService,sans-serif" font-weight="900" font-size="55" transform="matrix(1 0 0 1 642.615 2197)">-</text><text fill="#262626" font-family="Lato Black,Lato Black_MSFontService,sans-serif" font-weight="900" font-size="55" transform="matrix(1 0 0 1 663.24 2197)">to</text><text fill="#262626" font-family="Lato Black,Lato Black_MSFontService,sans-serif" font-weight="900" font-size="55" transform="matrix(1 0 0 1 715.375 2197)">-</text><text fill="#262626" font-family="Lato Black,Lato Black_MSFontService,sans-serif" font-weight="900" font-size="55" transform="matrix(1 0 0 1 736 2197)">end </text><text fill="#262626" font-family="Lato Black,Lato Black_MSFontService,sans-serif" font-weight="900" font-size="55" transform="matrix(1 0 0 1 609.088 2263)">Model</text><path d="M393.5 2206.06 456.487 2206.06 456.487 2212.94 393.5 2212.94ZM451.904 2195.75 497.737 2209.5 451.904 2223.25Z" fill="#262626"/><path d="M879.5 2206.06 942.75 2206.06 942.75 2212.94 879.5 2212.94ZM938.167 2195.75 984 2209.5 938.167 2223.25Z" fill="#262626"/><path d="M1601.05 2214.28C1604.51 2208.29 1612.17 2206.24 1618.16 2209.7L1663.89 2236.1C1669.88 2239.56 1671.93 2247.22 1668.47 2253.2L1668.47 2253.2C1665.02 2259.19 1657.36 2261.24 1651.37 2257.79L1605.64 2231.38C1599.65 2227.93 1597.6 2220.27 1601.05 2214.28Z" fill="#B4E5A2" fill-rule="evenodd"/><path d="M1558.02 2250.66C1554.4 2244.78 1556.23 2237.06 1562.12 2233.44L1600.64 2209.74C1606.52 2206.11 1614.24 2207.95 1617.86 2213.84L1617.86 2213.84C1621.49 2219.73 1619.65 2227.44 1613.76 2231.06L1575.25 2254.76C1569.36 2258.39 1561.65 2256.55 1558.02 2250.66Z" fill="#B4E5A2" fill-rule="evenodd"/><path d="M1511.95 2336.73C1508.33 2330.84 1510.17 2323.13 1516.05 2319.51L1554.57 2295.8C1560.46 2292.18 1568.17 2294.01 1571.79 2299.9L1571.79 2299.9C1575.42 2305.79 1573.58 2313.5 1567.69 2317.13L1529.18 2340.83C1523.29 2344.46 1515.58 2342.62 1511.95 2336.73Z" fill="#B4E5A2" fill-rule="evenodd"/><path d="M1406.6 2214.73C1410.11 2208.77 1417.79 2206.8 1423.75 2210.32L1468.79 2236.94C1474.75 2240.45 1476.72 2248.13 1473.2 2254.09L1473.2 2254.09C1469.68 2260.04 1462.01 2262.01 1456.05 2258.5L1411.01 2231.88C1405.05 2228.36 1403.08 2220.68 1406.6 2214.73Z" fill="#FC8484" fill-rule="evenodd"/><path d="M1460.7 2250.66C1457.08 2244.78 1458.91 2237.06 1464.8 2233.44L1503.31 2209.74C1509.2 2206.11 1516.92 2207.95 1520.54 2213.84L1520.54 2213.84C1524.16 2219.73 1522.33 2227.44 1516.44 2231.06L1477.93 2254.76C1472.04 2258.39 1464.32 2256.55 1460.7 2250.66Z" fill="#B4E5A2" fill-rule="evenodd"/><path d="M1502.78 2212.72C1506.24 2206.73 1513.9 2204.68 1519.89 2208.13L1565.62 2234.54C1571.61 2238 1573.66 2245.65 1570.21 2251.64L1570.21 2251.64C1566.75 2257.63 1559.09 2259.68 1553.1 2256.23L1507.37 2229.82C1501.38 2226.36 1499.33 2218.71 1502.78 2212.72Z" fill="#B4E5A2" fill-rule="evenodd"/><path d="M1455.72 2300.38C1459.18 2294.39 1466.84 2292.34 1472.83 2295.8L1518.56 2322.2C1524.55 2325.66 1526.6 2333.32 1523.14 2339.31L1523.14 2339.31C1519.69 2345.3 1512.03 2347.35 1506.04 2343.89L1460.31 2317.49C1454.32 2314.03 1452.26 2306.37 1455.72 2300.38Z" fill="#B4E5A2" fill-rule="evenodd"/><path d="M1561.5 2239C1568.4 2239 1574 2244.6 1574 2251.5L1574 2303.5C1574 2310.4 1568.4 2316 1561.5 2316L1561.5 2316C1554.6 2316 1549 2310.4 1549 2303.5L1549 2251.5C1549 2244.6 1554.6 2239 1561.5 2239Z" fill="#B4E5A2" fill-rule="evenodd"/><path d="M1467.5 2234C1474.4 2234 1480 2239.6 1480 2246.5L1480 2303.5C1480 2310.4 1474.4 2316 1467.5 2316L1467.5 2316C1460.6 2316 1455 2310.4 1455 2303.5L1455 2246.5C1455 2239.6 1460.6 2234 1467.5 2234Z" fill="#B4E5A2" fill-rule="evenodd"/><path d="M1315.42 2301.03C1310.61 2296.06 1310.74 2288.14 1315.71 2283.33L1353.31 2246.93C1358.27 2242.12 1366.2 2242.25 1371.01 2247.22L1371.01 2247.22C1375.82 2252.19 1375.69 2260.12 1370.72 2264.93L1333.13 2301.32C1328.16 2306.13 1320.23 2306 1315.42 2301.03Z" fill="#FC8484" fill-rule="evenodd"/><path d="M1358.65 2242.74C1364.07 2238.45 1371.94 2239.36 1376.24 2244.78L1408.73 2285.79C1413.03 2291.21 1412.12 2299.08 1406.7 2303.38L1406.7 2303.38C1401.28 2307.67 1393.4 2306.76 1389.11 2301.34L1356.61 2260.33C1352.32 2254.91 1353.23 2247.04 1358.65 2242.74Z" fill="#FC8484" fill-rule="evenodd"/><path d="M1359.14 2254.74C1355.75 2248.71 1357.88 2241.08 1363.91 2237.69L1409.5 2212.01C1415.53 2208.62 1423.16 2210.76 1426.55 2216.78L1426.55 2216.78C1429.95 2222.81 1427.81 2230.44 1421.79 2233.83L1376.19 2259.51C1370.17 2262.9 1362.53 2260.77 1359.14 2254.74Z" fill="#FC8484" fill-rule="evenodd"/><path d="M1307.92 2216.12C1311.43 2210.17 1319.11 2208.2 1325.06 2211.71L1370.11 2238.33C1376.06 2241.85 1378.04 2249.53 1374.52 2255.48L1374.52 2255.48C1371 2261.44 1363.33 2263.41 1357.37 2259.89L1312.32 2233.27C1306.37 2229.76 1304.4 2222.08 1307.92 2216.12Z" fill="#FC8484" fill-rule="evenodd"/><path d="M1258.54 2254.86C1255.15 2248.83 1257.28 2241.2 1263.31 2237.8L1308.9 2212.13C1314.93 2208.74 1322.56 2210.87 1325.96 2216.9L1325.96 2216.9C1329.35 2222.93 1327.21 2230.56 1321.19 2233.95L1275.6 2259.62C1269.57 2263.02 1261.94 2260.88 1258.54 2254.86Z" fill="#FC8484" fill-rule="evenodd"/><path d="M1316 2232C1308.82 2232 1303 2226.18 1303 2219L1303 2168C1303 2160.82 1308.82 2155 1316 2155L1316 2155C1323.18 2155 1329 2160.82 1329 2168L1329 2219C1329 2226.18 1323.18 2232 1316 2232Z" fill="#FC8484" fill-rule="evenodd"/><path d="M1255.82 2130.65C1259.34 2124.69 1267.02 2122.72 1272.97 2126.24L1318.02 2152.86C1323.97 2156.37 1325.95 2164.05 1322.43 2170.01L1322.43 2170.01C1318.91 2175.96 1311.23 2177.93 1305.28 2174.42L1260.23 2147.8C1254.28 2144.28 1252.3 2136.6 1255.82 2130.65Z" fill="#FC8484" fill-rule="evenodd"/><path d="M1208.32 2215.51C1211.84 2209.56 1219.51 2207.58 1225.47 2211.1L1270.51 2237.72C1276.47 2241.24 1278.44 2248.92 1274.92 2254.87L1274.92 2254.87C1271.41 2260.82 1263.73 2262.8 1257.78 2259.28L1212.73 2232.66C1206.77 2229.14 1204.8 2221.46 1208.32 2215.51Z" fill="#FC8484" fill-rule="evenodd"/><path d="M1203.34 2171.48C1199.94 2165.46 1202.08 2157.82 1208.1 2154.43L1253.7 2128.76C1259.72 2125.37 1267.36 2127.5 1270.75 2133.53L1270.75 2133.53C1274.14 2139.55 1272.01 2147.19 1265.98 2150.58L1220.39 2176.25C1214.36 2179.64 1206.73 2177.51 1203.34 2171.48Z" fill="#FC8484" fill-rule="evenodd"/><path d="M1162.78 2230.79C1169.39 2232.81 1173.12 2239.81 1171.09 2246.43L1155.8 2296.46C1153.77 2303.08 1146.77 2306.8 1140.16 2304.78L1140.16 2304.78C1133.55 2302.75 1129.83 2295.76 1131.85 2289.14L1147.15 2239.1C1149.17 2232.49 1156.17 2228.77 1162.78 2230.79Z" fill="#FC8484" fill-rule="evenodd"/><path d="M1150.06 2244.83C1147.88 2238.26 1151.44 2231.18 1158 2229L1207.66 2212.53C1214.23 2210.35 1221.31 2213.9 1223.49 2220.47L1223.49 2220.47C1225.67 2227.03 1222.11 2234.12 1215.55 2236.29L1165.89 2252.77C1159.32 2254.95 1152.24 2251.39 1150.06 2244.83Z" fill="#FC8484" fill-rule="evenodd"/><path d="M1217.5 2232C1210.6 2232 1205 2226.4 1205 2219.5L1205 2167.5C1205 2160.6 1210.6 2155 1217.5 2155L1217.5 2155C1224.4 2155 1230 2160.6 1230 2167.5L1230 2219.5C1230 2226.4 1224.4 2232 1217.5 2232Z" fill="#FC8484" fill-rule="evenodd"/><path d="M1054 2191.5C1054 2184.6 1059.6 2179 1066.5 2179L1119.5 2179C1126.4 2179 1132 2184.6 1132 2191.5L1132 2191.5C1132 2198.4 1126.4 2204 1119.5 2204L1066.5 2204C1059.6 2204 1054 2198.4 1054 2191.5Z" fill="#FC8484" fill-rule="evenodd"/><path d="M1140.63 2082.3C1147.2 2080.17 1154.27 2083.77 1156.4 2090.34L1172.57 2140.11C1174.71 2146.68 1171.11 2153.75 1164.53 2155.88L1164.53 2155.88C1157.96 2158.02 1150.89 2154.42 1148.76 2147.84L1132.59 2098.08C1130.45 2091.5 1134.05 2084.44 1140.63 2082.3Z" fill="#FC8484" fill-rule="evenodd"/><path d="M1118.67 2185.71C1124.26 2181.65 1132.09 2182.89 1136.16 2188.48L1166.91 2230.81C1170.98 2236.41 1169.74 2244.24 1164.14 2248.3L1164.14 2248.3C1158.55 2252.37 1150.72 2251.13 1146.65 2245.53L1115.9 2203.2C1111.83 2197.61 1113.07 2189.78 1118.67 2185.71Z" fill="#FC8484" fill-rule="evenodd"/><path d="M1114.33 2200.41C1109.03 2195.96 1108.34 2188.06 1112.78 2182.77L1146.38 2142.72C1150.83 2137.43 1158.73 2136.73 1164.02 2141.18L1164.02 2141.18C1169.32 2145.62 1170.01 2153.52 1165.57 2158.82L1131.97 2198.86C1127.52 2204.16 1119.62 2204.85 1114.33 2200.41Z" fill="#FC8484" fill-rule="evenodd"/><path d="M1155.81 2145.2C1157.94 2138.62 1165.01 2135.03 1171.58 2137.16L1216.07 2151.62C1222.64 2153.75 1226.24 2160.82 1224.11 2167.39L1224.11 2167.39C1221.97 2173.97 1214.91 2177.57 1208.33 2175.43L1163.85 2160.98C1157.27 2158.84 1153.67 2151.78 1155.81 2145.2Z" fill="#FC8484" fill-rule="evenodd"/><g><g><g><g><path d="M681.411 1262.49 681.411 1262.49 684.268 1260.39 687.164 1262.06 687.164 1315.85 684.268 1317.52 681.411 1315.41Z" fill-rule="evenodd" transform="matrix(1 0 0 1.00164 532.134 899.545)"/><path d="M683.951 1320.65 683.951 1320.65 684.268 1317.52 687.164 1315.85 733.739 1342.75 733.739 1346.08 733.739 1349.41Z" fill-rule="evenodd" transform="matrix(1 0 0 1.00164 532.134 899.545)"/><path d="M698.669 1309.23 733.739 1329.46" stroke="#000000" stroke-width="5.75248" transform="matrix(1 0 0 1.00164 532.134 899.545)"/><path d="M733.739 1349.41 733.739 1349.41 733.739 1346.08 733.739 1342.75 780.354 1315.85 783.211 1317.52 783.211 1320.85Z" fill-rule="evenodd" transform="matrix(1 0 0 1.00164 532.134 899.545)"/><path d="M786.107 1315.85 786.107 1315.85 783.211 1317.52 780.354 1315.85 780.354 1262.06 783.211 1260.39 786.067 1258.72Z" fill-rule="evenodd" transform="matrix(1 0 0 1.00164 532.134 899.545)"/><path d="M768.849 1309.23 768.849 1268.68" stroke="#000000" stroke-width="5.75248" fill="none" transform="matrix(1 0 0 1.00164 532.134 899.545)"/><path d="M786.067 1258.72 786.067 1258.72 783.211 1260.39 780.354 1262.06 733.739 1235.16 733.739 1231.83 733.739 1228.49Z" fill-rule="evenodd" transform="matrix(1 0 0 1.00164 532.134 899.545)"/><path d="M733.739 1228.49 733.739 1228.49 733.739 1231.83 733.739 1235.16 687.164 1262.06 684.268 1260.39 683.951 1257.26Z" fill-rule="evenodd" transform="matrix(1 0 0 1.00164 532.134 899.545)"/><path d="M733.739 1248.45 698.669 1268.68" stroke="#000000" stroke-width="5.75248" transform="matrix(1 0 0 1.00164 532.134 899.545)"/><text font-family="Arial,Arial_MSFontService,sans-serif" font-weight="700" font-size="10" transform="matrix(3.96723 0 0 3.97373 1147.77 2160)">N</text><text font-family="Arial,Arial_MSFontService,sans-serif" font-weight="700" font-size="10" transform="matrix(3.96723 0 0 3.97373 1147.77 2252)">N</text><path d="M683.951 1257.26 683.951 1257.26 684.268 1260.39 681.411 1262.49 646.222 1251.07 647.095 1248.33 648.007 1245.59Z" fill-rule="evenodd" transform="matrix(1 0 0 1.00164 532.134 899.545)"/><path d="M612.858 1261.34 612.858 1261.34 615.198 1263.01 617.499 1264.71 599.925 1288.95 596.354 1288.95 592.784 1288.95Z" fill-rule="evenodd" transform="matrix(1 0 0 1.00164 532.134 899.545)"/><path d="M592.784 1288.95 592.784 1288.95 596.354 1288.95 599.925 1288.95 619.443 1315.89 617.142 1317.56 614.802 1319.26Z" fill-rule="evenodd" transform="matrix(1 0 0 1.00164 532.134 899.545)"/><path d="M648.007 1332.31 648.007 1332.31 647.095 1329.58 646.222 1326.84 681.411 1315.41 684.268 1317.52 683.951 1320.65Z" fill-rule="evenodd" transform="matrix(1 0 0 1.00164 532.134 899.545)"/><text font-family="Arial,Arial_MSFontService,sans-serif" font-weight="700" font-size="10" transform="matrix(3.96723 0 0 3.97373 1055.89 2206)">O</text><path d="M596.354 1296.13 559.34 1296.13" stroke="#000000" stroke-width="5.75248" fill="none" transform="matrix(1 0 0 1.00164 532.134 899.545)"/><path d="M595.918 1284.63 595.918 1284.63 600.123 1278.88 559.34 1278.88 559.34 1284.63Z" fill-rule="evenodd" transform="matrix(1 0 0 1.00164 532.134 899.545)"/><path d="M600.123 1299.03 600.123 1299.03 595.918 1293.28 559.34 1293.28 559.34 1299.03Z" fill-rule="evenodd" transform="matrix(1 0 0 1.00164 532.134 899.545)"/><path d="M626.664 1223.34 626.664 1223.34 623.926 1224.25 621.189 1225.12 609.525 1189.26 612.263 1188.38 615 1187.51Z" fill-rule="evenodd" transform="matrix(1 0 0 1.00164 532.134 899.545)"/><path d="M620.157 1355.96 620.157 1355.96 622.895 1356.83 625.632 1357.74 615 1390.4 612.263 1389.52 609.525 1388.65Z" fill-rule="evenodd" transform="matrix(1 0 0 1.00164 532.134 899.545)"/><text font-family="Arial,Arial_MSFontService,sans-serif" font-weight="700" font-size="10" transform="matrix(3.96723 0 0 3.97373 1351.64 2263)">S</text><path d="M783.211 1320.85 783.211 1320.85 783.211 1317.52 786.107 1315.85 818.003 1334.26 816.535 1336.76 815.107 1339.26Z" fill-rule="evenodd" transform="matrix(1 0 0 1.00164 532.134 899.545)"/><text font-family="Arial,Arial_MSFontService,sans-serif" font-weight="700" font-size="10" transform="matrix(3.96723 0 0 3.97373 1400.01 2202)">H</text><text font-family="Arial,Arial_MSFontService,sans-serif" font-weight="700" font-size="10" transform="matrix(3.96723 0 0 3.97373 1400.01 2242)">N</text><path d="M850.336 1339.22 850.336 1339.22 848.908 1336.72 847.44 1334.22 863.904 1324.74 865.332 1327.24 866.8 1329.7Z" fill-rule="evenodd" transform="matrix(1 0 0 1.00164 532.134 899.545)"/><path d="M897.427 1329.66 897.427 1329.66 898.895 1327.16 900.323 1324.7 931.625 1342.75 931.625 1346.08 928.768 1347.75Z" fill-rule="evenodd" transform="matrix(1 0 0 1.00164 532.134 899.545)"/><path d="M928.768 1347.75 928.768 1347.75 931.625 1346.08 934.521 1347.75 934.521 1401.54 931.625 1403.21 928.729 1404.88Z" fill-rule="evenodd" transform="matrix(1 0 0 1.00164 532.134 899.545)"/><path d="M946.026 1354.37 946.026 1394.92" stroke="#000000" stroke-width="5.75248" fill="none" transform="matrix(1 0 0 1.00164 532.134 899.545)"/><path d="M928.729 1404.88 928.729 1404.88 931.625 1403.21 934.521 1401.54 981.096 1428.44 981.096 1431.77 981.096 1435.11Z" fill-rule="evenodd" transform="matrix(1 0 0 1.00164 532.134 899.545)"/><path d="M981.096 1435.11 981.096 1435.11 981.096 1431.77 981.096 1428.44 1027.71 1401.54 1030.57 1403.21 1033.42 1404.88Z" fill-rule="evenodd" transform="matrix(1 0 0 1.00164 532.134 899.545)"/><path d="M981.096 1415.15 1016.21 1394.92" stroke="#000000" stroke-width="5.75248" transform="matrix(1 0 0 1.00164 532.134 899.545)"/><path d="M1033.42 1404.88 1033.42 1404.88 1030.57 1403.21 1027.71 1401.54 1027.71 1347.75 1030.57 1346.08 1033.46 1347.75Z" fill-rule="evenodd" transform="matrix(1 0 0 1.00164 532.134 899.545)"/><path d="M1030.57 1342.75 1030.57 1342.75 1030.57 1346.08 1027.71 1347.75 981.096 1320.85 981.096 1317.52 981.096 1314.18Z" fill-rule="evenodd" transform="matrix(1 0 0 1.00164 532.134 899.545)"/><path d="M1016.21 1354.37 981.096 1334.14" stroke="#000000" stroke-width="5.75248" transform="matrix(1 0 0 1.00164 532.134 899.545)"/><path d="M981.096 1314.18 981.096 1314.18 981.096 1317.52 981.096 1320.85 934.521 1347.75 931.625 1346.08 931.625 1342.75Z" fill-rule="evenodd" transform="matrix(1 0 0 1.00164 532.134 899.545)"/><path d="M1033.46 1347.75 1033.46 1347.75 1030.57 1346.08 1030.57 1342.75 1080.08 1314.18 1080.08 1317.52 1080.08 1320.85Z" fill-rule="evenodd" transform="matrix(1 0 0 1.00164 532.134 899.545)"/><path d="M1080.08 1320.85 1080.08 1320.85 1080.08 1317.52 1080.08 1314.18 1130.98 1343.58 1129.55 1346.08 1128.12 1348.58Z" fill-rule="evenodd" transform="matrix(1 0 0 1.00164 532.134 899.545)"/><text font-family="Arial,Arial_MSFontService,sans-serif" font-weight="700" font-size="10" transform="matrix(3.96723 0 0 3.97373 1310.98 2306)">O</text><path d="M822.764 1367.74 815.186 1376.07" stroke="#000000" stroke-width="5.75248" transform="matrix(1 0 0 1.00164 532.134 899.545)"/><path d="M814.234 1360.01 814.234 1360.01 809.989 1356.16 802.412 1364.49 806.657 1368.38Z" fill-rule="evenodd" transform="matrix(1 0 0 1.00164 532.134 899.545)"/><path d="M824.906 1369.69 824.906 1369.69 820.622 1365.8 813.044 1374.17 817.329 1378.02Z" fill-rule="evenodd" transform="matrix(1 0 0 1.00164 532.134 899.545)"/><text font-family="Arial,Arial_MSFontService,sans-serif" font-weight="700" font-size="10" transform="matrix(3.96723 0 0 3.97373 1383.7 2309)">O</text><path d="M853.193 1361.39 859.659 1370" stroke="#000000" stroke-width="5.75248" transform="matrix(1 0 0 1.00164 532.134 899.545)"/><path d="M844.028 1368.3 844.028 1368.3 839.426 1371.79 845.893 1380.36 850.495 1376.91Z" fill-rule="evenodd" transform="matrix(1 0 0 1.00164 532.134 899.545)"/><path d="M855.494 1359.69 855.494 1359.69 850.892 1363.14 857.358 1371.71 861.96 1368.26Z" fill-rule="evenodd" transform="matrix(1 0 0 1.00164 532.134 899.545)"/></g></g></g></g><path d="M2488.18 2430.66 2487.86 2437.47 2487.81 2437.84 2481 2436.89 2481.03 2436.68 2481 2437 2481.31 2430.34ZM2486.78 2444.94 2485.32 2451.32 2485.13 2451.9 2478.58 2449.82 2478.72 2449.38 2478.65 2449.65 2480.08 2443.4ZM2482.94 2458.69 2480.42 2464.93 2480.24 2465.28 2474.07 2462.26 2474.19 2462.01 2474.09 2462.24 2476.56 2456.12ZM2477.22 2471.46 2477.15 2471.6 2473.68 2477.62 2467.72 2474.19 2471.13 2468.27 2471.02 2468.48 2471.04 2468.43ZM2469.8 2483.55 2469.07 2484.65 2465.61 2489.25 2460.11 2485.13 2463.51 2480.6 2463.39 2480.77 2464.07 2479.75ZM2461.16 2494.74 2459.09 2497.2 2456.48 2500.01 2451.45 2495.32 2454 2492.58 2453.88 2492.72 2455.9 2490.32ZM2451.6 2505.07 2447.38 2509.18 2446.53 2509.94 2441.96 2504.81 2442.75 2504.1 2442.64 2504.21 2446.8 2500.15ZM2441.39 2514.52 2440.93 2514.93 2435.97 2518.98 2431.62 2513.65 2436.53 2509.65 2436.42 2509.74 2436.82 2509.38ZM2430.3 2523.23 2424.72 2527.24 2420.71 2521.65 2426.29 2517.64ZM2418.89 2531.36 2413.01 2534.93 2409.45 2529.05 2415.32 2525.48ZM2407.14 2538.5 2403.47 2540.73 2400.95 2542.02 2397.82 2535.9 2400.22 2534.67 2400.01 2534.79 2403.57 2532.62ZM2394.83 2545.15 2388.71 2548.29 2385.58 2542.17 2391.7 2539.03ZM2382.24 2551.24 2375.92 2553.94 2373.22 2547.61 2379.54 2544.92ZM2369.59 2556.63 2368.42 2557.13 2362.9 2559.04 2360.65 2552.55 2366.05 2550.68 2365.83 2550.76 2366.9 2550.31ZM2356.41 2561.29 2349.91 2563.55 2347.66 2557.05 2354.15 2554.8ZM2343.05 2565.42 2336.41 2567.21 2334.62 2560.58 2341.25 2558.78ZM2329.53 2569.02 2322.78 2570.34 2321.46 2563.59 2328.21 2562.28ZM2316.03 2571.65 2310.31 2572.77 2309.08 2572.94 2308.14 2566.13 2309.28 2565.97 2309.09 2566 2314.71 2564.91ZM2302.27 2573.88 2300.19 2574.17 2295.31 2574.65 2294.63 2567.81 2299.44 2567.33 2299.32 2567.35 2301.33 2567.07ZM2288.33 2575.28 2281.47 2575.7 2281.05 2568.83 2287.92 2568.42ZM2274.46 2575.91 2269.69 2576 2267.59 2576.05 2267.45 2569.17 2269.55 2569.13 2274.32 2569.03ZM2260.71 2576.19 2259.61 2576.21 2259.75 2576.2 2253.99 2576.55 2253.57 2569.69 2259.4 2569.34 2260.57 2569.31ZM2247.27 2577.06 2240.43 2577.74 2239.74 2570.9 2246.58 2570.22ZM2233.74 2578.64 2229.97 2579.16 2230.15 2579.13 2227.15 2579.72 2225.83 2572.97 2228.93 2572.36 2232.8 2571.83ZM2220.4 2581.03 2213.65 2582.35 2212.34 2575.6 2219.08 2574.28ZM2207.2 2583.86 2200.56 2585.65 2198.77 2579.02 2205.41 2577.22ZM2193.93 2587.45 2191.53 2588.09 2191.76 2588.02 2187.61 2589.46 2185.36 2582.97 2189.62 2581.49 2192.13 2580.81ZM2181.11 2591.71 2174.62 2593.96 2172.36 2587.47 2178.86 2585.22ZM2168.48 2596.48 2162.15 2599.17 2159.46 2592.85 2165.78 2590.15ZM2155.83 2601.87 2155.64 2601.95 2155.85 2601.85 2149.92 2604.89 2146.79 2598.77 2152.83 2595.67 2153.13 2595.54ZM2143.8 2608.02 2139.02 2610.47 2139.24 2610.34 2137.95 2611.13 2134.38 2605.25 2135.78 2604.4 2140.67 2601.9ZM2132.08 2614.7 2126.2 2618.26 2122.63 2612.39 2128.51 2608.82ZM2120.7 2621.93 2115.12 2625.94 2111.11 2620.35 2116.69 2616.34ZM2109.53 2629.95 2109.26 2630.14 2109.43 2630.01 2104.36 2634.15 2100.02 2628.82 2105.17 2624.62 2105.52 2624.36ZM2099.28 2638.55 2096.49 2641.03 2096.61 2640.93 2094.36 2643.12 2089.56 2638.2 2091.86 2635.95 2094.71 2633.42ZM2089.61 2647.86 2085.25 2652.55 2085.36 2652.42 2085.06 2652.78 2079.79 2648.36 2080.15 2647.93 2084.58 2643.18ZM2080.64 2658.04 2080.26 2658.49 2080.38 2658.34 2076.6 2663.37 2071.11 2659.25 2074.94 2654.14 2075.37 2653.62ZM2072.85 2668.89 2071.68 2670.66 2072.02 2670 2070.31 2674.43 2063.9 2671.96 2065.74 2667.17 2067.12 2665.09ZM2080.85 2674.69 2054.5 2714.63 2054.51 2666.78Z" fill="#262626"/><path d="M2343.14 2289.91C2338.33 2284.94 2338.46 2277.02 2343.43 2272.21L2381.02 2235.81C2385.99 2231 2393.92 2231.13 2398.73 2236.1L2398.73 2236.1C2403.54 2241.07 2403.41 2249 2398.44 2253.81L2360.84 2290.2C2355.88 2295.01 2347.95 2294.88 2343.14 2289.91Z" fill="#FC8484" fill-rule="evenodd"/><path d="M2383.79 2230.76C2389.21 2226.47 2397.08 2227.38 2401.38 2232.8L2433.87 2273.81C2438.17 2279.23 2437.26 2287.1 2431.84 2291.4L2431.84 2291.4C2426.42 2295.69 2418.54 2294.78 2414.25 2289.36L2381.75 2248.35C2377.45 2242.93 2378.37 2235.06 2383.79 2230.76Z" fill="#FC8484" fill-rule="evenodd"/><path d="M2384.28 2242.76C2380.89 2236.73 2383.02 2229.1 2389.05 2225.71L2434.64 2200.03C2440.66 2196.64 2448.3 2198.78 2451.69 2204.8L2451.69 2204.8C2455.08 2210.83 2452.95 2218.46 2446.93 2221.85L2401.33 2247.53C2395.31 2250.92 2387.67 2248.78 2384.28 2242.76Z" fill="#FC8484" fill-rule="evenodd"/><path d="M2333.05 2204.14C2336.57 2198.19 2344.25 2196.22 2350.2 2199.73L2395.25 2226.35C2401.2 2229.87 2403.18 2237.55 2399.66 2243.5L2399.66 2243.5C2396.14 2249.46 2388.46 2251.43 2382.51 2247.91L2337.46 2221.29C2331.51 2217.77 2329.54 2210.1 2333.05 2204.14Z" fill="#FC8484" fill-rule="evenodd"/><path d="M2283.68 2242.88C2280.29 2236.85 2282.42 2229.22 2288.45 2225.82L2334.04 2200.15C2340.07 2196.76 2347.7 2198.89 2351.09 2204.92L2351.09 2204.92C2354.49 2210.94 2352.35 2218.58 2346.33 2221.97L2300.73 2247.64C2294.71 2251.04 2287.07 2248.9 2283.68 2242.88Z" fill="#FC8484" fill-rule="evenodd"/><path d="M2341.5 2220C2334.6 2220 2329 2214.4 2329 2207.5L2329 2155.5C2329 2148.6 2334.6 2143 2341.5 2143L2341.5 2143C2348.4 2143 2354 2148.6 2354 2155.5L2354 2207.5C2354 2214.4 2348.4 2220 2341.5 2220Z" fill="#FC8484" fill-rule="evenodd"/><path d="M2280.96 2118.67C2284.48 2112.71 2292.16 2110.74 2298.11 2114.26L2343.16 2140.88C2349.11 2144.39 2351.08 2152.07 2347.57 2158.02L2347.57 2158.02C2344.05 2163.98 2336.37 2165.95 2330.42 2162.43L2285.37 2135.81C2279.42 2132.3 2277.44 2124.62 2280.96 2118.67Z" fill="#FC8484" fill-rule="evenodd"/><path d="M2233.46 2203.53C2236.97 2197.58 2244.65 2195.6 2250.61 2199.12L2295.65 2225.74C2301.61 2229.26 2303.58 2236.94 2300.06 2242.89L2300.06 2242.89C2296.54 2248.84 2288.87 2250.82 2282.91 2247.3L2237.87 2220.68C2231.91 2217.16 2229.94 2209.48 2233.46 2203.53Z" fill="#FC8484" fill-rule="evenodd"/><path d="M2228.48 2159.5C2225.08 2153.48 2227.22 2145.84 2233.24 2142.45L2278.84 2116.78C2284.86 2113.39 2292.5 2115.52 2295.89 2121.55L2295.89 2121.55C2299.28 2127.57 2297.15 2135.21 2291.12 2138.6L2245.53 2164.27C2239.5 2167.66 2231.87 2165.53 2228.48 2159.5Z" fill="#FC8484" fill-rule="evenodd"/><path d="M2187.92 2218.81C2194.53 2220.83 2198.25 2227.83 2196.23 2234.45L2180.93 2284.48C2178.91 2291.1 2171.91 2294.82 2165.3 2292.8L2165.3 2292.8C2158.69 2290.77 2154.97 2283.77 2156.99 2277.16L2172.29 2227.12C2174.31 2220.51 2181.31 2216.79 2187.92 2218.81Z" fill="#FC8484" fill-rule="evenodd"/><path d="M2175.2 2232.85C2173.02 2226.28 2176.58 2219.2 2183.14 2217.02L2232.8 2200.55C2239.37 2198.37 2246.45 2201.92 2248.63 2208.49L2248.63 2208.49C2250.81 2215.05 2247.25 2222.14 2240.69 2224.31L2191.02 2240.79C2184.46 2242.97 2177.38 2239.41 2175.2 2232.85Z" fill="#FC8484" fill-rule="evenodd"/><path d="M2242.5 2220C2235.6 2220 2230 2214.4 2230 2207.5L2230 2155.5C2230 2148.6 2235.6 2143 2242.5 2143L2242.5 2143C2249.4 2143 2255 2148.6 2255 2155.5L2255 2207.5C2255 2214.4 2249.4 2220 2242.5 2220Z" fill="#FC8484" fill-rule="evenodd"/><path d="M2080 2179.5C2080 2172.6 2085.6 2167 2092.5 2167L2144.5 2167C2151.4 2167 2157 2172.6 2157 2179.5L2157 2179.5C2157 2186.4 2151.4 2192 2144.5 2192L2092.5 2192C2085.6 2192 2080 2186.4 2080 2179.5Z" fill="#FC8484" fill-rule="evenodd"/><path d="M2165.74 2072.46C2172.32 2070.32 2179.38 2073.92 2181.52 2080.5L2197.69 2130.26C2199.82 2136.84 2196.22 2143.9 2189.65 2146.04L2189.65 2146.04C2183.07 2148.18 2176.01 2144.58 2173.87 2138L2157.7 2088.24C2155.56 2081.66 2159.16 2074.6 2165.74 2072.46Z" fill="#FC8484" fill-rule="evenodd"/><path d="M2143.78 2175.87C2149.38 2171.8 2157.21 2173.04 2161.27 2178.64L2192.03 2220.97C2196.09 2226.56 2194.85 2234.39 2189.26 2238.46L2189.26 2238.46C2183.66 2242.52 2175.83 2241.28 2171.77 2235.69L2141.01 2193.36C2136.95 2187.76 2138.19 2179.93 2143.78 2175.87Z" fill="#FC8484" fill-rule="evenodd"/><path d="M2139.44 2190.56C2134.15 2186.12 2133.45 2178.22 2137.9 2172.92L2171.5 2132.88C2175.94 2127.58 2183.84 2126.89 2189.14 2131.34L2189.14 2131.34C2194.44 2135.78 2195.13 2143.68 2190.68 2148.98L2157.08 2189.02C2152.64 2194.32 2144.74 2195.01 2139.44 2190.56Z" fill="#FC8484" fill-rule="evenodd"/><path d="M2180.92 2135.36C2183.06 2128.78 2190.12 2125.18 2196.7 2127.32L2241.18 2141.77C2247.76 2143.91 2251.36 2150.97 2249.22 2157.55L2249.22 2157.55C2247.08 2164.13 2240.02 2167.73 2233.44 2165.59L2188.96 2151.14C2182.38 2149 2178.78 2141.94 2180.92 2135.36Z" fill="#FC8484" fill-rule="evenodd"/><g clip-path="url(#clip0)"><g clip-path="url(#clip1)"><g clip-path="url(#clip2)"><g><path d="M685.908 1270.82 685.908 1270.82 688.784 1268.71 691.699 1270.38 691.699 1324.53 688.784 1326.21 685.908 1324.1Z" fill-rule="evenodd" transform="matrix(1.00485 0 0 1 1548.23 883.775)"/><path d="M688.464 1329.37 688.464 1329.37 688.784 1326.21 691.699 1324.53 738.581 1351.61 738.581 1354.96 738.581 1358.32Z" fill-rule="evenodd" transform="matrix(1.00485 0 0 1 1548.23 883.775)"/><path d="M703.28 1317.87 738.581 1338.23" stroke="#000000" stroke-width="5.79045" transform="matrix(1.00485 0 0 1 1548.23 883.775)"/><path d="M738.581 1358.32 738.581 1358.32 738.581 1354.96 738.581 1351.61 785.504 1324.53 788.379 1326.21 788.379 1329.57Z" fill-rule="evenodd" transform="matrix(1.00485 0 0 1 1548.23 883.775)"/><path d="M791.294 1324.53 791.294 1324.53 788.379 1326.21 785.504 1324.53 785.504 1270.38 788.379 1268.71 791.255 1267.03Z" fill-rule="evenodd" transform="matrix(1.00485 0 0 1 1548.23 883.775)"/><path d="M773.923 1317.87 773.923 1277.05" stroke="#000000" stroke-width="5.79045" fill="none" transform="matrix(1.00485 0 0 1 1548.23 883.775)"/><path d="M791.255 1267.03 791.255 1267.03 788.379 1268.71 785.504 1270.38 738.581 1243.31 738.581 1239.95 738.581 1236.6Z" fill-rule="evenodd" transform="matrix(1.00485 0 0 1 1548.23 883.775)"/><path d="M738.581 1236.6 738.581 1236.6 738.581 1239.95 738.581 1243.31 691.699 1270.38 688.784 1268.71 688.464 1265.55Z" fill-rule="evenodd" transform="matrix(1.00485 0 0 1 1548.23 883.775)"/><path d="M738.581 1256.69 703.28 1277.05" stroke="#000000" stroke-width="5.79045" transform="matrix(1.00485 0 0 1 1548.23 883.775)"/><text font-family="Arial,Arial_MSFontService,sans-serif" font-weight="700" font-size="10" transform="matrix(4.01279 0 0 3.99341 2170.94 2150)">N</text><text font-family="Arial,Arial_MSFontService,sans-serif" font-weight="700" font-size="10" transform="matrix(4.01279 0 0 3.99341 2170.94 2243)">N</text><path d="M688.464 1265.55 688.464 1265.55 688.784 1268.71 685.908 1270.82 650.487 1259.32 651.365 1256.57 652.284 1253.81Z" fill-rule="evenodd" transform="matrix(1.00485 0 0 1 1548.23 883.775)"/><path d="M616.902 1269.67 616.902 1269.67 619.258 1271.34 621.574 1273.06 603.884 1297.46 600.29 1297.46 596.695 1297.46Z" fill-rule="evenodd" transform="matrix(1.00485 0 0 1 1548.23 883.775)"/><path d="M596.695 1297.46 596.695 1297.46 600.29 1297.46 603.884 1297.46 623.531 1324.57 621.215 1326.25 618.859 1327.97Z" fill-rule="evenodd" transform="matrix(1.00485 0 0 1 1548.23 883.775)"/><path d="M652.284 1341.11 652.284 1341.11 651.365 1338.35 650.487 1335.6 685.908 1324.1 688.784 1326.21 688.464 1329.37Z" fill-rule="evenodd" transform="matrix(1.00485 0 0 1 1548.23 883.775)"/><text font-family="Arial,Arial_MSFontService,sans-serif" font-weight="700" font-size="10" transform="matrix(4.01279 0 0 3.99341 2078 2197)">O</text><path d="M600.29 1304.69 563.031 1304.69" stroke="#000000" stroke-width="5.79045" fill="none" transform="matrix(1.00485 0 0 1 1548.23 883.775)"/><path d="M599.85 1293.11 599.85 1293.11 604.083 1287.32 563.031 1287.32 563.031 1293.11Z" fill-rule="evenodd" transform="matrix(1.00485 0 0 1 1548.23 883.775)"/><path d="M604.083 1307.6 604.083 1307.6 599.85 1301.81 563.031 1301.81 563.031 1307.6Z" fill-rule="evenodd" transform="matrix(1.00485 0 0 1 1548.23 883.775)"/><path d="M630.799 1231.41 630.799 1231.41 628.044 1232.33 625.288 1233.21 613.548 1197.1 616.303 1196.23 619.059 1195.35Z" fill-rule="evenodd" transform="matrix(1.00485 0 0 1 1548.23 883.775)"/><path d="M624.25 1364.91 624.25 1364.91 627.005 1365.79 629.761 1366.71 619.059 1399.57 616.303 1398.69 613.548 1397.81Z" fill-rule="evenodd" transform="matrix(1.00485 0 0 1 1548.23 883.775)"/><text font-family="Arial,Arial_MSFontService,sans-serif" font-weight="700" font-size="10" transform="matrix(4.01279 0 0 3.99341 2377.15 2254)">S</text><path d="M788.379 1329.57 788.379 1329.57 788.379 1326.21 791.294 1324.53 823.401 1343.06 821.924 1345.58 820.486 1348.1Z" fill-rule="evenodd" transform="matrix(1.00485 0 0 1 1548.23 883.775)"/><text font-family="Arial,Arial_MSFontService,sans-serif" font-weight="700" font-size="10" transform="matrix(4.01279 0 0 3.99341 2426.07 2193)">H</text><text font-family="Arial,Arial_MSFontService,sans-serif" font-weight="700" font-size="10" transform="matrix(4.01279 0 0 3.99341 2426.07 2233)">N</text><path d="M855.948 1348.06 855.948 1348.06 854.51 1345.54 853.033 1343.02 869.605 1333.48 871.043 1336 872.52 1338.47Z" fill-rule="evenodd" transform="matrix(1.00485 0 0 1 1548.23 883.775)"/><path d="M903.35 1338.43 903.35 1338.43 904.827 1335.92 906.265 1333.44 939.21 1352.45 937.773 1354.96 936.335 1357.48Z" fill-rule="evenodd" transform="matrix(1.00485 0 0 1 1548.23 883.775)"/><text font-family="Arial,Arial_MSFontService,sans-serif" font-weight="700" font-size="10" transform="matrix(4.01279 0 0 3.99341 2336.02 2297)">O</text><path d="M828.194 1376.77 820.566 1385.15" stroke="#000000" stroke-width="5.79045" transform="matrix(1.00485 0 0 1 1548.23 883.775)"/><path d="M819.608 1368.98 819.608 1368.98 815.335 1365.11 807.707 1373.49 811.98 1377.41Z" fill-rule="evenodd" transform="matrix(1.00485 0 0 1 1548.23 883.775)"/><path d="M830.35 1378.73 830.35 1378.73 826.037 1374.81 818.41 1383.24 822.723 1387.11Z" fill-rule="evenodd" transform="matrix(1.00485 0 0 1 1548.23 883.775)"/><text font-family="Arial,Arial_MSFontService,sans-serif" font-weight="700" font-size="10" transform="matrix(4.01279 0 0 3.99341 2409.58 2300)">O</text><path d="M858.823 1370.38 865.332 1379.04" stroke="#000000" stroke-width="5.79045" transform="matrix(1.00485 0 0 1 1548.23 883.775)"/><path d="M849.598 1377.33 849.598 1377.33 844.966 1380.84 851.475 1389.47 856.108 1385.99Z" fill-rule="evenodd" transform="matrix(1.00485 0 0 1 1548.23 883.775)"/><path d="M861.139 1368.66 861.139 1368.66 856.507 1372.14 863.016 1380.76 867.648 1377.29Z" fill-rule="evenodd" transform="matrix(1.00485 0 0 1 1548.23 883.775)"/></g></g></g></g><text font-family="Helvetica,Helvetica_MSFontService,sans-serif" font-weight="400" font-size="83" transform="matrix(1 0 0 1 2490.11 2294)">*</text><path d="M2691.5 2111C2698.4 2111 2704 2116.6 2704 2123.5L2704 2175.5C2704 2182.4 2698.4 2188 2691.5 2188L2691.5 2188C2684.6 2188 2679 2182.4 2679 2175.5L2679 2123.5C2679 2116.6 2684.6 2111 2691.5 2111Z" fill="#83CBEB" fill-rule="evenodd"/><path d="M2683.26 2303.31C2679.73 2297.36 2681.69 2289.68 2687.64 2286.15L2732.64 2259.45C2738.59 2255.93 2746.27 2257.89 2749.8 2263.83L2749.8 2263.83C2753.32 2269.78 2751.36 2277.46 2745.42 2280.99L2700.41 2307.69C2694.47 2311.21 2686.78 2309.25 2683.26 2303.31Z" fill="#83CBEB" fill-rule="evenodd"/><path d="M2632.46 2217.35C2628.93 2211.4 2630.89 2203.72 2636.84 2200.19L2681.84 2173.49C2687.79 2169.97 2695.47 2171.93 2699 2177.87L2699 2177.88C2702.53 2183.82 2700.56 2191.5 2694.62 2195.03L2649.61 2221.73C2643.67 2225.25 2635.99 2223.29 2632.46 2217.35Z" fill="#83CBEB" fill-rule="evenodd"/><path d="M2640.5 2203C2647.4 2203 2653 2208.6 2653 2215.5L2653 2263.5C2653 2270.4 2647.4 2276 2640.5 2276L2640.5 2276C2633.6 2276 2628 2270.4 2628 2263.5L2628 2215.5C2628 2208.6 2633.6 2203 2640.5 2203Z" fill="#83CBEB" fill-rule="evenodd"/><path d="M2741.5 2201C2748.4 2201 2754 2206.6 2754 2213.5L2754 2266.5C2754 2273.4 2748.4 2279 2741.5 2279L2741.5 2279C2734.6 2279 2729 2273.4 2729 2266.5L2729 2213.5C2729 2206.6 2734.6 2201 2741.5 2201Z" fill="#83CBEB" fill-rule="evenodd"/><path d="M2631.78 2263.12C2635.3 2257.17 2642.97 2255.19 2648.93 2258.71L2693.98 2285.33C2699.93 2288.85 2701.9 2296.53 2698.39 2302.48L2698.38 2302.48C2694.87 2308.43 2687.19 2310.41 2681.24 2306.89L2636.19 2280.27C2630.24 2276.75 2628.26 2269.08 2631.78 2263.12Z" fill="#83CBEB" fill-rule="evenodd"/><path d="M2681.43 2178.02C2684.94 2172.06 2692.62 2170.09 2698.58 2173.61L2743.62 2200.23C2749.58 2203.75 2751.55 2211.42 2748.03 2217.38L2748.03 2217.38C2744.51 2223.33 2736.84 2225.3 2730.88 2221.79L2685.84 2195.17C2679.88 2191.65 2677.91 2183.97 2681.43 2178.02Z" fill="#83CBEB" fill-rule="evenodd"/><g clip-path="url(#clip3)"><g clip-path="url(#clip4)"><g clip-path="url(#clip5)"><g><path d="M913.089 1368.52 913.089 1368.52 914.569 1365.93 916.05 1363.34 965.859 1392.09 965.859 1395.54 962.897 1397.27Z" fill-rule="evenodd" transform="matrix(1 0 0 1.00116 1675.24 814.438)"/><path d="M962.897 1397.27 962.897 1397.27 965.859 1395.54 968.861 1397.27 968.861 1453.04 965.859 1454.77 962.856 1456.5Z" fill-rule="evenodd" transform="matrix(1 0 0 1.00116 1675.24 814.438)"/><path d="M980.789 1404.14 980.789 1446.18" stroke="#000000" stroke-width="5.96387" fill="none" transform="matrix(1 0 0 1.00116 1675.24 814.438)"/><path d="M962.856 1456.5 962.856 1456.5 965.859 1454.77 968.861 1453.04 1017.15 1480.93 1017.15 1484.39 1017.15 1487.84Z" fill-rule="evenodd" transform="matrix(1 0 0 1.00116 1675.24 814.438)"/><path d="M1017.15 1487.84 1017.15 1487.84 1017.15 1484.39 1017.15 1480.93 1065.48 1453.04 1068.44 1454.77 1071.4 1456.5Z" fill-rule="evenodd" transform="matrix(1 0 0 1.00116 1675.24 814.438)"/><path d="M1017.15 1467.15 1053.55 1446.18" stroke="#000000" stroke-width="5.96387" transform="matrix(1 0 0 1.00116 1675.24 814.438)"/><path d="M1071.4 1456.5 1071.4 1456.5 1068.44 1454.77 1065.48 1453.04 1065.48 1397.27 1068.44 1395.54 1071.4 1393.82Z" fill-rule="evenodd" transform="matrix(1 0 0 1.00116 1675.24 814.438)"/><path d="M1071.4 1393.82 1071.4 1393.82 1068.44 1395.54 1065.48 1397.27 1017.15 1369.39 1017.15 1365.93 1020.15 1364.2Z" fill-rule="evenodd" transform="matrix(1 0 0 1.00116 1675.24 814.438)"/><path d="M1053.55 1404.14 1017.15 1383.16" stroke="#000000" stroke-width="5.96387" transform="matrix(1 0 0 1.00116 1675.24 814.438)"/><path d="M1014.19 1364.2 1014.19 1364.2 1017.15 1365.93 1017.15 1369.39 968.861 1397.27 965.859 1395.54 965.859 1392.09Z" fill-rule="evenodd" transform="matrix(1 0 0 1.00116 1675.24 814.438)"/><text font-family="Arial,Arial_MSFontService,sans-serif" font-weight="700" font-size="10" transform="matrix(4.11301 0 0 4.11777 2676.34 2139)">OH</text><path d="M1020.15 1364.2 1020.15 1364.2 1017.15 1365.93 1014.19 1364.2 1014.19 1330.11 1017.15 1330.11 1020.15 1330.11Z" fill-rule="evenodd" transform="matrix(1 0 0 1.00116 1675.24 814.438)"/></g></g></g></g><text font-family="Helvetica,Helvetica_MSFontService,sans-serif" font-weight="400" font-size="83" transform="matrix(1 0 0 1 2559.5 2217)">*</text><text font-family="Lato Black,Lato Black_MSFontService,sans-serif" font-weight="900" font-size="55" transform="matrix(1 0 0 1 2043.38 2401)">Specify Modification Sites Manually</text><text fill="#016EAB" font-family="Open Sans ExtraBold,Open Sans ExtraBold_MSFontService,sans-serif" font-weight="800" font-size="60" transform="matrix(1 0 0 1 359.903 2687)">Step1</text><text fill="#016EAB" font-family="Open Sans ExtraBold,Open Sans ExtraBold_MSFontService,sans-serif" font-weight="800" font-size="60" transform="matrix(1 0 0 1 1771.64 2687)">Step2</text><path d="M2942.26 2812.51C2945.72 2806.52 2953.38 2804.47 2959.36 2807.93L3005.1 2834.33C3011.09 2837.79 3013.14 2845.45 3009.68 2851.44L3009.68 2851.44C3006.22 2857.42 2998.57 2859.48 2992.58 2856.02L2946.84 2829.61C2940.85 2826.16 2938.8 2818.5 2942.26 2812.51Z" fill="#B4E5A2" fill-rule="evenodd"/><path d="M2899.23 2848.9C2895.6 2843.01 2897.44 2835.29 2903.33 2831.67L2941.84 2807.97C2947.73 2804.34 2955.44 2806.18 2959.07 2812.07L2959.07 2812.07C2962.69 2817.96 2960.86 2825.67 2954.97 2829.29L2916.45 2853C2910.57 2856.62 2902.85 2854.78 2899.23 2848.9Z" fill="#B4E5A2" fill-rule="evenodd"/><path d="M2853.16 2934.96C2849.54 2929.07 2851.37 2921.36 2857.26 2917.74L2895.78 2894.03C2901.67 2890.41 2909.38 2892.24 2913 2898.13L2913 2898.13C2916.63 2904.02 2914.79 2911.74 2908.9 2915.36L2870.39 2939.06C2864.5 2942.69 2856.79 2940.85 2853.16 2934.96Z" fill="#B4E5A2" fill-rule="evenodd"/><path d="M2747.8 2812.96C2751.32 2807.01 2759 2805.03 2764.95 2808.55L2810 2835.17C2815.95 2838.69 2817.93 2846.36 2814.41 2852.32L2814.41 2852.32C2810.89 2858.27 2803.21 2860.24 2797.26 2856.73L2752.21 2830.11C2746.26 2826.59 2744.29 2818.91 2747.8 2812.96Z" fill="#FC8484" fill-rule="evenodd"/><path d="M2801.91 2848.9C2798.28 2843.01 2800.12 2835.29 2806.01 2831.67L2844.52 2807.97C2850.41 2804.34 2858.12 2806.18 2861.75 2812.07L2861.75 2812.07C2865.37 2817.96 2863.54 2825.67 2857.65 2829.29L2819.13 2853C2813.24 2856.62 2805.53 2854.78 2801.91 2848.9Z" fill="#B4E5A2" fill-rule="evenodd"/><path d="M2843.99 2810.95C2847.45 2804.96 2855.11 2802.91 2861.1 2806.37L2906.83 2832.77C2912.82 2836.23 2914.87 2843.89 2911.41 2849.87L2911.41 2849.87C2907.96 2855.86 2900.3 2857.91 2894.31 2854.46L2848.58 2828.05C2842.59 2824.59 2840.53 2816.94 2843.99 2810.95Z" fill="#B4E5A2" fill-rule="evenodd"/><path d="M2796.93 2898.61C2800.39 2892.63 2808.04 2890.57 2814.03 2894.03L2859.77 2920.44C2865.76 2923.89 2867.81 2931.55 2864.35 2937.54L2864.35 2937.54C2860.89 2943.53 2853.24 2945.58 2847.25 2942.12L2801.51 2915.72C2795.52 2912.26 2793.47 2904.6 2796.93 2898.61Z" fill="#B4E5A2" fill-rule="evenodd"/><path d="M2902.5 2837C2909.4 2837 2915 2842.6 2915 2849.5L2915 2902.5C2915 2909.4 2909.4 2915 2902.5 2915L2902.5 2915C2895.6 2915 2890 2909.4 2890 2902.5L2890 2849.5C2890 2842.6 2895.6 2837 2902.5 2837Z" fill="#B4E5A2" fill-rule="evenodd"/><path d="M2808.5 2832C2815.4 2832 2821 2837.6 2821 2844.5L2821 2902.5C2821 2909.4 2815.4 2915 2808.5 2915L2808.5 2915C2801.6 2915 2796 2909.4 2796 2902.5L2796 2844.5C2796 2837.6 2801.6 2832 2808.5 2832Z" fill="#B4E5A2" fill-rule="evenodd"/><path d="M2656.63 2899.26C2651.82 2894.29 2651.95 2886.37 2656.92 2881.56L2694.51 2845.17C2699.48 2840.36 2707.41 2840.48 2712.22 2845.45L2712.22 2845.45C2717.03 2850.42 2716.9 2858.35 2711.93 2863.16L2674.33 2899.55C2669.37 2904.36 2661.44 2904.23 2656.63 2899.26Z" fill="#FC8484" fill-rule="evenodd"/><path d="M2699.85 2840.97C2705.27 2836.68 2713.15 2837.59 2717.44 2843.01L2749.94 2884.02C2754.24 2889.44 2753.33 2897.31 2747.91 2901.61L2747.91 2901.61C2742.49 2905.9 2734.61 2904.99 2730.32 2899.57L2697.82 2858.56C2693.52 2853.14 2694.44 2845.27 2699.85 2840.97Z" fill="#FC8484" fill-rule="evenodd"/><path d="M2700.35 2852.97C2696.95 2846.95 2699.09 2839.31 2705.11 2835.92L2750.71 2810.25C2756.73 2806.85 2764.37 2808.99 2767.76 2815.01L2767.76 2815.01C2771.15 2821.04 2769.02 2828.67 2762.99 2832.07L2717.4 2857.74C2711.38 2861.13 2703.74 2859 2700.35 2852.97Z" fill="#FC8484" fill-rule="evenodd"/><path d="M2649.12 2814.35C2652.64 2808.4 2660.32 2806.43 2666.27 2809.95L2711.32 2836.56C2717.27 2840.08 2719.25 2847.76 2715.73 2853.71L2715.73 2853.71C2712.21 2859.67 2704.53 2861.64 2698.58 2858.12L2653.53 2831.5C2647.58 2827.99 2645.6 2820.31 2649.12 2814.35Z" fill="#FC8484" fill-rule="evenodd"/><path d="M2599.75 2853.09C2596.36 2847.06 2598.49 2839.43 2604.52 2836.04L2650.11 2810.36C2656.14 2806.97 2663.77 2809.11 2667.16 2815.13L2667.16 2815.13C2670.56 2821.16 2668.42 2828.79 2662.4 2832.18L2616.8 2857.86C2610.78 2861.25 2603.14 2859.11 2599.75 2853.09Z" fill="#FC8484" fill-rule="evenodd"/><path d="M2657.5 2830C2650.6 2830 2645 2824.4 2645 2817.5L2645 2765.5C2645 2758.6 2650.6 2753 2657.5 2753L2657.5 2753C2664.4 2753 2670 2758.6 2670 2765.5L2670 2817.5C2670 2824.4 2664.4 2830 2657.5 2830Z" fill="#FC8484" fill-rule="evenodd"/><path d="M2597.03 2728.88C2600.55 2722.92 2608.23 2720.95 2614.18 2724.47L2659.23 2751.09C2665.18 2754.61 2667.15 2762.28 2663.64 2768.24L2663.64 2768.24C2660.12 2774.19 2652.44 2776.16 2646.49 2772.65L2601.44 2746.03C2595.49 2742.51 2593.51 2734.83 2597.03 2728.88Z" fill="#FC8484" fill-rule="evenodd"/><path d="M2549.53 2813.74C2553.04 2807.79 2560.72 2805.82 2566.67 2809.33L2611.72 2835.95C2617.68 2839.47 2619.65 2847.15 2616.13 2853.1L2616.13 2853.1C2612.61 2859.05 2604.94 2861.03 2598.98 2857.51L2553.94 2830.89C2547.98 2827.37 2546.01 2819.7 2549.53 2813.74Z" fill="#FC8484" fill-rule="evenodd"/><path d="M2544.54 2769.72C2541.15 2763.69 2543.29 2756.06 2549.31 2752.66L2594.91 2726.99C2600.93 2723.6 2608.57 2725.73 2611.96 2731.76L2611.96 2731.76C2615.35 2737.78 2613.22 2745.42 2607.19 2748.81L2561.6 2774.48C2555.57 2777.88 2547.94 2775.74 2544.54 2769.72Z" fill="#FC8484" fill-rule="evenodd"/><path d="M2503.99 2829.02C2510.6 2831.04 2514.32 2838.04 2512.3 2844.66L2497 2894.7C2494.98 2901.31 2487.98 2905.03 2481.37 2903.01L2481.37 2903.01C2474.76 2900.99 2471.03 2893.99 2473.06 2887.37L2488.35 2837.34C2490.38 2830.72 2497.38 2827 2503.99 2829.02Z" fill="#FC8484" fill-rule="evenodd"/><path d="M2491.27 2843.06C2489.09 2836.49 2492.64 2829.41 2499.21 2827.23L2548.87 2810.76C2555.43 2808.58 2562.52 2812.14 2564.7 2818.7L2564.7 2818.7C2566.87 2825.26 2563.32 2832.35 2556.76 2834.52L2507.09 2851C2500.53 2853.18 2493.44 2849.62 2491.27 2843.06Z" fill="#FC8484" fill-rule="evenodd"/><path d="M2558.5 2830C2551.6 2830 2546 2824.4 2546 2817.5L2546 2765.5C2546 2758.6 2551.6 2753 2558.5 2753L2558.5 2753C2565.4 2753 2571 2758.6 2571 2765.5L2571 2817.5C2571 2824.4 2565.4 2830 2558.5 2830Z" fill="#FC8484" fill-rule="evenodd"/><path d="M2396 2789.5C2396 2782.6 2401.6 2777 2408.5 2777L2460.5 2777C2467.4 2777 2473 2782.6 2473 2789.5L2473 2789.5C2473 2796.4 2467.4 2802 2460.5 2802L2408.5 2802C2401.6 2802 2396 2796.4 2396 2789.5Z" fill="#FC8484" fill-rule="evenodd"/><path d="M2481.83 2680.54C2488.41 2678.4 2495.47 2682 2497.61 2688.57L2513.78 2738.34C2515.92 2744.91 2512.32 2751.98 2505.74 2754.11L2505.74 2754.11C2499.16 2756.25 2492.1 2752.65 2489.96 2746.08L2473.79 2696.31C2471.66 2689.74 2475.26 2682.67 2481.83 2680.54Z" fill="#FC8484" fill-rule="evenodd"/><path d="M2459.88 2783.94C2465.47 2779.88 2473.3 2781.12 2477.36 2786.71L2508.12 2829.04C2512.18 2834.64 2510.94 2842.47 2505.35 2846.53L2505.35 2846.53C2499.75 2850.6 2491.93 2849.36 2487.86 2843.76L2457.1 2801.43C2453.04 2795.84 2454.28 2788.01 2459.88 2783.94Z" fill="#FC8484" fill-rule="evenodd"/><path d="M2455.54 2798.64C2450.24 2794.19 2449.55 2786.29 2453.99 2781L2487.59 2740.95C2492.04 2735.66 2499.93 2734.97 2505.23 2739.41L2505.23 2739.41C2510.53 2743.86 2511.22 2751.75 2506.77 2757.05L2473.17 2797.09C2468.73 2802.39 2460.83 2803.08 2455.54 2798.64Z" fill="#FC8484" fill-rule="evenodd"/><path d="M2497.01 2743.43C2499.15 2736.86 2506.21 2733.26 2512.79 2735.39L2557.27 2749.85C2563.85 2751.98 2567.45 2759.05 2565.31 2765.62L2565.31 2765.62C2563.18 2772.2 2556.11 2775.8 2549.54 2773.66L2505.05 2759.21C2498.48 2757.07 2494.88 2750.01 2497.01 2743.43Z" fill="#FC8484" fill-rule="evenodd"/><g><g><g><g><path d="M679.774 1259.46 679.774 1259.46 682.623 1257.36 685.513 1259.02 685.513 1312.69 682.623 1314.35 679.774 1312.25Z" fill-rule="evenodd" transform="matrix(1.00077 0 0 1 1874.99 1503.34)"/><path d="M682.307 1317.48 682.307 1317.48 682.623 1314.35 685.513 1312.69 731.976 1339.52 731.976 1342.85 731.976 1346.17Z" fill-rule="evenodd" transform="matrix(1.00077 0 0 1 1874.99 1503.34)"/><path d="M696.99 1306.08 731.976 1326.26" stroke="#000000" stroke-width="5.73866" transform="matrix(1.00077 0 0 1 1874.99 1503.34)"/><path d="M731.976 1346.17 731.976 1346.17 731.976 1342.85 731.976 1339.52 778.479 1312.69 781.328 1314.35 781.328 1317.68Z" fill-rule="evenodd" transform="matrix(1.00077 0 0 1 1874.99 1503.34)"/><path d="M784.217 1312.69 784.217 1312.69 781.328 1314.35 778.479 1312.69 778.479 1259.02 781.328 1257.36 784.178 1255.7Z" fill-rule="evenodd" transform="matrix(1.00077 0 0 1 1874.99 1503.34)"/><path d="M767.001 1306.08 767.001 1265.63" stroke="#000000" stroke-width="5.73866" fill="none" transform="matrix(1.00077 0 0 1 1874.99 1503.34)"/><path d="M784.178 1255.7 784.178 1255.7 781.328 1257.36 778.479 1259.02 731.976 1232.19 731.976 1228.86 731.976 1225.54Z" fill-rule="evenodd" transform="matrix(1.00077 0 0 1 1874.99 1503.34)"/><path d="M731.976 1225.54 731.976 1225.54 731.976 1228.86 731.976 1232.19 685.513 1259.02 682.623 1257.36 682.307 1254.23Z" fill-rule="evenodd" transform="matrix(1.00077 0 0 1 1874.99 1503.34)"/><path d="M731.976 1245.45 696.99 1265.63" stroke="#000000" stroke-width="5.73866" transform="matrix(1.00077 0 0 1 1874.99 1503.34)"/><text font-family="Arial,Arial_MSFontService,sans-serif" font-weight="700" font-size="10" transform="matrix(3.96074 0 0 3.9577 2489.62 2759)">N</text><text font-family="Arial,Arial_MSFontService,sans-serif" font-weight="700" font-size="10" transform="matrix(3.96074 0 0 3.9577 2489.62 2851)">N</text><path d="M682.307 1254.23 682.307 1254.23 682.623 1257.36 679.774 1259.46 644.669 1248.06 645.54 1245.33 646.45 1242.6Z" fill-rule="evenodd" transform="matrix(1.00077 0 0 1 1874.99 1503.34)"/><path d="M611.385 1258.31 611.385 1258.31 613.72 1259.97 616.015 1261.67 598.483 1285.86 594.921 1285.86 591.359 1285.86Z" fill-rule="evenodd" transform="matrix(1.00077 0 0 1 1874.99 1503.34)"/><path d="M591.359 1285.86 591.359 1285.86 594.921 1285.86 598.483 1285.86 617.955 1312.73 615.659 1314.39 613.324 1316.09Z" fill-rule="evenodd" transform="matrix(1.00077 0 0 1 1874.99 1503.34)"/><path d="M646.45 1329.11 646.45 1329.11 645.54 1326.38 644.669 1323.65 679.774 1312.25 682.623 1314.35 682.307 1317.48Z" fill-rule="evenodd" transform="matrix(1.00077 0 0 1 1874.99 1503.34)"/><text font-family="Arial,Arial_MSFontService,sans-serif" font-weight="700" font-size="10" transform="matrix(3.96074 0 0 3.9577 2397.88 2805)">O</text><path d="M594.921 1293.02 557.996 1293.02" stroke="#000000" stroke-width="5.73866" fill="none" transform="matrix(1.00077 0 0 1 1874.99 1503.34)"/><path d="M594.486 1281.54 594.486 1281.54 598.681 1275.8 557.996 1275.8 557.996 1281.54Z" fill-rule="evenodd" transform="matrix(1.00077 0 0 1 1874.99 1503.34)"/><path d="M598.681 1295.91 598.681 1295.91 594.486 1290.17 557.996 1290.17 557.996 1295.91Z" fill-rule="evenodd" transform="matrix(1.00077 0 0 1 1874.99 1503.34)"/><path d="M625.158 1220.4 625.158 1220.4 622.427 1221.31 619.696 1222.18 608.06 1186.4 610.791 1185.53 613.522 1184.66Z" fill-rule="evenodd" transform="matrix(1.00077 0 0 1 1874.99 1503.34)"/><path d="M618.667 1352.7 618.667 1352.7 621.398 1353.57 624.129 1354.48 613.522 1387.05 610.791 1386.18 608.06 1385.31Z" fill-rule="evenodd" transform="matrix(1.00077 0 0 1 1874.99 1503.34)"/><text font-family="Arial,Arial_MSFontService,sans-serif" font-weight="700" font-size="10" transform="matrix(3.96074 0 0 3.9577 2693.16 2862)">S</text><path d="M781.328 1317.68 781.328 1317.68 781.328 1314.35 784.217 1312.69 816.037 1331.05 814.573 1333.55 813.148 1336.04Z" fill-rule="evenodd" transform="matrix(1.00077 0 0 1 1874.99 1503.34)"/><text font-family="Arial,Arial_MSFontService,sans-serif" font-weight="700" font-size="10" transform="matrix(3.96074 0 0 3.9577 2741.44 2800)">H</text><text font-family="Arial,Arial_MSFontService,sans-serif" font-weight="700" font-size="10" transform="matrix(3.96074 0 0 3.9577 2741.44 2841)">N</text><path d="M848.293 1336 848.293 1336 846.868 1333.51 845.403 1331.01 861.828 1321.55 863.253 1324.05 864.717 1326.5Z" fill-rule="evenodd" transform="matrix(1.00077 0 0 1 1874.99 1503.34)"/><path d="M895.27 1326.46 895.27 1326.46 896.735 1323.97 898.16 1321.51 929.386 1339.52 929.386 1342.85 926.536 1344.51Z" fill-rule="evenodd" transform="matrix(1.00077 0 0 1 1874.99 1503.34)"/><path d="M926.536 1344.51 926.536 1344.51 929.386 1342.85 932.275 1344.51 932.275 1398.17 929.386 1399.84 926.497 1401.5Z" fill-rule="evenodd" transform="matrix(1.00077 0 0 1 1874.99 1503.34)"/><path d="M943.752 1351.12 943.752 1391.57" stroke="#000000" stroke-width="5.73866" fill="none" transform="matrix(1.00077 0 0 1 1874.99 1503.34)"/><path d="M926.497 1401.5 926.497 1401.5 929.386 1399.84 932.275 1398.17 978.738 1425.01 978.738 1428.33 978.738 1431.66Z" fill-rule="evenodd" transform="matrix(1.00077 0 0 1 1874.99 1503.34)"/><path d="M978.738 1431.66 978.738 1431.66 978.738 1428.33 978.738 1425.01 1025.24 1398.17 1028.09 1399.84 1030.94 1401.5Z" fill-rule="evenodd" transform="matrix(1.00077 0 0 1 1874.99 1503.34)"/><path d="M978.738 1411.75 1013.76 1391.57" stroke="#000000" stroke-width="5.73866" transform="matrix(1.00077 0 0 1 1874.99 1503.34)"/><path d="M1030.94 1401.5 1030.94 1401.5 1028.09 1399.84 1025.24 1398.17 1025.24 1344.51 1028.09 1342.85 1030.98 1344.51Z" fill-rule="evenodd" transform="matrix(1.00077 0 0 1 1874.99 1503.34)"/><path d="M1028.09 1339.52 1028.09 1339.52 1028.09 1342.85 1025.24 1344.51 978.738 1317.68 978.738 1314.35 978.738 1311.03Z" fill-rule="evenodd" transform="matrix(1.00077 0 0 1 1874.99 1503.34)"/><path d="M1013.76 1351.12 978.738 1330.93" stroke="#000000" stroke-width="5.73866" transform="matrix(1.00077 0 0 1 1874.99 1503.34)"/><path d="M978.738 1311.03 978.738 1311.03 978.738 1314.35 978.738 1317.68 932.275 1344.51 929.386 1342.85 929.386 1339.52Z" fill-rule="evenodd" transform="matrix(1.00077 0 0 1 1874.99 1503.34)"/><path d="M1030.98 1344.51 1030.98 1344.51 1028.09 1342.85 1028.09 1339.52 1077.48 1311.03 1077.48 1314.35 1077.48 1317.68Z" fill-rule="evenodd" transform="matrix(1.00077 0 0 1 1874.99 1503.34)"/><path d="M1077.48 1317.68 1077.48 1317.68 1077.48 1314.35 1077.48 1311.03 1128.26 1340.35 1126.84 1342.85 1125.41 1345.34Z" fill-rule="evenodd" transform="matrix(1.00077 0 0 1 1874.99 1503.34)"/><text font-family="Arial,Arial_MSFontService,sans-serif" font-weight="700" font-size="10" transform="matrix(3.96074 0 0 3.9577 2652.56 2904)">O</text><path d="M820.787 1364.46 813.227 1372.77" stroke="#000000" stroke-width="5.73866" transform="matrix(1.00077 0 0 1 1874.99 1503.34)"/><path d="M812.278 1356.74 812.278 1356.74 808.043 1352.9 800.484 1361.21 804.718 1365.09Z" fill-rule="evenodd" transform="matrix(1.00077 0 0 1 1874.99 1503.34)"/><path d="M822.924 1366.39 822.924 1366.39 818.649 1362.52 811.09 1370.87 815.365 1374.71Z" fill-rule="evenodd" transform="matrix(1.00077 0 0 1 1874.99 1503.34)"/><text font-family="Arial,Arial_MSFontService,sans-serif" font-weight="700" font-size="10" transform="matrix(3.96074 0 0 3.9577 2725.16 2907)">O</text><path d="M851.142 1358.12 857.593 1366.71" stroke="#000000" stroke-width="5.73866" transform="matrix(1.00077 0 0 1 1874.99 1503.34)"/><path d="M842 1365.01 842 1365.01 837.409 1368.49 843.86 1377.04 848.451 1373.6Z" fill-rule="evenodd" transform="matrix(1.00077 0 0 1 1874.99 1503.34)"/><path d="M853.438 1356.42 853.438 1356.42 848.847 1359.86 855.298 1368.41 859.889 1364.97Z" fill-rule="evenodd" transform="matrix(1.00077 0 0 1 1874.99 1503.34)"/></g></g></g></g><g><g><g><g><path d="M690.784 1279.86 690.784 1279.86 693.679 1277.72 696.615 1279.41 696.615 1333.95 693.679 1335.64 690.784 1333.51Z" fill-rule="evenodd" transform="matrix(1.00349 0 0 1 -700.069 1475.16)"/><path d="M693.358 1338.82 693.358 1338.82 693.679 1335.64 696.615 1333.95 743.831 1361.22 743.831 1364.6 743.831 1367.97Z" fill-rule="evenodd" transform="matrix(1.00349 0 0 1 -700.069 1475.16)"/><path d="M708.279 1327.23 743.831 1347.74" stroke="#000000" stroke-width="5.83161" transform="matrix(1.00349 0 0 1 -700.069 1475.16)"/><path d="M743.831 1367.97 743.831 1367.97 743.831 1364.6 743.831 1361.22 791.087 1333.95 793.983 1335.64 793.983 1339.02Z" fill-rule="evenodd" transform="matrix(1.00349 0 0 1 -700.069 1475.16)"/><path d="M796.919 1333.95 796.919 1333.95 793.983 1335.64 791.087 1333.95 791.087 1279.41 793.983 1277.72 796.879 1276.04Z" fill-rule="evenodd" transform="matrix(1.00349 0 0 1 -700.069 1475.16)"/><path d="M779.424 1327.23 779.424 1286.13" stroke="#000000" stroke-width="5.83161" fill="none" transform="matrix(1.00349 0 0 1 -700.069 1475.16)"/><path d="M796.879 1276.04 796.879 1276.04 793.983 1277.72 791.087 1279.41 743.831 1252.15 743.831 1248.77 743.831 1245.39Z" fill-rule="evenodd" transform="matrix(1.00349 0 0 1 -700.069 1475.16)"/><path d="M743.831 1245.39 743.831 1245.39 743.831 1248.77 743.831 1252.15 696.615 1279.41 693.679 1277.72 693.358 1274.55Z" fill-rule="evenodd" transform="matrix(1.00349 0 0 1 -700.069 1475.16)"/><path d="M743.831 1265.62 708.279 1286.13" stroke="#000000" stroke-width="5.83161" transform="matrix(1.00349 0 0 1 -700.069 1475.16)"/><text font-family="Arial,Arial_MSFontService,sans-serif" font-weight="700" font-size="10" transform="matrix(4.03581 0 0 4.0218 -73.7912 2751)">N</text><text font-family="Arial,Arial_MSFontService,sans-serif" font-weight="700" font-size="10" transform="matrix(4.03581 0 0 4.0218 -73.7912 2844)">N</text><path d="M693.358 1274.55 693.358 1274.55 693.679 1277.72 690.784 1279.86 655.11 1268.27 655.995 1265.5 656.92 1262.72Z" fill-rule="evenodd" transform="matrix(1.00349 0 0 1 -700.069 1475.16)"/><path d="M621.287 1278.69 621.287 1278.69 623.66 1280.38 625.993 1282.11 608.176 1306.68 604.556 1306.68 600.937 1306.68Z" fill-rule="evenodd" transform="matrix(1.00349 0 0 1 -700.069 1475.16)"/><path d="M600.937 1306.68 600.937 1306.68 604.556 1306.68 608.176 1306.68 627.963 1333.99 625.631 1335.68 623.258 1337.41Z" fill-rule="evenodd" transform="matrix(1.00349 0 0 1 -700.069 1475.16)"/><path d="M656.92 1350.64 656.92 1350.64 655.995 1347.86 655.11 1345.09 690.784 1333.51 693.679 1335.64 693.358 1338.82Z" fill-rule="evenodd" transform="matrix(1.00349 0 0 1 -700.069 1475.16)"/><text font-family="Arial,Arial_MSFontService,sans-serif" font-weight="700" font-size="10" transform="matrix(4.03581 0 0 4.0218 -167.261 2798)">O</text><path d="M604.556 1313.96 567.033 1313.96" stroke="#000000" stroke-width="5.83161" fill="none" transform="matrix(1.00349 0 0 1 -700.069 1475.16)"/><path d="M604.114 1302.3 604.114 1302.3 608.377 1296.47 567.033 1296.47 567.033 1302.3Z" fill-rule="evenodd" transform="matrix(1.00349 0 0 1 -700.069 1475.16)"/><path d="M608.377 1316.9 608.377 1316.9 604.114 1311.07 567.033 1311.07 567.033 1316.9Z" fill-rule="evenodd" transform="matrix(1.00349 0 0 1 -700.069 1475.16)"/><path d="M635.283 1240.16 635.283 1240.16 632.508 1241.09 629.733 1241.97 617.909 1205.61 620.684 1204.73 623.459 1203.84Z" fill-rule="evenodd" transform="matrix(1.00349 0 0 1 -700.069 1475.16)"/><path d="M628.687 1374.61 628.687 1374.61 631.462 1375.49 634.237 1376.42 623.459 1409.52 620.684 1408.63 617.909 1407.75Z" fill-rule="evenodd" transform="matrix(1.00349 0 0 1 -700.069 1475.16)"/><text font-family="Arial,Arial_MSFontService,sans-serif" font-weight="700" font-size="10" transform="matrix(4.03581 0 0 4.0218 133.609 2856)">S</text><path d="M793.983 1339.02 793.983 1339.02 793.983 1335.64 796.919 1333.95 829.254 1352.61 827.766 1355.14 826.318 1357.68Z" fill-rule="evenodd" transform="matrix(1.00349 0 0 1 -700.069 1475.16)"/><text font-family="Arial,Arial_MSFontService,sans-serif" font-weight="700" font-size="10" transform="matrix(4.03581 0 0 4.0218 182.806 2793)">H</text><text font-family="Arial,Arial_MSFontService,sans-serif" font-weight="700" font-size="10" transform="matrix(4.03581 0 0 4.0218 182.806 2834)">N</text><path d="M862.032 1357.64 862.032 1357.64 860.584 1355.1 859.096 1352.57 875.786 1342.96 877.234 1345.49 878.722 1347.99Z" fill-rule="evenodd" transform="matrix(1.00349 0 0 1 -700.069 1475.16)"/><path d="M909.771 1347.95 909.771 1347.95 911.259 1345.41 912.706 1342.92 944.438 1361.22 944.438 1364.6 941.543 1366.28Z" fill-rule="evenodd" transform="matrix(1.00349 0 0 1 -700.069 1475.16)"/><path d="M941.543 1366.28 941.543 1366.28 944.438 1364.6 947.374 1366.28 947.374 1420.82 944.438 1422.51 941.503 1424.2Z" fill-rule="evenodd" transform="matrix(1.00349 0 0 1 -700.069 1475.16)"/><path d="M959.038 1373 959.038 1414.1" stroke="#000000" stroke-width="5.83161" fill="none" transform="matrix(1.00349 0 0 1 -700.069 1475.16)"/><path d="M941.503 1424.2 941.503 1424.2 944.438 1422.51 947.374 1420.82 994.59 1448.09 994.59 1451.47 994.59 1454.84Z" fill-rule="evenodd" transform="matrix(1.00349 0 0 1 -700.069 1475.16)"/><path d="M994.59 1454.84 994.59 1454.84 994.59 1451.47 994.59 1448.09 1041.85 1420.82 1044.74 1422.51 1047.64 1424.2Z" fill-rule="evenodd" transform="matrix(1.00349 0 0 1 -700.069 1475.16)"/><path d="M994.59 1434.61 1030.18 1414.1" stroke="#000000" stroke-width="5.83161" transform="matrix(1.00349 0 0 1 -700.069 1475.16)"/><path d="M1047.64 1424.2 1047.64 1424.2 1044.74 1422.51 1041.85 1420.82 1041.85 1366.28 1044.74 1364.6 1047.64 1362.91Z" fill-rule="evenodd" transform="matrix(1.00349 0 0 1 -700.069 1475.16)"/><path d="M1047.64 1362.91 1047.64 1362.91 1044.74 1364.6 1041.85 1366.28 994.59 1339.02 994.59 1335.64 997.526 1333.95Z" fill-rule="evenodd" transform="matrix(1.00349 0 0 1 -700.069 1475.16)"/><path d="M1030.18 1373 994.59 1352.49" stroke="#000000" stroke-width="5.83161" transform="matrix(1.00349 0 0 1 -700.069 1475.16)"/><path d="M991.695 1333.95 991.695 1333.95 994.59 1335.64 994.59 1339.02 947.374 1366.28 944.438 1364.6 944.438 1361.22Z" fill-rule="evenodd" transform="matrix(1.00349 0 0 1 -700.069 1475.16)"/><text font-family="Arial,Arial_MSFontService,sans-serif" font-weight="700" font-size="10" transform="matrix(4.03581 0 0 4.0218 92.2421 2898)">O</text><path d="M834.08 1386.55 826.399 1395" stroke="#000000" stroke-width="5.83161" transform="matrix(1.00349 0 0 1 -700.069 1475.16)"/><path d="M825.433 1378.71 825.433 1378.71 821.13 1374.81 813.448 1383.26 817.752 1387.2Z" fill-rule="evenodd" transform="matrix(1.00349 0 0 1 -700.069 1475.16)"/><path d="M836.252 1388.53 836.252 1388.53 831.909 1384.58 824.227 1393.07 828.57 1396.97Z" fill-rule="evenodd" transform="matrix(1.00349 0 0 1 -700.069 1475.16)"/><text font-family="Arial,Arial_MSFontService,sans-serif" font-weight="700" font-size="10" transform="matrix(4.03581 0 0 4.0218 166.219 2902)">O</text><path d="M864.927 1380.12 871.483 1388.85" stroke="#000000" stroke-width="5.83161" transform="matrix(1.00349 0 0 1 -700.069 1475.16)"/><path d="M855.637 1387.12 855.637 1387.12 850.972 1390.66 857.527 1399.34 862.193 1395.84Z" fill-rule="evenodd" transform="matrix(1.00349 0 0 1 -700.069 1475.16)"/><path d="M867.26 1378.39 867.26 1378.39 862.595 1381.89 869.15 1390.58 873.816 1387.08Z" fill-rule="evenodd" transform="matrix(1.00349 0 0 1 -700.069 1475.16)"/><text font-family="Arial,Arial_MSFontService,sans-serif" font-weight="700" font-size="10" transform="matrix(4.03581 0 0 4.0218 282.248 2769)">OH</text><path d="M997.526 1333.95 997.526 1333.95 994.59 1335.64 991.695 1333.95 991.695 1300.61 994.59 1300.61 997.526 1300.61Z" fill-rule="evenodd" transform="matrix(1.00349 0 0 1 -700.069 1475.16)"/></g></g></g></g><path d="M497.5 2750.33C497.5 2730.54 513.543 2714.5 533.334 2714.5L841.666 2714.5C861.457 2714.5 877.5 2730.54 877.5 2750.33L877.5 2893.67C877.5 2913.46 861.457 2929.5 841.666 2929.5L533.334 2929.5C513.543 2929.5 497.5 2913.46 497.5 2893.67Z" stroke="#262626" stroke-width="6.875" stroke-miterlimit="8" fill="#FEF7F3" fill-rule="evenodd"/><text fill="#262626" font-family="Lato Black,Lato Black_MSFontService,sans-serif" font-weight="900" font-size="55" transform="matrix(1 0 0 1 547.498 2809)">End</text><text fill="#262626" font-family="Lato Black,Lato Black_MSFontService,sans-serif" font-weight="900" font-size="55" transform="matrix(1 0 0 1 641.456 2809)">-</text><text fill="#262626" font-family="Lato Black,Lato Black_MSFontService,sans-serif" font-weight="900" font-size="55" transform="matrix(1 0 0 1 662.081 2809)">to</text><text fill="#262626" font-family="Lato Black,Lato Black_MSFontService,sans-serif" font-weight="900" font-size="55" transform="matrix(1 0 0 1 714.217 2809)">-</text><text fill="#262626" font-family="Lato Black,Lato Black_MSFontService,sans-serif" font-weight="900" font-size="55" transform="matrix(1 0 0 1 734.842 2809)">end </text><text fill="#262626" font-family="Lato Black,Lato Black_MSFontService,sans-serif" font-weight="900" font-size="55" transform="matrix(1 0 0 1 607.929 2875)">Model</text><path d="M392.5 2818.06 455.487 2818.06 455.487 2824.94 392.5 2824.94ZM450.904 2807.75 496.737 2821.5 450.904 2835.25Z" fill="#262626"/><path d="M877.5 2818.06 940.75 2818.06 940.75 2824.94 877.5 2824.94ZM936.167 2807.75 982 2821.5 936.167 2835.25Z" fill="#262626"/><path d="M1889.5 2750.33C1889.5 2730.54 1905.54 2714.5 1925.33 2714.5L2183.67 2714.5C2203.46 2714.5 2219.5 2730.54 2219.5 2750.33L2219.5 2893.67C2219.5 2913.46 2203.46 2929.5 2183.67 2929.5L1925.33 2929.5C1905.54 2929.5 1889.5 2913.46 1889.5 2893.67Z" stroke="#262626" stroke-width="6.875" stroke-miterlimit="8" fill="#FEF7F3" fill-rule="evenodd"/><text fill="#262626" font-family="Lato Black,Lato Black_MSFontService,sans-serif" font-weight="900" font-size="55" transform="matrix(1 0 0 1 1935.97 2809)">Fragment </text><text fill="#262626" font-family="Lato Black,Lato Black_MSFontService,sans-serif" font-weight="900" font-size="55" transform="matrix(1 0 0 1 1974.93 2875)">Model</text><path d="M1784.5 2818.06 1847.49 2818.06 1847.49 2824.94 1784.5 2824.94ZM1842.9 2807.75 1888.74 2821.5 1842.9 2835.25Z" fill="#262626"/><path d="M2219.5 2818.06 2269 2818.06 2269 2824.94 2219.5 2824.94ZM2264.42 2807.75 2310.25 2821.5 2264.42 2835.25Z" fill="#262626"/><path d="M1317.68 2887.99C1312.87 2883.02 1313 2875.09 1317.97 2870.28L1355.56 2833.89C1360.53 2829.08 1368.46 2829.21 1373.27 2834.18L1373.27 2834.18C1378.08 2839.15 1377.95 2847.07 1372.98 2851.88L1335.39 2888.28C1330.42 2893.09 1322.49 2892.96 1317.68 2887.99Z" fill="#FC8484" fill-rule="evenodd"/><path d="M1358.33 2828.84C1363.75 2824.55 1371.62 2825.46 1375.92 2830.88L1408.42 2871.89C1412.71 2877.31 1411.8 2885.18 1406.38 2889.48L1406.38 2889.48C1400.96 2893.77 1393.08 2892.86 1388.79 2887.44L1356.29 2846.43C1352 2841.01 1352.91 2833.14 1358.33 2828.84Z" fill="#FC8484" fill-rule="evenodd"/><path d="M1358.82 2840.84C1355.43 2834.81 1357.56 2827.18 1363.59 2823.78L1409.18 2798.11C1415.21 2794.72 1422.84 2796.85 1426.23 2802.88L1426.23 2802.88C1429.63 2808.91 1427.49 2816.54 1421.47 2819.93L1375.87 2845.6C1369.85 2849 1362.21 2846.86 1358.82 2840.84Z" fill="#FC8484" fill-rule="evenodd"/><path d="M1307.6 2802.22C1311.11 2796.27 1318.79 2794.29 1324.74 2797.81L1369.79 2824.43C1375.74 2827.95 1377.72 2835.63 1374.2 2841.58L1374.2 2841.58C1370.68 2847.53 1363.01 2849.51 1357.05 2845.99L1312.01 2819.37C1306.05 2815.85 1304.08 2808.18 1307.6 2802.22Z" fill="#FC8484" fill-rule="evenodd"/><path d="M1258.22 2840.96C1254.83 2834.93 1256.96 2827.3 1262.99 2823.9L1308.58 2798.23C1314.61 2794.84 1322.24 2796.97 1325.64 2803L1325.64 2803C1329.03 2809.02 1326.89 2816.66 1320.87 2820.05L1275.28 2845.72C1269.25 2849.12 1261.62 2846.98 1258.22 2840.96Z" fill="#FC8484" fill-rule="evenodd"/><path d="M1315.5 2818C1308.6 2818 1303 2812.4 1303 2805.5L1303 2753.5C1303 2746.6 1308.6 2741 1315.5 2741L1315.5 2741C1322.4 2741 1328 2746.6 1328 2753.5L1328 2805.5C1328 2812.4 1322.4 2818 1315.5 2818Z" fill="#FC8484" fill-rule="evenodd"/><path d="M1255.5 2716.74C1259.02 2710.79 1266.7 2708.82 1272.65 2712.33L1317.7 2738.95C1323.65 2742.47 1325.63 2750.15 1322.11 2756.1L1322.11 2756.1C1318.59 2762.06 1310.91 2764.03 1304.96 2760.51L1259.91 2733.89C1253.96 2730.38 1251.98 2722.7 1255.5 2716.74Z" fill="#FC8484" fill-rule="evenodd"/><path d="M1208 2801.61C1211.52 2795.66 1219.19 2793.68 1225.15 2797.2L1270.19 2823.82C1276.15 2827.34 1278.12 2835.01 1274.6 2840.97L1274.6 2840.97C1271.09 2846.92 1263.41 2848.9 1257.46 2845.38L1212.41 2818.76C1206.45 2815.24 1204.48 2807.56 1208 2801.61Z" fill="#FC8484" fill-rule="evenodd"/><path d="M1203.02 2757.58C1199.62 2751.56 1201.76 2743.92 1207.78 2740.53L1253.38 2714.86C1259.4 2711.46 1267.04 2713.6 1270.43 2719.62L1270.43 2719.62C1273.82 2725.65 1271.69 2733.28 1265.66 2736.68L1220.07 2762.35C1214.05 2765.74 1206.41 2763.61 1203.02 2757.58Z" fill="#FC8484" fill-rule="evenodd"/><path d="M1162.46 2816.89C1169.07 2818.91 1172.8 2825.91 1170.77 2832.52L1155.48 2882.56C1153.45 2889.17 1146.45 2892.9 1139.84 2890.87L1139.84 2890.87C1133.23 2888.85 1129.51 2881.85 1131.53 2875.24L1146.83 2825.2C1148.85 2818.59 1155.85 2814.87 1162.46 2816.89Z" fill="#FC8484" fill-rule="evenodd"/><path d="M1149.74 2830.93C1147.56 2824.36 1151.12 2817.28 1157.68 2815.1L1207.34 2798.62C1213.91 2796.45 1220.99 2800 1223.17 2806.57L1223.17 2806.57C1225.35 2813.13 1221.79 2820.21 1215.23 2822.39L1165.57 2838.87C1159 2841.04 1151.92 2837.49 1149.74 2830.93Z" fill="#FC8484" fill-rule="evenodd"/><path d="M1216.5 2818C1209.6 2818 1204 2812.4 1204 2805.5L1204 2753.5C1204 2746.6 1209.6 2741 1216.5 2741L1216.5 2741C1223.4 2741 1229 2746.6 1229 2753.5L1229 2805.5C1229 2812.4 1223.4 2818 1216.5 2818Z" fill="#FC8484" fill-rule="evenodd"/><path d="M1054 2777.5C1054 2770.6 1059.6 2765 1066.5 2765L1118.5 2765C1125.4 2765 1131 2770.6 1131 2777.5L1131 2777.5C1131 2784.4 1125.4 2790 1118.5 2790L1066.5 2790C1059.6 2790 1054 2784.4 1054 2777.5Z" fill="#FC8484" fill-rule="evenodd"/><path d="M1140.28 2670.54C1146.86 2668.4 1153.92 2672 1156.06 2678.58L1172.23 2728.34C1174.36 2734.92 1170.77 2741.98 1164.19 2744.12L1164.19 2744.12C1157.61 2746.26 1150.55 2742.66 1148.41 2736.08L1132.24 2686.32C1130.11 2679.74 1133.71 2672.68 1140.28 2670.54Z" fill="#FC8484" fill-rule="evenodd"/><path d="M1118.32 2773.95C1123.92 2769.88 1131.75 2771.12 1135.81 2776.72L1166.57 2819.05C1170.63 2824.64 1169.39 2832.47 1163.8 2836.54L1163.8 2836.54C1158.2 2840.6 1150.37 2839.36 1146.31 2833.77L1115.55 2791.44C1111.49 2785.84 1112.73 2778.01 1118.32 2773.95Z" fill="#FC8484" fill-rule="evenodd"/><path d="M1113.98 2788.64C1108.69 2784.2 1108 2776.3 1112.44 2771L1146.04 2730.96C1150.49 2725.66 1158.38 2724.97 1163.68 2729.42L1163.68 2729.42C1168.98 2733.86 1169.67 2741.76 1165.22 2747.05L1131.62 2787.1C1127.18 2792.4 1119.28 2793.09 1113.98 2788.64Z" fill="#FC8484" fill-rule="evenodd"/><path d="M1155.46 2733.44C1157.6 2726.86 1164.66 2723.26 1171.24 2725.4L1215.72 2739.85C1222.3 2741.99 1225.9 2749.05 1223.76 2755.63L1223.76 2755.63C1221.62 2762.21 1214.56 2765.8 1207.98 2763.67L1163.5 2749.21C1156.93 2747.08 1153.33 2740.01 1155.46 2733.44Z" fill="#FC8484" fill-rule="evenodd"/><g clip-path="url(#clip6)"><g clip-path="url(#clip7)"><g clip-path="url(#clip8)"><g><path d="M685.907 1270.82 685.907 1270.82 688.782 1268.7 691.698 1270.38 691.698 1324.53 688.782 1326.21 685.907 1324.09Z" fill-rule="evenodd" transform="matrix(1.00243 0 0 1 524.51 1481.78)"/><path d="M688.463 1329.36 688.463 1329.36 688.782 1326.21 691.698 1324.53 738.58 1351.61 738.58 1354.96 738.58 1358.32Z" fill-rule="evenodd" transform="matrix(1.00243 0 0 1 524.51 1481.78)"/><path d="M703.279 1317.86 738.58 1338.23" stroke="#000000" stroke-width="5.79044" transform="matrix(1.00243 0 0 1 524.51 1481.78)"/><path d="M738.58 1358.32 738.58 1358.32 738.58 1354.96 738.58 1351.61 785.503 1324.53 788.378 1326.21 788.378 1329.56Z" fill-rule="evenodd" transform="matrix(1.00243 0 0 1 524.51 1481.78)"/><path d="M791.293 1324.53 791.293 1324.53 788.378 1326.21 785.503 1324.53 785.503 1270.38 788.378 1268.7 791.253 1267.03Z" fill-rule="evenodd" transform="matrix(1.00243 0 0 1 524.51 1481.78)"/><path d="M773.922 1317.86 773.922 1277.05" stroke="#000000" stroke-width="5.79044" fill="none" transform="matrix(1.00243 0 0 1 524.51 1481.78)"/><path d="M791.253 1267.03 791.253 1267.03 788.378 1268.7 785.503 1270.38 738.58 1243.31 738.58 1239.95 738.58 1236.6Z" fill-rule="evenodd" transform="matrix(1.00243 0 0 1 524.51 1481.78)"/><path d="M738.58 1236.6 738.58 1236.6 738.58 1239.95 738.58 1243.31 691.698 1270.38 688.782 1268.7 688.463 1265.55Z" fill-rule="evenodd" transform="matrix(1.00243 0 0 1 524.51 1481.78)"/><path d="M738.58 1256.68 703.279 1277.05" stroke="#000000" stroke-width="5.79044" transform="matrix(1.00243 0 0 1 524.51 1481.78)"/><text font-family="Arial,Arial_MSFontService,sans-serif" font-weight="700" font-size="10" transform="matrix(4.0031 0 0 3.9934 1145.71 2748)">N</text><text font-family="Arial,Arial_MSFontService,sans-serif" font-weight="700" font-size="10" transform="matrix(4.0031 0 0 3.9934 1145.71 2841)">N</text><path d="M688.463 1265.55 688.463 1265.55 688.782 1268.7 685.907 1270.82 650.486 1259.32 651.364 1256.56 652.283 1253.81Z" fill-rule="evenodd" transform="matrix(1.00243 0 0 1 524.51 1481.78)"/><path d="M616.901 1269.66 616.901 1269.66 619.257 1271.34 621.573 1273.06 603.883 1297.46 600.289 1297.46 596.695 1297.46Z" fill-rule="evenodd" transform="matrix(1.00243 0 0 1 524.51 1481.78)"/><path d="M596.695 1297.46 596.695 1297.46 600.289 1297.46 603.883 1297.46 623.53 1324.57 621.214 1326.25 618.858 1327.97Z" fill-rule="evenodd" transform="matrix(1.00243 0 0 1 524.51 1481.78)"/><path d="M652.283 1341.11 652.283 1341.11 651.364 1338.35 650.486 1335.59 685.907 1324.09 688.782 1326.21 688.463 1329.36Z" fill-rule="evenodd" transform="matrix(1.00243 0 0 1 524.51 1481.78)"/><text font-family="Arial,Arial_MSFontService,sans-serif" font-weight="700" font-size="10" transform="matrix(4.0031 0 0 3.9934 1053 2795)">O</text><path d="M600.289 1304.69 563.03 1304.69" stroke="#000000" stroke-width="5.79044" fill="none" transform="matrix(1.00243 0 0 1 524.51 1481.78)"/><path d="M599.849 1293.1 599.849 1293.1 604.082 1287.31 563.03 1287.31 563.03 1293.1Z" fill-rule="evenodd" transform="matrix(1.00243 0 0 1 524.51 1481.78)"/><path d="M604.082 1307.6 604.082 1307.6 599.849 1301.81 563.03 1301.81 563.03 1307.6Z" fill-rule="evenodd" transform="matrix(1.00243 0 0 1 524.51 1481.78)"/><path d="M630.798 1231.41 630.798 1231.41 628.043 1232.32 625.287 1233.2 613.547 1197.1 616.302 1196.22 619.058 1195.35Z" fill-rule="evenodd" transform="matrix(1.00243 0 0 1 524.51 1481.78)"/><path d="M624.249 1364.91 624.249 1364.91 627.004 1365.78 629.76 1366.7 619.058 1399.57 616.302 1398.69 613.547 1397.81Z" fill-rule="evenodd" transform="matrix(1.00243 0 0 1 524.51 1481.78)"/><text font-family="Arial,Arial_MSFontService,sans-serif" font-weight="700" font-size="10" transform="matrix(4.0031 0 0 3.9934 1351.43 2852)">S</text><path d="M788.378 1329.56 788.378 1329.56 788.378 1326.21 791.293 1324.53 823.4 1343.06 821.923 1345.58 820.485 1348.09Z" fill-rule="evenodd" transform="matrix(1.00243 0 0 1 524.51 1481.78)"/><text font-family="Arial,Arial_MSFontService,sans-serif" font-weight="700" font-size="10" transform="matrix(4.0031 0 0 3.9934 1400.23 2791)">H</text><text font-family="Arial,Arial_MSFontService,sans-serif" font-weight="700" font-size="10" transform="matrix(4.0031 0 0 3.9934 1400.23 2831)">N</text><path d="M855.946 1348.05 855.946 1348.05 854.509 1345.54 853.031 1343.02 869.604 1333.48 871.041 1335.99 872.519 1338.47Z" fill-rule="evenodd" transform="matrix(1.00243 0 0 1 524.51 1481.78)"/><path d="M903.348 1338.43 903.348 1338.43 904.826 1335.91 906.263 1333.44 939.209 1352.45 937.771 1354.96 936.334 1357.48Z" fill-rule="evenodd" transform="matrix(1.00243 0 0 1 524.51 1481.78)"/><text font-family="Arial,Arial_MSFontService,sans-serif" font-weight="700" font-size="10" transform="matrix(4.0031 0 0 3.9934 1310.4 2895)">O</text><path d="M828.192 1376.77 820.565 1385.15" stroke="#000000" stroke-width="5.79044" transform="matrix(1.00243 0 0 1 524.51 1481.78)"/><path d="M819.606 1368.98 819.606 1368.98 815.333 1365.11 807.706 1373.49 811.979 1377.41Z" fill-rule="evenodd" transform="matrix(1.00243 0 0 1 524.51 1481.78)"/><path d="M830.349 1378.72 830.349 1378.72 826.036 1374.81 818.408 1383.24 822.721 1387.11Z" fill-rule="evenodd" transform="matrix(1.00243 0 0 1 524.51 1481.78)"/><text font-family="Arial,Arial_MSFontService,sans-serif" font-weight="700" font-size="10" transform="matrix(4.0031 0 0 3.9934 1383.78 2898)">O</text><path d="M858.822 1370.38 865.331 1379.04" stroke="#000000" stroke-width="5.79044" transform="matrix(1.00243 0 0 1 524.51 1481.78)"/><path d="M849.597 1377.33 849.597 1377.33 844.965 1380.84 851.474 1389.47 856.106 1385.99Z" fill-rule="evenodd" transform="matrix(1.00243 0 0 1 524.51 1481.78)"/><path d="M861.138 1368.66 861.138 1368.66 856.505 1372.13 863.015 1380.76 867.647 1377.29Z" fill-rule="evenodd" transform="matrix(1.00243 0 0 1 524.51 1481.78)"/></g></g></g></g><text font-family="Helvetica,Helvetica_MSFontService,sans-serif" font-weight="400" font-size="83" transform="matrix(1 0 0 1 1464.65 2892)">*</text><path d="M1666 2709C1673.18 2709 1679 2714.82 1679 2722L1679 2773C1679 2780.18 1673.18 2786 1666 2786L1666 2786C1658.82 2786 1653 2780.18 1653 2773L1653 2722C1653 2714.82 1658.82 2709 1666 2709Z" fill="#83CBEB" fill-rule="evenodd"/><path d="M1657.8 2901.38C1654.27 2895.44 1656.23 2887.76 1662.18 2884.23L1707.18 2857.53C1713.13 2854 1720.81 2855.97 1724.34 2861.91L1724.34 2861.91C1727.87 2867.86 1725.9 2875.54 1719.96 2879.07L1674.95 2905.76C1669.01 2909.29 1661.33 2907.33 1657.8 2901.38Z" fill="#83CBEB" fill-rule="evenodd"/><path d="M1607 2815.42C1603.47 2809.48 1605.43 2801.8 1611.38 2798.27L1656.38 2771.57C1662.33 2768.04 1670.01 2770.01 1673.54 2775.95L1673.54 2775.95C1677.07 2781.9 1675.11 2789.58 1669.16 2793.11L1624.16 2819.8C1618.21 2823.33 1610.53 2821.37 1607 2815.42Z" fill="#83CBEB" fill-rule="evenodd"/><path d="M1614.5 2801C1621.4 2801 1627 2806.6 1627 2813.5L1627 2861.5C1627 2868.4 1621.4 2874 1614.5 2874L1614.5 2874C1607.6 2874 1602 2868.4 1602 2861.5L1602 2813.5C1602 2806.6 1607.6 2801 1614.5 2801Z" fill="#83CBEB" fill-rule="evenodd"/><path d="M1716.5 2799C1723.4 2799 1729 2804.6 1729 2811.5L1729 2864.5C1729 2871.4 1723.4 2877 1716.5 2877L1716.5 2877C1709.6 2877 1704 2871.4 1704 2864.5L1704 2811.5C1704 2804.6 1709.6 2799 1716.5 2799Z" fill="#83CBEB" fill-rule="evenodd"/><path d="M1606.32 2861.2C1609.84 2855.25 1617.52 2853.27 1623.47 2856.79L1668.52 2883.41C1674.47 2886.93 1676.44 2894.61 1672.93 2900.56L1672.93 2900.56C1669.41 2906.51 1661.73 2908.49 1655.78 2904.97L1610.73 2878.35C1604.78 2874.83 1602.8 2867.15 1606.32 2861.2Z" fill="#83CBEB" fill-rule="evenodd"/><path d="M1655.97 2776.1C1659.49 2770.14 1667.16 2768.17 1673.12 2771.69L1718.16 2798.31C1724.12 2801.82 1726.09 2809.5 1722.57 2815.45L1722.57 2815.45C1719.06 2821.41 1711.38 2823.38 1705.42 2819.86L1660.38 2793.25C1654.42 2789.73 1652.45 2782.05 1655.97 2776.1Z" fill="#83CBEB" fill-rule="evenodd"/><g clip-path="url(#clip9)"><g clip-path="url(#clip10)"><g clip-path="url(#clip11)"><g><path d="M907.348 1359.92 907.348 1359.92 908.819 1357.34 910.291 1354.77 959.786 1383.34 959.786 1386.77 956.843 1388.49Z" fill-rule="evenodd" transform="matrix(1 0 0 1.00749 655.975 1412.44)"/><path d="M956.843 1388.49 956.843 1388.49 959.786 1386.77 962.77 1388.49 962.77 1443.91 959.786 1445.63 956.802 1447.34Z" fill-rule="evenodd" transform="matrix(1 0 0 1.00749 655.975 1412.44)"/><path d="M974.622 1395.31 974.622 1437.08" stroke="#000000" stroke-width="5.92637" fill="none" transform="matrix(1 0 0 1.00749 655.975 1412.44)"/><path d="M956.802 1447.34 956.802 1447.34 959.786 1445.63 962.77 1443.91 1010.75 1471.62 1010.75 1475.05 1010.75 1478.49Z" fill-rule="evenodd" transform="matrix(1 0 0 1.00749 655.975 1412.44)"/><path d="M1010.75 1478.49 1010.75 1478.49 1010.75 1475.05 1010.75 1471.62 1058.78 1443.91 1061.72 1445.63 1064.66 1447.34Z" fill-rule="evenodd" transform="matrix(1 0 0 1.00749 655.975 1412.44)"/><path d="M1010.75 1457.93 1046.92 1437.08" stroke="#000000" stroke-width="5.92637" transform="matrix(1 0 0 1.00749 655.975 1412.44)"/><path d="M1064.66 1447.34 1064.66 1447.34 1061.72 1445.63 1058.78 1443.91 1058.78 1388.49 1061.72 1386.77 1064.66 1385.05Z" fill-rule="evenodd" transform="matrix(1 0 0 1.00749 655.975 1412.44)"/><path d="M1064.66 1385.05 1064.66 1385.05 1061.72 1386.77 1058.78 1388.49 1010.75 1360.78 1010.75 1357.34 1013.74 1355.63Z" fill-rule="evenodd" transform="matrix(1 0 0 1.00749 655.975 1412.44)"/><path d="M1046.92 1395.31 1010.75 1374.47" stroke="#000000" stroke-width="5.92637" transform="matrix(1 0 0 1.00749 655.975 1412.44)"/><path d="M1007.81 1355.63 1007.81 1355.63 1010.75 1357.34 1010.75 1360.78 962.77 1388.49 959.786 1386.77 959.786 1383.34Z" fill-rule="evenodd" transform="matrix(1 0 0 1.00749 655.975 1412.44)"/><text font-family="Arial,Arial_MSFontService,sans-serif" font-weight="700" font-size="10" transform="matrix(4.08715 0 0 4.11777 1650.79 2737)">OH</text><path d="M1013.74 1355.63 1013.74 1355.63 1010.75 1357.34 1007.81 1355.63 1007.81 1321.74 1010.75 1321.74 1013.74 1321.74Z" fill-rule="evenodd" transform="matrix(1 0 0 1.00749 655.975 1412.44)"/></g></g></g></g><text font-family="Helvetica,Helvetica_MSFontService,sans-serif" font-weight="400" font-size="83" transform="matrix(1 0 0 1 1534.05 2815)">*</text><text font-family="Lato Black,Lato Black_MSFontService,sans-serif" font-weight="900" font-size="55" transform="matrix(1 0 0 1 1056.64 2991)">Predictive Modification Sites</text><text fill="#016EAB" font-family="Open Sans ExtraBold,Open Sans ExtraBold_MSFontService,sans-serif" font-weight="800" font-size="64" transform="matrix(1 0 0 1 -209.403 2541)">Step</text><text fill="#016EAB" font-family="Open Sans ExtraBold,Open Sans ExtraBold_MSFontService,sans-serif" font-weight="800" font-size="64" transform="matrix(1 0 0 1 -61.591 2541)">-</text><text fill="#016EAB" font-family="Open Sans ExtraBold,Open Sans ExtraBold_MSFontService,sans-serif" font-weight="800" font-size="64" transform="matrix(1 0 0 1 -40.966 2541)">by</text><text fill="#016EAB" font-family="Open Sans ExtraBold,Open Sans ExtraBold_MSFontService,sans-serif" font-weight="800" font-size="64" transform="matrix(1 0 0 1 37.959 2541)">-</text><text fill="#016EAB" font-family="Open Sans ExtraBold,Open Sans ExtraBold_MSFontService,sans-serif" font-weight="800" font-size="64" transform="matrix(1 0 0 1 58.584 2541)">step Optimization</text><text fill="#016EAB" font-family="Open Sans ExtraBold,Open Sans ExtraBold_MSFontService,sans-serif" font-weight="800" font-size="64" transform="matrix(1 0 0 1 -209.404 1932)">End</text><text fill="#016EAB" font-family="Open Sans ExtraBold,Open Sans ExtraBold_MSFontService,sans-serif" font-weight="800" font-size="64" transform="matrix(1 0 0 1 -90.2372 1932)">-</text><text fill="#016EAB" font-family="Open Sans ExtraBold,Open Sans ExtraBold_MSFontService,sans-serif" font-weight="800" font-size="64" transform="matrix(1 0 0 1 -69.6122 1932)">to</text><text fill="#016EAB" font-family="Open Sans ExtraBold,Open Sans ExtraBold_MSFontService,sans-serif" font-weight="800" font-size="64" transform="matrix(1 0 0 1 0.856583 1932)">-</text><text fill="#016EAB" font-family="Open Sans ExtraBold,Open Sans ExtraBold_MSFontService,sans-serif" font-weight="800" font-size="64" transform="matrix(1 0 0 1 21.4816 1932)">end Optimization</text></g></svg>