<svg width="436" height="189" xmlns="http://www.w3.org/2000/svg" xmlns:xlink="http://www.w3.org/1999/xlink" xml:space="preserve" overflow="hidden"><defs><linearGradient x1="2138.56" y1="1162.35" x2="2261.44" y2="1409.19" gradientUnits="userSpaceOnUse" spreadMethod="reflect" id="fill0"><stop offset="0" stop-color="#D86ECC"/><stop offset="0.32" stop-color="#A87BD0"/><stop offset="1" stop-color="#4E95D9"/></linearGradient></defs><g transform="translate(-1982 -1192)"><path d="M2242.31 1274.82C2237.19 1274.82 2232.9 1277.66 2229.44 1283.32 2225.98 1288.99 2224.25 1296.09 2224.25 1304.64 2224.25 1309.05 2225.26 1312.52 2227.28 1315.04 2229.3 1317.56 2232.04 1318.82 2235.5 1318.82 2240.54 1318.82 2244.79 1315.98 2248.25 1310.29 2251.71 1304.6 2253.44 1297.51 2253.44 1289.01 2253.44 1284.47 2252.47 1280.97 2250.53 1278.51 2248.59 1276.05 2245.85 1274.82 2242.31 1274.82ZM2164.31 1274.82C2159.19 1274.82 2154.9 1277.66 2151.44 1283.32 2147.98 1288.99 2146.25 1296.09 2146.25 1304.64 2146.25 1309.05 2147.26 1312.52 2149.28 1315.04 2151.3 1317.56 2154.04 1318.82 2157.5 1318.82 2162.54 1318.82 2166.79 1315.98 2170.25 1310.29 2173.71 1304.6 2175.44 1297.51 2175.44 1289.01 2175.44 1284.47 2174.47 1280.97 2172.53 1278.51 2170.59 1276.05 2167.85 1274.82 2164.31 1274.82ZM2243.31 1259.95C2252.27 1259.95 2259.27 1262.46 2264.31 1267.48 2269.35 1272.5 2271.87 1279.47 2271.87 1288.39 2271.87 1301.84 2268.41 1312.74 2261.47 1321.07 2254.53 1329.41 2245.5 1333.57 2234.37 1333.57 2225.42 1333.57 2218.42 1331.06 2213.37 1326.04 2208.33 1321.02 2205.81 1314.05 2205.81 1305.14 2205.81 1291.72 2209.28 1280.83 2216.22 1272.48 2223.16 1264.12 2232.19 1259.95 2243.31 1259.95ZM2165.31 1259.95C2174.27 1259.95 2181.27 1262.46 2186.31 1267.48 2191.35 1272.5 2193.87 1279.47 2193.87 1288.39 2193.87 1301.84 2190.41 1312.74 2183.47 1321.07 2176.53 1329.41 2167.5 1333.57 2156.37 1333.57 2147.42 1333.57 2140.42 1331.06 2135.37 1326.04 2130.33 1321.02 2127.81 1314.05 2127.81 1305.14 2127.81 1291.72 2131.28 1280.83 2138.22 1272.48 2145.16 1264.12 2154.19 1259.95 2165.31 1259.95ZM2312 1241.89 2330.31 1241.89 2326.44 1261.76 2350.37 1261.76 2347.69 1275.82 2323.75 1275.82 2317.25 1308.95C2317.08 1309.78 2316.96 1310.51 2316.87 1311.14 2316.79 1311.76 2316.75 1312.24 2316.75 1312.57 2316.75 1314.45 2317.37 1315.77 2318.62 1316.54 2319.87 1317.31 2322.15 1317.7 2325.44 1317.7L2339.5 1317.7 2336.81 1331.76 2321.5 1331.76C2313 1331.76 2306.97 1330.6 2303.41 1328.29 2299.84 1325.98 2298.06 1322.14 2298.06 1316.76 2298.06 1315.89 2298.16 1314.74 2298.34 1313.32 2298.53 1311.91 2298.81 1310.16 2299.19 1308.07L2305.5 1275.82 2287.56 1275.82 2290.25 1261.76 2308.19 1261.76ZM2059.75 1238.45 2081.81 1238.45 2084.87 1279.39 2103.44 1238.45 2125.94 1238.45 2107.87 1331.76 2092.06 1331.76 2106.87 1256.89 2088.56 1297.82 2074.87 1297.82 2071.94 1256.89 2057.5 1331.76 2041.75 1331.76Z" fill="url(#fill0)" fill-rule="evenodd"/><text fill="#000000" fill-opacity="0" font-family="Arial,Arial_MSFontService,sans-serif" font-size="95.125" x="2041.75" y="1321.68">Moot</text></g></svg>